ply
format ascii 1.0
comment Created by Blender 3.1.2 - www.blender.org
element vertex 13
property float x
property float y
property float z
property float nx
property float ny
property float nz
property float s
property float t
element face 8
property list uchar uint vertex_indices
end_header
0.105640 1.000000 -1.000000 -0.489256 0.588581 -0.643585 0.763205 0.750000
-0.145689 1.000000 -0.141557 -0.734866 0.352406 0.579467 0.731789 0.642695
0.351391 1.000000 -0.015137 0.062493 0.371026 0.926517 0.793924 0.626892
1.000000 1.000000 -0.316894 0.686176 0.417342 0.595809 0.875000 0.664612
1.000000 1.000000 -1.000000 0.577350 0.577350 -0.577350 0.875000 0.750000
1.000000 0.244742 -1.000000 0.761033 -0.503197 -0.409416 0.530593 1.000000
0.505851 -0.199877 -1.000000 0.187468 -0.941884 -0.278766 0.475015 0.938231
0.131176 -0.104303 -1.000000 -0.578146 -0.746046 -0.330396 0.486962 0.891397
0.105640 1.000000 -1.000000 -0.489256 0.588581 -0.643585 0.625000 0.888205
1.000000 1.000000 -1.000000 0.577350 0.577350 -0.577350 0.625000 1.000000
1.000000 1.000000 -0.316894 0.686176 0.417342 0.595809 0.625000 0.085388
1.000000 0.244742 -1.000000 0.761033 -0.503197 -0.409416 0.530593 0.000000
1.000000 1.000000 -1.000000 0.577350 0.577350 -0.577350 0.625000 0.000000
5 0 1 2 3 4
5 5 6 7 8 9
3 10 11 12
3 11 10 6
3 10 2 6
3 0 7 1
3 1 7 2
3 6 2 7
