ply
format ascii 1.0
comment Created by Blender 3.1.2 - www.blender.org
element vertex 9
property float x
property float y
property float z
property float nx
property float ny
property float nz
property float s
property float t
element face 10
property list uchar uint vertex_indices
end_header
1.000000 0.350797 1.000000 0.566049 -0.590892 0.574835 0.543850 0.250000
1.000000 0.093355 0.239247 0.357632 -0.873223 -0.331031 0.511669 0.154906
1.000000 1.000000 0.149820 0.634671 0.568010 -0.523982 0.625000 0.143727
1.000000 1.000000 1.000000 0.577350 0.577350 0.577350 0.625000 0.250000
-0.408046 -0.068792 1.000000 -0.469691 -0.832611 0.293512 0.491401 0.426006
-0.638884 1.000000 1.000000 0.000000 0.707107 0.707107 0.625000 0.454861
-1.000000 1.000000 1.000000 -0.992320 0.118071 0.036873 0.625000 0.500000
-0.489508 0.811694 1.000000 -0.984552 -0.171353 -0.036001 0.601462 0.436189
-0.145689 1.000000 -0.141557 -0.426640 0.314846 -0.847850 0.000000 0.000000
4 0 1 2 3
6 4 0 3 5 6 7
5 5 3 2 8 8
3 5 8 6
3 2 1 8
3 1 0 8
3 0 4 8
3 4 7 8
3 8 7 8
3 7 6 8
