ply
format ascii 1.0
comment Created by Blender 3.1.2 - www.blender.org
element vertex 7
property float x
property float y
property float z
property float nx
property float ny
property float nz
property float s
property float t
element face 9
property list uchar uint vertex_indices
end_header
-0.267151 1.000000 0.272744 0.603333 0.504402 -0.617712 0.000000 0.000000
-1.000000 1.000000 0.613790 -0.671936 0.652352 -0.350626 0.625000 0.548276
-1.000000 1.000000 1.000000 -0.568490 0.581142 0.582317 0.625000 0.500000
-1.000000 -0.245242 1.000000 -0.477818 -0.723495 0.498241 0.469345 0.500000
-0.408046 -0.068792 1.000000 0.693845 -0.561104 0.451377 0.491401 0.426006
-0.489508 0.811694 1.000000 0.554697 0.098987 0.826143 0.601462 0.436189
-1.000000 -0.094720 0.298975 -0.389837 -0.567351 -0.725355 0.488160 0.587628
4 0 1 2 0
4 3 4 5 2
4 1 6 3 2
3 0 2 5
3 0 5 0
3 4 0 5
3 3 6 4
3 1 0 6
3 4 6 0
