ply
format ascii 1.0
comment Created by Blender 3.1.2 - www.blender.org
element vertex 13
property float x
property float y
property float z
property float nx
property float ny
property float nz
property float s
property float t
element face 24
property list uchar uint vertex_indices
end_header
-1.000000 0.032813 -0.294984 -0.419555 -0.887507 -0.190539 0.504102 0.661873
-1.000000 0.184175 -1.000000 -0.703821 0.066082 -0.707297 0.000000 0.000000
0.131176 -0.104303 -1.000000 -0.104762 -0.962539 0.250088 0.486962 0.891397
-0.145689 1.000000 -0.141557 0.001508 -0.972019 -0.234898 0.731789 0.642695
0.351391 1.000000 -0.015137 -0.299280 -0.898750 -0.320438 0.793924 0.626892
0.505851 -0.199877 -1.000000 -0.365065 -0.754422 0.545504 0.475015 0.938231
1.000000 0.093355 0.239247 -0.681299 -0.684620 0.259088 0.511669 0.154906
1.000000 -0.325927 -1.000000 -0.692421 0.197340 0.693981 0.459259 1.000000
-1.000000 -0.094720 0.298975 0.989104 0.116557 -0.089936 0.488160 0.587628
-0.267151 1.000000 0.272744 -0.114882 -0.915519 -0.385521 0.716606 0.590907
1.000000 0.350797 1.000000 -0.694462 -0.168287 -0.699573 0.543850 0.250000
-0.408046 -0.068792 1.000000 0.161571 -0.034041 -0.986274 0.491401 0.426006
-1.000000 -0.245242 1.000000 0.666042 0.140849 -0.732495 0.469345 0.500000
3 0 1 1
3 1 2 1
3 3 2 4
3 5 4 2
3 4 5 6
3 6 5 7
3 8 0 3
3 3 9 8
3 6 10 1
3 10 11 1
3 12 8 11
3 11 8 1
3 9 3 11
3 6 3 4
3 8 1 0
3 1 8 12
3 1 1 1
3 12 1 1
3 1 10 1
3 1 10 1
3 1 1 1
3 2 1 3
3 1 2 1
3 0 3 1
