ply
format ascii 1.0
comment Created by Blender 3.1.2 - www.blender.org
element vertex 25
property float x
property float y
property float z
property float nx
property float ny
property float nz
property float s
property float t
element face 24
property list uchar uint vertex_indices
end_header
-0.159910 -0.563028 -0.141557 0.148721 0.987999 0.041721 0.475973 0.788299
0.131176 -0.104303 -1.000000 0.090793 0.160372 0.982872 0.667524 0.723733
-1.000000 0.032813 -0.294984 0.976695 0.176332 0.122370 0.571174 0.972324
0.505851 -0.199877 -1.000000 -0.173285 0.136597 0.975353 0.655395 0.647758
-0.145689 1.000000 -0.141557 0.297398 -0.890261 0.344948 0.292188 0.116299
-0.408046 -0.068792 1.000000 0.378735 0.267610 -0.885971 0.025233 0.289283
-1.000000 -0.094720 0.298975 0.917753 0.208473 -0.338036 0.000084 0.106869
0.232278 -0.491984 -0.197952 -0.247126 0.963163 -0.106045 0.487926 0.709101
1.000000 -0.325927 -1.000000 -0.692398 0.197343 0.694003 0.641815 0.547200
-1.000000 0.184175 -1.000000 0.705952 0.017552 0.708043 0.713129 0.951490
1.000000 0.350797 1.000000 -0.697857 -0.076694 -0.712119 0.213795 0.515822
1.000000 0.093355 0.239247 -0.976737 0.213704 0.017749 0.376670 0.524060
0.351391 1.000000 -0.015137 -0.434059 -0.875664 0.211672 0.372207 0.291609
-0.145689 1.000000 -0.141557 0.297398 -0.890261 0.344948 0.428111 0.205714
0.131176 -0.104303 -1.000000 0.090793 0.160372 0.982872 0.660526 0.370504
0.505851 -0.199877 -1.000000 -0.173285 0.136597 0.975353 0.643117 0.445780
-1.000000 0.032813 -0.294984 0.976695 0.176332 0.122370 0.621312 0.032213
-1.000000 0.184175 -1.000000 0.705952 0.017552 0.708043 0.713129 0.143252
-0.159910 -0.563028 -0.141557 0.148721 0.987999 0.041721 0.475106 0.789734
-0.408046 -0.068792 1.000000 0.378735 0.267610 -0.885971 0.218955 0.813777
-1.000000 0.032813 -0.294984 0.976695 0.176332 0.122370 0.058818 0.000084
-1.000000 -0.094720 0.298975 0.917753 0.208473 -0.338036 0.339281 0.955839
-1.000000 0.032813 -0.294984 0.976695 0.176332 0.122370 0.454344 0.999916
-0.267151 1.000000 0.272744 0.666643 -0.712973 -0.217388 0.270404 0.200126
-0.145689 1.000000 -0.141557 0.297398 -0.890261 0.344948 0.356414 0.189934
3 0 1 2
3 0 3 1
3 4 5 6
3 7 3 0
3 3 7 8
3 2 1 9
3 7 10 11
3 12 13 14
3 14 15 12
3 13 16 17
3 10 7 18
3 10 18 19
3 14 13 17
3 11 15 8
3 12 15 11
3 20 4 6
3 8 7 11
3 18 21 19
3 21 18 22
3 12 11 10
3 5 4 23
3 24 12 23
3 23 10 5
3 10 23 12
