ply
format ascii 1.0
comment Created by Blender 3.1.2 - www.blender.org
element vertex 318
property float x
property float y
property float z
property float nx
property float ny
property float nz
property float s
property float t
element face 272
property list uchar uint vertex_indices
end_header
8.278275 0.669072 1.059146 0.709636 -0.403835 0.577351 0.436413 0.771844
8.502976 0.541201 0.529573 0.828108 -0.471254 0.303572 0.464081 0.784221
8.694033 1.237646 0.620979 0.935411 -0.095983 0.340283 0.443615 0.811498
8.314313 1.228151 1.241959 0.730076 -0.114306 0.673738 0.414864 0.793160
8.570855 0.502574 -0.000000 0.869123 -0.494595 0.000000 0.486297 0.798228
8.802963 1.238927 -0.000000 0.994878 -0.101086 -0.000000 0.466548 0.826743
8.502976 0.541201 -0.529574 0.828108 -0.471254 -0.303572 0.507222 0.814099
8.694033 1.237646 -0.620980 0.935411 -0.095983 -0.340283 0.488885 0.842850
8.278275 0.669072 -1.059147 0.709636 -0.403835 -0.577351 0.528539 0.835647
8.314313 1.228151 -1.241960 0.730076 -0.114306 -0.673738 0.516162 0.863315
8.631195 1.864361 0.648592 0.899286 0.246978 0.360952 0.427509 0.833834
8.227319 1.753441 1.297184 0.681859 0.187264 0.707107 0.398994 0.814086
8.745445 1.895738 -0.000000 0.964295 0.264832 -0.000000 0.450574 0.849808
8.631195 1.864361 -0.648592 0.899286 0.246978 -0.360952 0.473639 0.865782
8.227319 1.753441 -1.297184 0.681859 0.187264 -0.707107 0.502154 0.885531
8.365123 2.435260 0.620979 0.755176 0.560282 0.340283 0.412264 0.856767
8.033817 2.249480 1.241959 0.569285 0.471160 0.673738 0.384986 0.836302
8.459428 2.489794 -0.000000 0.803695 0.595042 0.000000 0.434600 0.872873
8.365123 2.435260 -0.620980 0.755176 0.560282 -0.340283 0.457533 0.888119
8.033817 2.249480 -1.241960 0.569285 0.471160 -0.673738 0.486284 0.906456
7.845156 2.936430 0.529573 0.471254 0.828108 0.303572 0.393926 0.885518
7.717285 2.711730 1.059146 0.403835 0.709636 0.577350 0.372609 0.863970
7.883784 3.004309 -0.000000 0.494595 0.869124 0.000000 0.414851 0.901389
7.845156 2.936430 -0.529574 0.471254 0.828108 -0.303572 0.437067 0.915396
7.717285 2.711730 -1.059147 0.403835 0.709636 -0.577350 0.464736 0.927773
7.816026 0.352539 -1.241960 0.471160 -0.569286 -0.673738 0.562596 0.829461
7.739714 0.975554 -1.610634 0.418250 -0.238015 -0.876593 0.555056 0.874951
7.319987 0.159038 -1.297184 0.305157 -0.639708 -0.705445 0.600630 0.822552
7.148220 0.784472 -1.716014 0.197666 -0.314542 -0.928435 0.600630 0.885987
-5.340163 -0.500643 -1.297184 -0.205960 -0.678161 -0.705463 0.740880 0.297770
-6.469464 -0.148230 -1.297184 -0.270981 -0.655056 -0.705316 0.811408 0.300333
-6.302806 0.478585 -1.716013 -0.180859 -0.325303 -0.928153 0.810901 0.346997
-5.190517 0.130298 -1.716013 -0.108163 -0.353717 -0.929078 0.741174 0.343474
-6.469464 -0.148230 -1.297184 -0.270981 -0.655056 -0.705316 0.000135 0.877065
-6.967066 0.041217 -1.241959 -0.466499 -0.573112 -0.673737 0.038170 0.870156
-6.895841 0.664834 -1.610634 -0.416294 -0.241420 -0.876593 0.061226 0.910089
-6.302806 0.478585 -1.716013 -0.180859 -0.325303 -0.928153 0.022444 0.936447
-7.431884 0.353968 -1.059146 -0.706317 -0.409613 -0.577350 0.072227 0.863970
-7.472484 0.912735 -1.241959 -0.729120 -0.120258 -0.673737 0.093543 0.885518
7.601885 1.581674 -1.716014 0.348064 0.095592 -0.932584 0.537045 0.909695
6.976452 1.409906 -1.834496 0.081592 0.030848 -0.996188 0.579118 0.938833
-6.136147 1.105399 -1.834495 -0.084387 0.025114 -0.996116 0.810453 0.386741
-5.040651 0.761188 -1.834495 0.000043 -0.000541 -1.000000 0.741421 0.382938
-6.762962 1.272058 -1.716013 -0.348833 0.092748 -0.932584 0.090305 0.936279
-6.136147 1.105399 -1.834495 -0.084387 0.025114 -0.996116 0.061167 0.978353
-7.389775 1.438717 -1.297184 -0.683364 0.181695 -0.707107 0.114469 0.901389
7.410804 2.173168 -1.610634 0.238015 0.418250 -0.876593 0.510854 0.938774
6.804685 2.035340 -1.716014 -0.045237 0.373840 -0.926390 0.537212 0.977556
-5.969489 1.732214 -1.716013 0.021795 0.373131 -0.927523 0.810052 0.426461
-4.890568 1.392026 -1.716013 0.110145 0.352217 -0.929415 0.741637 0.422847
-6.576713 1.865092 -1.610634 -0.241420 0.416294 -0.876593 0.125049 0.954290
-5.969489 1.732214 -1.716013 0.021795 0.373131 -0.927523 0.114013 0.999865
-7.200330 1.936318 -1.241959 -0.573112 0.466498 -0.673738 0.136685 0.915396
7.158206 2.747768 -1.241960 0.114306 0.730077 -0.673737 0.470922 0.961830
6.632917 2.660774 -1.297184 -0.164204 0.693776 -0.701222 0.477830 0.999864
-5.802829 2.359029 -1.297184 0.121775 0.699653 -0.704028 0.809683 0.472989
-4.740270 2.022814 -1.297184 0.212855 0.675625 -0.705849 0.741783 0.470120
-6.328812 2.441734 -1.241959 -0.120259 0.729120 -0.673737 0.170539 0.961830
-5.802829 2.359029 -1.297184 0.121775 0.699653 -0.704028 0.177448 0.999865
-6.887578 2.401136 -1.059146 -0.409612 0.706318 -0.577350 0.164353 0.927773
-7.655533 0.224268 -0.529573 -0.824235 -0.477996 -0.303572 0.084604 0.836302
-7.852266 0.919130 -0.620979 -0.934597 -0.103611 -0.340282 0.111881 0.856767
-7.723094 0.185088 0.000000 -0.865059 -0.501671 0.000000 0.098611 0.814086
-7.961203 0.919522 0.000000 -0.994020 -0.109200 -0.000000 0.127126 0.833835
-7.655533 0.224268 0.529574 -0.824235 -0.477996 0.303572 0.114482 0.793161
-7.852266 0.919130 0.620980 -0.934597 -0.103611 0.340282 0.143233 0.811498
-7.431884 0.353968 1.059147 -0.706317 -0.409613 0.577350 0.136030 0.771844
-7.472484 0.912735 1.241960 -0.729120 -0.120258 0.673737 0.163698 0.784221
-7.794542 1.546337 -0.648592 -0.901271 0.239632 -0.360952 0.134218 0.872873
-7.909046 1.576781 0.000000 -0.966423 0.256955 0.000000 0.150191 0.849809
-7.794542 1.546337 0.648592 -0.901271 0.239632 0.360952 0.166165 0.826744
-7.389775 1.438717 1.297184 -0.683364 0.181695 0.707107 0.185914 0.798228
-7.533139 2.119389 -0.620979 -0.759723 0.554101 -0.340282 0.157150 0.888119
-7.627884 2.173151 0.000000 -0.808523 0.588464 0.000000 0.173256 0.865782
-7.533139 2.119389 0.620980 -0.759723 0.554101 0.340282 0.188502 0.842850
-7.200330 1.936318 1.241960 -0.573112 0.466498 0.673738 0.206839 0.814099
-7.017278 2.624785 -0.529573 -0.477995 0.824236 -0.303572 0.185901 0.906457
-7.056458 2.692346 0.000000 -0.501670 0.865059 0.000000 0.201772 0.885531
-7.017278 2.624785 0.529573 -0.477995 0.824236 0.303571 0.215779 0.863315
-6.887578 2.401136 1.059147 -0.409612 0.706318 0.577350 0.228156 0.835647
-6.967066 0.041217 1.241960 -0.466498 -0.573112 0.673737 0.129844 0.737787
-6.895841 0.664834 1.610634 -0.416294 -0.241420 0.876593 0.175333 0.745327
-6.469464 -0.148230 1.297184 -0.270981 -0.655056 0.705316 0.122935 0.699753
-6.302806 0.478585 1.716014 -0.180859 -0.325303 0.928153 0.186369 0.699752
6.049056 -0.377935 1.297184 0.252450 -0.670307 0.697824 0.092110 0.135045
7.319987 0.159038 1.297184 0.305157 -0.639708 0.705445 0.011574 0.129252
7.148220 0.784472 1.716013 0.197666 -0.314542 0.928435 0.010539 0.082846
5.915582 0.258084 1.716013 0.136735 -0.352345 0.925828 0.089256 0.090580
7.319987 0.159038 1.297184 0.305157 -0.639708 0.705445 0.423318 0.699752
7.816026 0.352539 1.241959 0.471160 -0.569286 0.673738 0.430227 0.737787
7.739714 0.975554 1.610634 0.418250 -0.238015 0.876593 0.390294 0.760843
7.148220 0.784472 1.716013 0.197666 -0.314542 0.928435 0.363936 0.722061
-6.762962 1.272058 1.716014 -0.348832 0.092748 0.932584 0.210078 0.763338
-6.136147 1.105399 1.834496 -0.084387 0.025114 0.996116 0.239216 0.721264
6.976452 1.409906 1.834495 0.081592 0.030848 0.996188 0.009438 0.043346
5.782095 0.894079 1.834495 0.000881 -0.002904 0.999995 0.086356 0.051971
7.601885 1.581674 1.716013 0.348064 0.095592 0.932584 0.364103 0.789922
6.976452 1.409906 1.834495 0.081592 0.030848 0.996188 0.322030 0.760784
-6.576713 1.865092 1.610634 -0.241420 0.416294 0.876593 0.239157 0.789528
-5.969489 1.732214 1.716014 0.021795 0.373131 0.927523 0.277939 0.763170
6.804685 2.035340 1.716013 -0.045237 0.373840 0.926390 0.008504 0.003853
5.648596 1.530048 1.716013 -0.140649 0.342728 0.928846 0.083574 0.012754
7.410804 2.173168 1.610634 0.238015 0.418250 0.876593 0.346092 0.824666
6.804685 2.035340 1.716013 -0.045237 0.373840 0.926390 0.300518 0.813630
-6.328812 2.441734 1.241959 -0.120259 0.729120 0.673737 0.262213 0.829461
-5.802829 2.359029 1.297184 0.121775 0.699654 0.704028 0.300247 0.822552
5.648596 1.530048 1.716013 -0.140649 0.342728 0.928846 0.083589 0.693898
6.804685 2.035340 1.716013 -0.045237 0.373840 0.926390 0.008254 0.690706
6.632917 2.660774 1.297184 -0.164204 0.693776 0.701222 0.004319 0.644770
5.515084 2.165991 1.297184 -0.271291 0.655214 0.705050 0.078443 0.647267
7.158206 2.747768 1.241959 0.114306 0.730077 0.673737 0.338553 0.870156
6.632917 2.660774 1.297184 -0.164204 0.693776 0.701222 0.300518 0.877065
-7.150136 -0.291592 0.620980 -0.554101 -0.759723 0.340282 0.089911 0.760843
-7.203899 -0.386337 0.000000 -0.588464 -0.808523 -0.000000 0.063721 0.789922
-7.150136 -0.291592 -0.620979 -0.554102 -0.759723 -0.340282 0.045710 0.824667
-6.577085 -0.552996 0.648592 -0.337314 -0.868391 0.363477 0.063553 0.722061
-6.607530 -0.667500 0.000000 -0.360823 -0.932634 0.000000 0.021647 0.760784
-6.577085 -0.552996 -0.648592 -0.337314 -0.868391 -0.363477 0.000135 0.813631
6.135242 -0.788657 0.648592 0.323186 -0.874439 0.361810 0.093880 0.178853
7.430906 -0.244837 0.648592 0.382303 -0.849711 0.363091 0.012067 0.175782
6.159622 -0.904847 -0.000000 0.345123 -0.938558 -0.000000 0.094321 0.216024
7.462285 -0.359088 -0.000000 0.408934 -0.912564 -0.000000 0.011937 0.215515
6.135242 -0.788657 -0.648592 0.323186 -0.874439 -0.361810 0.093496 0.253230
7.430906 -0.244837 -0.648592 0.382303 -0.849711 -0.363091 0.011578 0.255242
6.049056 -0.377935 -1.297184 0.252450 -0.670307 -0.697824 0.091219 0.297188
7.319987 0.159038 -1.297184 0.305157 -0.639708 -0.705445 0.010425 0.301742
7.430906 -0.244837 0.648592 0.382303 -0.849711 0.363091 0.486752 0.699752
8.001806 0.021235 0.620979 0.560282 -0.755177 0.340283 0.475716 0.745327
7.462285 -0.359088 -0.000000 0.408934 -0.912564 -0.000000 0.539599 0.721265
8.056340 -0.073069 -0.000000 0.595042 -0.803695 0.000000 0.510460 0.763338
7.430906 -0.244837 -0.648592 0.382303 -0.849711 -0.363091 0.578322 0.763170
8.001806 0.021235 -0.620980 0.560282 -0.755177 -0.340283 0.539540 0.789529
7.148712 3.127486 0.620979 0.095983 0.935412 0.340282 0.361609 0.910088
7.147430 3.236416 -0.000000 0.101086 0.994878 -0.000000 0.390688 0.936279
7.148712 3.127486 -0.620980 0.095983 0.935412 -0.340282 0.425432 0.954290
6.521997 3.064648 0.648592 -0.234090 0.902821 0.360717 0.322827 0.936447
6.490620 3.178900 -0.000000 -0.252491 0.967599 0.000000 0.361549 0.978352
6.521997 3.064648 -0.648592 -0.234090 0.902821 -0.360717 0.414396 0.999864
-4.740270 2.022814 1.297184 0.212855 0.675625 0.705849 0.739784 0.647271
-4.643100 2.430119 0.648592 0.280899 0.886829 0.366919 0.740821 0.599771
-5.695210 2.763795 0.648592 0.179478 0.914428 0.362781 0.808367 0.599671
-5.802829 2.359029 1.297184 0.121775 0.699654 0.704028 0.807453 0.646257
-4.615596 2.545337 0.000000 0.302478 0.953156 -0.000000 0.741426 0.558853
-5.664765 2.878298 0.000000 0.193956 0.981010 0.000000 0.809033 0.559677
-4.643100 2.430119 -0.648592 0.280899 0.886829 -0.366919 0.741721 0.517868
-5.695210 2.763795 -0.648592 0.179478 0.914428 -0.362781 0.809378 0.519649
-5.695210 2.763795 0.648592 0.179478 0.914428 0.362781 0.300247 0.885986
-6.322416 2.821517 0.620980 -0.103612 0.934598 0.340282 0.254673 0.874951
-5.664765 2.878298 0.000000 0.193956 0.981010 0.000000 0.278735 0.938833
-6.322024 2.930453 0.000000 -0.109200 0.994020 0.000000 0.236662 0.909695
-5.695210 2.763795 -0.648592 0.179478 0.914428 -0.362781 0.236830 0.977556
-6.322416 2.821517 -0.620979 -0.103612 0.934598 -0.340282 0.210471 0.938774
6.521997 3.064648 -0.648592 -0.234090 0.902821 -0.360717 0.000357 0.519140
6.632917 2.660774 -1.297184 -0.164204 0.693776 -0.701222 0.001931 0.472938
5.515084 2.165991 -1.297184 -0.271291 0.655214 -0.705050 0.076361 0.468099
5.428861 2.576638 -0.648592 -0.355887 0.859330 -0.367284 0.074006 0.516357
4.279957 1.684385 -1.297184 -0.200599 0.670414 -0.714356 0.160121 0.462737
4.250632 2.127986 -0.648592 -0.270156 0.886406 -0.375899 0.155267 0.513659
2.955940 1.401848 -1.297184 -0.104509 0.691622 -0.714658 0.247481 0.462228
2.956472 1.831527 -0.648592 -0.147045 0.914537 -0.376828 0.243166 0.512967
1.751109 1.297184 -1.297184 -0.030886 0.702262 -0.711248 0.325312 0.463766
1.751109 1.716013 -0.648592 -0.043511 0.927186 -0.372065 0.323106 0.513728
0.583713 1.297374 -1.297184 -0.007946 0.706337 -0.707831 0.399094 0.466164
0.583706 1.717111 -0.648592 -0.007686 0.928972 -0.370071 0.398616 0.514930
-0.564513 1.269725 -1.297184 0.010969 0.700025 -0.714034 0.471606 0.464658
-0.558154 1.697900 -0.648592 0.017453 0.926412 -0.376106 0.472170 0.514508
-1.664518 1.329019 -1.297184 0.068141 0.696130 -0.714675 0.541863 0.463975
-1.642969 1.758546 -0.648592 0.088885 0.922213 -0.376329 0.542978 0.514273
-2.720324 1.479994 -1.297184 0.126167 0.691419 -0.711352 0.610042 0.464721
-2.675655 1.900045 -0.648592 0.164645 0.913513 -0.372002 0.611130 0.514669
-3.736579 1.708033 -1.297184 0.182720 0.681240 -0.708890 0.676227 0.466518
-3.663342 2.119579 -0.648592 0.241894 0.897382 -0.369042 0.676740 0.515727
6.490620 3.178900 -0.000000 -0.252491 0.967599 0.000000 0.000135 0.558908
5.404468 2.692803 -0.000000 -0.382067 0.924135 0.000000 0.073677 0.557938
4.243532 2.254321 -0.000000 -0.292566 0.956245 -0.000000 0.154074 0.557164
2.956994 1.953595 -0.000000 -0.162728 0.986671 -0.000000 0.242022 0.556840
1.751109 1.834495 -0.000000 -0.048227 0.998836 0.000000 0.322388 0.556915
0.583703 1.835803 -0.000000 -0.006873 0.999976 0.000000 0.398421 0.557139
-0.556764 1.821252 0.000000 0.020341 0.999793 -0.000000 0.472303 0.557338
-1.637226 1.880709 0.000000 0.094979 0.995479 -0.000000 0.543151 0.557511
-2.662836 2.017456 0.000000 0.176140 0.984365 -0.000000 0.611173 0.557775
-3.642552 2.235987 0.000000 0.260623 0.965441 0.000000 0.676570 0.558212
6.521997 3.064648 0.648592 -0.234090 0.902821 0.360717 0.001426 0.598640
5.428861 2.576638 0.648592 -0.355887 0.859330 0.367284 0.074945 0.599415
4.250632 2.127986 0.648592 -0.270156 0.886406 0.375899 0.155828 0.600516
2.956472 1.831527 0.648592 -0.147045 0.914537 0.376828 0.243264 0.600609
1.751109 1.716013 0.648592 -0.043511 0.927186 0.372065 0.322945 0.600077
0.583706 1.717111 0.648592 -0.007686 0.928972 0.370071 0.398388 0.599356
-0.558154 1.697900 0.648592 0.017453 0.926412 0.376106 0.471946 0.600177
-1.642969 1.758546 0.648592 0.088885 0.922213 0.376328 0.542712 0.600714
-2.675655 1.900045 0.648592 0.164645 0.913513 0.372002 0.610687 0.600802
-3.663342 2.119579 0.648592 0.241894 0.897382 0.369042 0.676048 0.600606
4.279957 1.684385 1.297184 -0.200599 0.670414 0.714356 0.161279 0.650834
2.955940 1.401848 1.297184 -0.104509 0.691622 0.714658 0.247581 0.650953
1.751109 1.297184 1.297184 -0.030886 0.702263 0.711248 0.324852 0.649919
0.583713 1.297374 1.297184 -0.007946 0.706337 0.707831 0.398583 0.648184
-0.564513 1.269725 1.297184 0.010969 0.700025 0.714034 0.471156 0.650084
-1.664518 1.329019 1.297184 0.068141 0.696130 0.714675 0.541366 0.650877
-2.720324 1.479994 1.297184 0.126167 0.691419 0.711352 0.609142 0.650439
-3.736579 1.708033 1.297184 0.182721 0.681240 0.708890 0.674734 0.649447
-6.577085 -0.552996 -0.648592 -0.337314 -0.868391 -0.363477 0.811726 0.253500
-5.436680 -0.908102 -0.648592 -0.269152 -0.890517 -0.366792 0.740578 0.252466
-4.181441 -0.842880 -1.297184 -0.173272 -0.690108 -0.702658 0.670998 0.295019
-4.251847 -1.254960 -0.648592 -0.224573 -0.903411 -0.365260 0.669918 0.251371
-2.988259 -1.089703 -1.297184 -0.123928 -0.700552 -0.702758 0.602072 0.294097
-3.029990 -1.505840 -0.648592 -0.160419 -0.916776 -0.365769 0.600623 0.251122
-1.799759 -1.263968 -1.297184 -0.069857 -0.709057 -0.701683 0.535015 0.293297
-1.819775 -1.680877 -0.648592 -0.090119 -0.926470 -0.365420 0.533746 0.250911
-0.604839 -1.325719 -1.297184 -0.009642 -0.711255 -0.702868 0.468441 0.293903
-0.609334 -1.741372 -0.648592 -0.013167 -0.930538 -0.365958 0.467770 0.251344
0.583687 -1.297235 -1.297184 0.008518 -0.706979 -0.707184 0.401756 0.295565
0.583703 -1.716014 -0.648592 0.010217 -0.929685 -0.368213 0.401999 0.252277
1.751109 -1.297184 -1.297184 0.032583 -0.710292 -0.703152 0.336441 0.293901
1.751109 -1.716014 -0.648592 0.043162 -0.929779 -0.365579 0.338014 0.251646
2.955539 -1.186541 -1.297184 0.098996 -0.708202 -0.699035 0.269759 0.293544
2.954277 -1.603075 -0.648592 0.128923 -0.922758 -0.363176 0.272958 0.251668
4.471097 -0.899302 -1.297184 0.179943 -0.696396 -0.694733 0.184711 0.293964
4.496040 -1.313354 -0.648592 0.228412 -0.904252 -0.360773 0.188509 0.251967
-6.607530 -0.667500 0.000000 -0.360823 -0.932634 0.000000 0.811726 0.213409
-5.463966 -1.023371 0.000000 -0.288882 -0.957365 0.000000 0.740297 0.213938
-4.271695 -1.371546 0.000000 -0.240650 -0.970612 0.000000 0.669387 0.214423
-3.041735 -1.623585 0.000000 -0.171924 -0.985110 0.000000 0.600042 0.214822
-1.825867 -1.799696 0.000000 -0.096393 -0.995343 0.000000 0.533230 0.215145
-0.611088 -1.860158 0.000000 -0.014236 -0.999899 0.000000 0.467513 0.215441
0.583703 -1.834495 -0.000000 0.010695 -0.999943 0.000000 0.401923 0.215729
1.751109 -1.834495 -0.000000 0.046531 -0.998917 -0.000000 0.338399 0.216069
2.954289 -1.721556 -0.000000 0.138181 -0.990407 0.000000 0.273837 0.216272
4.504521 -1.432299 -0.000000 0.243406 -0.969924 0.000000 0.189618 0.216345
-6.577085 -0.552996 0.648592 -0.337314 -0.868391 0.363477 0.811154 0.173312
-5.436680 -0.908102 0.648592 -0.269152 -0.890517 0.366792 0.740023 0.175420
-4.251847 -1.254960 0.648592 -0.224573 -0.903412 0.365260 0.669446 0.177492
-3.029990 -1.505840 0.648592 -0.160419 -0.916776 0.365769 0.600235 0.178537
-1.819775 -1.680877 0.648592 -0.090119 -0.926470 0.365420 0.533411 0.179385
-0.609334 -1.741372 0.648592 -0.013167 -0.930538 0.365958 0.467437 0.179539
0.583703 -1.716014 0.648592 0.010217 -0.929685 0.368213 0.401608 0.179222
1.751109 -1.716014 0.648592 0.043162 -0.929779 0.365579 0.337806 0.180471
2.954277 -1.603075 0.648592 0.128923 -0.922758 0.363176 0.272805 0.180922
4.496040 -1.313354 0.648592 0.228412 -0.904252 0.360773 0.188602 0.180780
-6.469464 -0.148230 1.297184 -0.270981 -0.655056 0.705316 0.810125 0.126443
-5.340163 -0.500643 1.297184 -0.205960 -0.678161 0.705463 0.739648 0.130164
-4.181440 -0.842880 1.297184 -0.173272 -0.690108 0.702658 0.669962 0.133924
-2.988259 -1.089703 1.297184 -0.123928 -0.700552 0.702758 0.601235 0.135624
-1.799759 -1.263968 1.297184 -0.069857 -0.709057 0.701683 0.534298 0.137016
-0.604839 -1.325719 1.297184 -0.009642 -0.711255 0.702868 0.467725 0.136964
0.583687 -1.297235 1.297184 0.008518 -0.706979 0.707184 0.400974 0.135935
1.751109 -1.297184 1.297184 0.032583 -0.710293 0.703152 0.335813 0.138304
2.955539 -1.186541 1.297184 0.098996 -0.708202 0.699035 0.269394 0.139238
4.471100 -0.899301 1.297184 0.179943 -0.696396 0.694733 0.184934 0.139015
-5.969489 1.732214 1.716014 0.021795 0.373131 0.927523 0.806467 0.692701
-4.890568 1.392026 1.716014 0.110145 0.352217 0.929415 0.738405 0.694077
-3.849210 1.070572 1.716013 0.093742 0.352888 0.930958 0.672791 0.696811
-2.790070 0.832626 1.716013 0.065608 0.357909 0.931449 0.606964 0.698453
-1.699785 0.674731 1.716013 0.035348 0.359725 0.932389 0.539645 0.699482
-0.575712 0.614464 1.716013 0.004739 0.361846 0.932226 0.470255 0.698922
0.583648 0.647956 1.716013 -0.005050 0.369036 0.929401 0.398977 0.696246
1.751109 0.648592 1.716013 -0.015121 0.363282 0.931557 0.327388 0.698049
2.957128 0.747208 1.716013 -0.050627 0.358270 0.932244 0.253473 0.699043
4.332974 1.023823 1.716013 -0.099950 0.346691 0.932639 0.168290 0.698778
-6.136147 1.105399 1.834496 -0.084387 0.025114 0.996116 0.807540 0.039917
-5.040651 0.761188 1.834496 0.000044 -0.000541 1.000000 0.738710 0.045261
-4.890568 1.392026 1.716014 0.110145 0.352217 0.929415 0.738060 0.005590
-5.969489 1.732214 1.716014 0.021795 0.373131 0.927523 0.806142 0.000135
-3.960896 0.432932 1.834495 -0.001104 -0.004435 0.999990 0.671619 0.050896
-3.849210 1.070572 1.716013 0.093742 0.352888 0.930958 0.672336 0.011369
-2.858913 0.189252 1.834495 -0.000989 -0.004465 0.999990 0.604654 0.053799
-2.790070 0.832626 1.716013 0.065608 0.357909 0.931449 0.606325 0.014238
-1.735146 0.024256 1.834495 -0.000862 -0.005810 0.999983 0.537246 0.055308
-1.699785 0.674731 1.716013 0.035348 0.359725 0.932389 0.538815 0.015296
-0.586524 -0.033965 1.834495 0.000010 -0.004668 0.999989 0.468724 0.054560
-0.575712 0.614464 1.716013 0.004739 0.361846 0.932226 0.469242 0.014337
0.583622 -0.000526 1.834495 -0.000067 0.001603 0.999999 0.398821 0.052847
0.583648 0.647956 1.716013 -0.005050 0.369036 0.929401 0.397483 0.012831
1.751109 0.000000 1.834495 0.000540 -0.004841 0.999988 0.329512 0.056836
1.751109 0.648592 1.716013 -0.015121 0.363282 0.931557 0.325877 0.017369
2.957639 0.101309 1.834495 0.001506 -0.006375 0.999979 0.258343 0.059527
2.957128 0.747208 1.716013 -0.050627 0.358270 0.932244 0.252239 0.020929
4.386524 0.372883 1.834495 0.003742 -0.009919 0.999944 0.173412 0.060077
4.332974 1.023823 1.716013 -0.099950 0.346691 0.932639 0.167682 0.021230
-6.302806 0.478585 1.716014 -0.180859 -0.325303 0.928153 0.808808 0.079718
-5.190517 0.130298 1.716014 -0.108163 -0.353717 0.929078 0.739196 0.084566
-4.071639 -0.204886 1.716013 -0.092714 -0.362662 0.927297 0.670806 0.089591
-2.924927 -0.450286 1.716013 -0.066444 -0.368420 0.927282 0.602958 0.092015
-1.769211 -0.622520 1.716013 -0.037397 -0.373890 0.926719 0.535799 0.093746
-0.596858 -0.682287 1.716013 -0.004607 -0.373747 0.927519 0.468256 0.093326
0.583613 -0.648962 1.716013 0.004929 -0.367170 0.930141 0.399956 0.091685
1.751109 -0.648592 1.716013 0.016819 -0.373340 0.927542 0.332761 0.095018
2.957284 -0.542878 1.716013 0.052363 -0.374630 0.925695 0.263996 0.096807
4.435196 -0.269079 1.716013 0.100286 -0.371492 0.923004 0.179044 0.097222
6.804685 2.035340 -1.716014 -0.045237 0.373840 -0.926390 0.004303 0.426894
5.648596 1.530048 -1.716014 -0.140649 0.342728 -0.928846 0.080245 0.420667
4.332971 1.023823 -1.716014 -0.099950 0.346691 -0.932639 0.166666 0.413732
2.957128 0.747208 -1.716013 -0.050627 0.358270 -0.932244 0.253575 0.413523
1.751109 0.648592 -1.716013 -0.015121 0.363282 -0.931557 0.328315 0.415485
0.583648 0.647956 -1.716013 -0.005050 0.369036 -0.929401 0.399870 0.418303
-0.575713 0.614464 -1.716013 0.004739 0.361846 -0.932226 0.470846 0.416009
-1.699785 0.674731 -1.716013 0.035347 0.359725 -0.932389 0.540192 0.415163
-2.790070 0.832626 -1.716013 0.065608 0.357909 -0.931449 0.608179 0.416157
-3.849211 1.070572 -1.716013 0.093742 0.352888 -0.930958 0.675078 0.418438
6.976452 1.409906 -1.834496 0.081592 0.030848 -0.996188 0.006501 0.387529
5.782095 0.894079 -1.834496 0.000880 -0.002904 -0.999995 0.084055 0.380933
4.386521 0.372883 -1.834496 0.003742 -0.009919 -0.999944 0.172748 0.373953
2.957639 0.101309 -1.834495 0.001506 -0.006375 -0.999978 0.259253 0.374146
1.751109 0.000000 -1.834495 0.000539 -0.004841 -0.999988 0.331170 0.375736
0.583622 -0.000526 -1.834495 -0.000067 0.001603 -0.999999 0.400573 0.378541
-0.586524 -0.033965 -1.834495 0.000010 -0.004668 -0.999989 0.470104 0.376103
-1.735146 0.024256 -1.834495 -0.000862 -0.005810 -0.999983 0.538542 0.375081
-2.858914 0.189252 -1.834495 -0.000989 -0.004465 -0.999990 0.606255 0.376259
-3.960897 0.432932 -1.834495 -0.001104 -0.004435 -0.999990 0.673787 0.378479
7.148220 0.784472 -1.716014 0.197666 -0.314542 -0.928435 0.008545 0.348092
5.915582 0.258084 -1.716014 0.136735 -0.352345 -0.925828 0.087711 0.341941
4.435194 -0.269079 -1.716014 0.100286 -0.371492 -0.923004 0.178629 0.336197
2.957284 -0.542878 -1.716013 0.052363 -0.374630 -0.925695 0.264619 0.336349
1.751109 -0.648592 -1.716013 0.016819 -0.373340 -0.927542 0.333874 0.337349
0.583613 -0.648962 -1.716013 0.004929 -0.367170 -0.930141 0.401211 0.339792
-0.596859 -0.682287 -1.716013 -0.004607 -0.373747 -0.927519 0.469343 0.337476
-1.769212 -0.622520 -1.716013 -0.037397 -0.373890 -0.926719 0.536862 0.336597
-2.924927 -0.450286 -1.716013 -0.066444 -0.368420 -0.927282 0.604226 0.337839
-4.071639 -0.204886 -1.716013 -0.092714 -0.362662 -0.927297 0.672433 0.339523
4 0 1 2 3
4 1 4 5 2
4 4 6 7 5
4 6 8 9 7
4 3 2 10 11
4 2 5 12 10
4 5 7 13 12
4 7 9 14 13
4 11 10 15 16
4 10 12 17 15
4 12 13 18 17
4 13 14 19 18
4 16 15 20 21
4 15 17 22 20
4 17 18 23 22
4 18 19 24 23
4 8 25 26 9
4 25 27 28 26
4 29 30 31 32
4 33 34 35 36
4 34 37 38 35
4 9 26 39 14
4 26 28 40 39
4 32 31 41 42
4 36 35 43 44
4 35 38 45 43
4 14 39 46 19
4 39 40 47 46
4 42 41 48 49
4 44 43 50 51
4 43 45 52 50
4 19 46 53 24
4 46 47 54 53
4 49 48 55 56
4 51 50 57 58
4 50 52 59 57
4 37 60 61 38
4 60 62 63 61
4 62 64 65 63
4 64 66 67 65
4 38 61 68 45
4 61 63 69 68
4 63 65 70 69
4 65 67 71 70
4 45 68 72 52
4 68 69 73 72
4 69 70 74 73
4 70 71 75 74
4 52 72 76 59
4 72 73 77 76
4 73 74 78 77
4 74 75 79 78
4 66 80 81 67
4 80 82 83 81
4 84 85 86 87
4 88 89 90 91
4 89 0 3 90
4 67 81 92 71
4 81 83 93 92
4 87 86 94 95
4 91 90 96 97
4 90 3 11 96
4 71 92 98 75
4 92 93 99 98
4 95 94 100 101
4 97 96 102 103
4 96 11 16 102
4 75 98 104 79
4 98 99 105 104
4 106 107 108 109
4 103 102 110 111
4 102 16 21 110
4 66 64 112 80
4 64 62 113 112
4 62 60 114 113
4 60 37 34 114
4 80 112 115 82
4 112 113 116 115
4 113 114 117 116
4 114 34 33 117
4 84 118 119 85
4 118 120 121 119
4 120 122 123 121
4 122 124 125 123
4 88 126 127 89
4 126 128 129 127
4 128 130 131 129
4 130 27 25 131
4 89 127 1 0
4 127 129 4 1
4 129 131 6 4
4 131 25 8 6
4 21 20 132 110
4 20 22 133 132
4 22 23 134 133
4 23 24 53 134
4 110 132 135 111
4 132 133 136 135
4 133 134 137 136
4 134 53 54 137
4 138 139 140 141
4 139 142 143 140
4 142 144 145 143
4 144 56 55 145
4 105 146 147 104
4 146 148 149 147
4 148 150 151 149
4 150 58 57 151
4 104 147 78 79
4 147 149 77 78
4 149 151 76 77
4 151 57 59 76
4 152 153 154 155
4 155 154 156 157
4 157 156 158 159
4 159 158 160 161
4 161 160 162 163
4 163 162 164 165
4 165 164 166 167
4 167 166 168 169
4 169 168 170 171
4 171 170 56 144
4 172 152 155 173
4 173 155 157 174
4 174 157 159 175
4 175 159 161 176
4 176 161 163 177
4 177 163 165 178
4 178 165 167 179
4 179 167 169 180
4 180 169 171 181
4 181 171 144 142
4 182 172 173 183
4 183 173 174 184
4 184 174 175 185
4 185 175 176 186
4 186 176 177 187
4 187 177 178 188
4 188 178 179 189
4 189 179 180 190
4 190 180 181 191
4 191 181 142 139
4 108 182 183 109
4 109 183 184 192
4 192 184 185 193
4 193 185 186 194
4 194 186 187 195
4 195 187 188 196
4 196 188 189 197
4 197 189 190 198
4 198 190 191 199
4 199 191 139 138
4 200 30 29 201
4 201 29 202 203
4 203 202 204 205
4 205 204 206 207
4 207 206 208 209
4 209 208 210 211
4 211 210 212 213
4 213 212 214 215
4 215 214 216 217
4 217 216 124 122
4 218 200 201 219
4 219 201 203 220
4 220 203 205 221
4 221 205 207 222
4 222 207 209 223
4 223 209 211 224
4 224 211 213 225
4 225 213 215 226
4 226 215 217 227
4 227 217 122 120
4 228 218 219 229
4 229 219 220 230
4 230 220 221 231
4 231 221 222 232
4 232 222 223 233
4 233 223 224 234
4 234 224 225 235
4 235 225 226 236
4 236 226 227 237
4 237 227 120 118
4 238 228 229 239
4 239 229 230 240
4 240 230 231 241
4 241 231 232 242
4 242 232 233 243
4 243 233 234 244
4 244 234 235 245
4 245 235 236 246
4 246 236 237 247
4 247 237 118 84
4 248 249 138 141
4 249 250 199 138
4 250 251 198 199
4 251 252 197 198
4 252 253 196 197
4 253 254 195 196
4 254 255 194 195
4 255 256 193 194
4 256 257 192 193
4 257 106 109 192
4 258 259 260 261
4 259 262 263 260
4 262 264 265 263
4 264 266 267 265
4 266 268 269 267
4 268 270 271 269
4 270 272 273 271
4 272 274 275 273
4 274 276 277 275
4 276 95 101 277
4 278 279 259 258
4 279 280 262 259
4 280 281 264 262
4 281 282 266 264
4 282 283 268 266
4 283 284 270 268
4 284 285 272 270
4 285 286 274 272
4 286 287 276 274
4 287 87 95 276
4 238 239 279 278
4 239 240 280 279
4 240 241 281 280
4 241 242 282 281
4 242 243 283 282
4 243 244 284 283
4 244 245 285 284
4 245 246 286 285
4 246 247 287 286
4 247 84 87 287
4 288 289 154 153
4 289 290 156 154
4 290 291 158 156
4 291 292 160 158
4 292 293 162 160
4 293 294 164 162
4 294 295 166 164
4 295 296 168 166
4 296 297 170 168
4 297 49 56 170
4 298 299 289 288
4 299 300 290 289
4 300 301 291 290
4 301 302 292 291
4 302 303 293 292
4 303 304 294 293
4 304 305 295 294
4 305 306 296 295
4 306 307 297 296
4 307 42 49 297
4 308 309 299 298
4 309 310 300 299
4 310 311 301 300
4 311 312 302 301
4 312 313 303 302
4 313 314 304 303
4 314 315 305 304
4 315 316 306 305
4 316 317 307 306
4 317 32 42 307
4 125 124 309 308
4 124 216 310 309
4 216 214 311 310
4 214 212 312 311
4 212 210 313 312
4 210 208 314 313
4 208 206 315 314
4 206 204 316 315
4 204 202 317 316
4 202 29 32 317
