ply
format ascii 1.0
comment Created by Blender 3.1.2 - www.blender.org
element vertex 6
property float x
property float y
property float z
property float nx
property float ny
property float nz
property float s
property float t
element face 6
property list uchar uint vertex_indices
end_header
-1.000000 0.032813 -0.294984 -0.299518 -0.719762 -0.626284 0.504102 0.661873
-1.000000 -0.094720 0.298975 -0.256531 -0.872077 0.416741 0.488160 0.587628
-1.000000 1.000000 0.613790 -0.424015 0.467342 0.775760 0.625000 0.548276
-1.000000 1.000000 -0.358830 -0.501239 0.545895 -0.671385 0.625000 0.669854
-0.267151 1.000000 0.272744 0.730932 0.435280 0.525614 0.716606 0.590907
-0.145689 1.000000 -0.141557 0.853154 0.369663 -0.368073 0.731789 0.642695
4 0 1 2 3
4 2 4 5 3
3 3 5 0
3 1 0 5
3 5 4 1
3 1 4 2
