ply
format ascii 1.0
comment Created by Blender 3.1.2 - www.blender.org
element vertex 7
property float x
property float y
property float z
property float nx
property float ny
property float nz
property float s
property float t
element face 5
property list uchar uint vertex_indices
end_header
0.151889 -1.000000 -1.000000 0.653793 -0.559379 -0.509558 0.231014 0.750000
-0.092900 -1.000000 0.033485 0.319536 -0.171734 0.931882 0.261613 0.620814
-0.865478 -1.000000 -0.188205 -0.887666 -0.126254 0.442843 0.358185 0.648526
-0.383497 -1.000000 -1.000000 -0.596625 -0.368376 -0.712978 0.297937 0.750000
-0.383497 -1.000000 -1.000000 -0.596625 -0.368376 -0.712978 0.375000 0.827063
0.140977 -0.528155 -1.000000 0.455321 0.775070 -0.438119 0.433981 0.892622
0.151889 -1.000000 -1.000000 0.653793 -0.559379 -0.509558 0.375000 0.893986
4 0 1 2 3
3 4 5 6
3 3 2 5
3 6 5 1
3 2 1 5
