ply
format ascii 1.0
comment Created by Blender 3.1.2 - www.blender.org
element vertex 11
property float x
property float y
property float z
property float nx
property float ny
property float nz
property float s
property float t
element face 7
property list uchar uint vertex_indices
end_header
1.000000 0.093355 0.239247 0.307838 -0.541258 0.782480 0.511669 0.154906
1.000000 -0.325927 -1.000000 0.483617 -0.742701 -0.463152 0.459259 0.000000
1.000000 0.244742 -1.000000 0.510122 0.394323 -0.764386 0.530593 0.000000
1.000000 1.000000 -0.316894 0.515807 0.734866 -0.440358 0.625000 0.085388
1.000000 1.000000 0.149820 0.514335 0.593134 0.619396 0.625000 0.143727
1.000000 -0.325927 -1.000000 0.483617 -0.742701 -0.463152 0.459259 1.000000
0.505851 -0.199877 -1.000000 -0.710324 -0.454724 -0.537277 0.475015 0.938231
1.000000 0.244742 -1.000000 0.510122 0.394323 -0.764386 0.530593 1.000000
1.000000 1.000000 -0.316894 0.515807 0.734866 -0.440358 0.875000 0.664612
0.351391 1.000000 -0.015137 -0.808631 0.535157 0.244384 0.793924 0.626892
1.000000 1.000000 0.149820 0.514335 0.593134 0.619396 0.875000 0.606272
5 0 1 2 3 4
3 5 6 7
3 8 9 10
4 2 6 9 3
3 4 9 0
3 9 6 0
3 0 6 5
