ply
format ascii 1.0
comment Created by Blender 3.1.2 - www.blender.org
element vertex 10
property float x
property float y
property float z
property float nx
property float ny
property float nz
property float s
property float t
element face 7
property list uchar uint vertex_indices
end_header
1.000000 -1.000000 1.000000 0.577350 -0.577350 0.577350 0.375000 0.250000
1.000000 0.350797 1.000000 0.470433 0.752751 0.460498 0.543850 0.250000
-0.408046 -0.068792 1.000000 -0.753349 0.550664 0.359491 0.491401 0.426006
-0.321892 -1.000000 1.000000 -0.616811 -0.592024 0.518702 0.375000 0.415236
1.000000 -1.000000 1.000000 0.577350 -0.577350 0.577350 0.125000 0.500000
-0.321892 -1.000000 1.000000 -0.616811 -0.592024 0.518702 0.290236 0.500000
-0.092900 -1.000000 0.033485 -0.454248 -0.450413 -0.768627 0.261613 0.620814
1.000000 -1.000000 0.347090 0.644485 -0.614599 -0.454871 0.125000 0.581614
1.000000 -1.000000 0.347090 0.644485 -0.614599 -0.454871 0.375000 0.168386
1.000000 0.093355 0.239247 0.497402 0.558242 -0.664046 0.511669 0.154906
4 0 1 2 3
4 4 5 6 7
4 8 9 1 0
3 7 6 9
3 3 2 6
3 6 2 9
3 1 9 2
