ply
format ascii 1.0
comment Created by Blender 3.1.2 - www.blender.org
element vertex 9
property float x
property float y
property float z
property float nx
property float ny
property float nz
property float s
property float t
element face 8
property list uchar uint vertex_indices
end_header
-1.000000 -1.000000 -1.000000 -0.577350 -0.577350 -0.577350 0.375000 0.750000
-1.000000 0.184175 -1.000000 -0.490812 0.713053 -0.500658 0.523022 0.750000
0.131176 -0.104303 -1.000000 0.853731 0.461343 -0.241464 0.486962 0.891397
0.140977 -0.528155 -1.000000 0.895331 -0.395667 -0.204525 0.433981 0.892622
-0.383497 -1.000000 -1.000000 0.593704 -0.707376 -0.383580 0.375000 0.827063
-1.000000 -1.000000 -0.226805 -0.641850 -0.578186 0.503716 0.375000 0.653351
-1.000000 0.032813 -0.294984 -0.370531 0.520407 0.769339 0.504102 0.661873
-0.383497 -1.000000 -1.000000 0.593704 -0.707376 -0.383580 0.297937 0.750000
-0.865478 -1.000000 -0.188205 0.334029 -0.537331 0.774403 0.358185 0.648526
5 0 1 2 3 4
4 5 6 1 0
4 7 8 5 0
3 5 8 6
3 8 7 6
3 7 3 6
3 1 6 2
3 2 6 3
