ply
format ascii 1.0
comment Created by Blender 3.1.2 - www.blender.org
element vertex 9
property float x
property float y
property float z
property float nx
property float ny
property float nz
property float s
property float t
element face 7
property list uchar uint vertex_indices
end_header
1.000000 -1.000000 -1.000000 0.577350 -0.577350 -0.577350 0.375000 0.000000
1.000000 -0.325927 -1.000000 0.644508 0.393843 -0.655360 0.459259 0.000000
1.000000 0.093355 0.239247 0.374313 0.734714 0.565760 0.511669 0.154906
1.000000 -1.000000 0.347090 0.489217 -0.534498 0.689187 0.375000 0.168386
1.000000 -1.000000 0.347090 0.489217 -0.534498 0.689187 0.125000 0.581614
-0.092900 -1.000000 0.033485 -0.774683 -0.420616 0.472174 0.261613 0.620814
0.151889 -1.000000 -1.000000 -0.493578 -0.595879 -0.633490 0.231014 0.750000
1.000000 -1.000000 -1.000000 0.577350 -0.577350 -0.577350 0.125000 0.750000
0.131176 -0.104303 -1.000000 -0.544978 0.636733 -0.545500 0.000000 0.000000
4 0 1 2 3
4 4 5 6 7
4 0 6 8 1
3 1 8 2
3 6 5 8
3 4 2 5
3 8 5 2
