ply
format ascii 1.0
comment Created by Blender 3.1.2 - www.blender.org
element vertex 8
property float x
property float y
property float z
property float nx
property float ny
property float nz
property float s
property float t
element face 7
property list uchar uint vertex_indices
end_header
-1.000000 1.000000 -0.358830 -0.637849 0.606257 0.474976 0.625000 0.669854
-0.145689 1.000000 -0.141557 0.439200 0.483161 0.757403 0.731789 0.642695
0.105640 1.000000 -1.000000 0.653696 0.570590 -0.497100 0.763205 0.750000
-1.000000 1.000000 -1.000000 -0.577350 0.577350 -0.577350 0.625000 0.750000
0.131176 -0.104303 -1.000000 0.638855 -0.694908 -0.330103 0.486962 0.891397
-1.000000 0.184175 -1.000000 -0.641388 -0.429911 -0.635451 0.523022 0.750000
0.105640 1.000000 -1.000000 0.653696 0.570590 -0.497100 0.625000 0.888205
-1.000000 0.032813 -0.294984 -0.522895 -0.629954 0.574228 0.504102 0.661873
4 0 1 2 3
4 4 5 3 6
4 5 7 0 3
3 0 7 1
3 5 4 7
3 7 4 1
3 4 2 1
