ply
format ascii 1.0
comment Created by Blender 3.1.2 - www.blender.org
element vertex 130
property float x
property float y
property float z
property float nx
property float ny
property float nz
property float s
property float t
element face 34
property list uchar uint vertex_indices
end_header
0.000000 -0.031744 26.000000 -0.000000 -0.685696 0.727888 1.000000 0.500000
0.000000 0.368256 26.000000 -0.000000 0.685696 0.727888 1.000000 1.000000
-5.072349 0.368256 25.500416 -0.142004 0.685696 0.713901 0.968750 1.000000
-5.072349 -0.031744 25.500416 -0.142004 -0.685696 0.713901 0.968750 0.500000
-9.949770 0.368256 24.020866 -0.278550 0.685696 0.672481 0.937500 1.000000
-9.949770 -0.031744 24.020866 -0.278550 -0.685696 0.672481 0.937500 0.500000
-14.444826 0.368256 21.618210 -0.404393 0.685696 0.605216 0.906250 1.000000
-14.444826 -0.031744 21.618210 -0.404393 -0.685696 0.605216 0.906250 0.500000
-18.384775 0.368256 18.384775 -0.514694 0.685696 0.514694 0.875000 1.000000
-18.384775 -0.031744 18.384775 -0.514694 -0.685696 0.514694 0.875000 0.500000
-21.618210 0.368256 14.444826 -0.605217 0.685696 0.404393 0.843750 1.000000
-21.618210 -0.031744 14.444826 -0.605217 -0.685696 0.404393 0.843750 0.500000
-24.020866 0.368256 9.949769 -0.672481 0.685696 0.278550 0.812500 1.000000
-24.020866 -0.031744 9.949769 -0.672481 -0.685696 0.278550 0.812500 0.500000
-25.500416 0.368256 5.072349 -0.713901 0.685696 0.142004 0.781250 1.000000
-25.500416 -0.031744 5.072349 -0.713901 -0.685696 0.142004 0.781250 0.500000
-26.000000 0.368256 -0.000001 -0.727888 0.685696 -0.000000 0.750000 1.000000
-26.000000 -0.031744 -0.000001 -0.727888 -0.685696 -0.000000 0.750000 0.500000
-25.500416 0.368256 -5.072349 -0.713901 0.685697 -0.142004 0.718750 1.000000
-25.500416 -0.031744 -5.072349 -0.713901 -0.685697 -0.142004 0.718750 0.500000
-24.020868 0.368256 -9.949768 -0.672481 0.685696 -0.278550 0.687500 1.000000
-24.020868 -0.031744 -9.949768 -0.672481 -0.685696 -0.278550 0.687500 0.500000
-21.618212 0.368256 -14.444825 -0.605217 0.685696 -0.404393 0.656250 1.000000
-21.618212 -0.031744 -14.444825 -0.605217 -0.685696 -0.404393 0.656250 0.500000
-18.384775 0.368256 -18.384775 -0.514694 0.685697 -0.514694 0.625000 1.000000
-18.384775 -0.031744 -18.384775 -0.514694 -0.685697 -0.514694 0.625000 0.500000
-14.444825 0.368256 -21.618212 -0.404393 0.685696 -0.605216 0.593750 1.000000
-14.444825 -0.031744 -21.618212 -0.404393 -0.685696 -0.605216 0.593750 0.500000
-9.949771 0.368256 -24.020866 -0.278550 0.685696 -0.672480 0.562500 1.000000
-9.949771 -0.031744 -24.020866 -0.278550 -0.685696 -0.672480 0.562500 0.500000
-5.072348 0.368256 -25.500418 -0.142004 0.685696 -0.713901 0.531250 1.000000
-5.072348 -0.031744 -25.500418 -0.142004 -0.685696 -0.713901 0.531250 0.500000
0.000002 0.368256 -26.000000 0.000000 0.685696 -0.727888 0.500000 1.000000
0.000002 -0.031744 -26.000000 0.000000 -0.685696 -0.727888 0.500000 0.500000
5.072347 0.368256 -25.500418 0.142004 0.685696 -0.713901 0.468750 1.000000
5.072347 -0.031744 -25.500418 0.142004 -0.685696 -0.713901 0.468750 0.500000
9.949769 0.368256 -24.020866 0.278551 0.685696 -0.672480 0.437500 1.000000
9.949769 -0.031744 -24.020866 0.278551 -0.685696 -0.672480 0.437500 0.500000
14.444828 0.368256 -21.618208 0.404393 0.685696 -0.605217 0.406250 1.000000
14.444828 -0.031744 -21.618208 0.404393 -0.685696 -0.605217 0.406250 0.500000
18.384775 0.368256 -18.384777 0.514694 0.685696 -0.514694 0.375000 1.000000
18.384775 -0.031744 -18.384777 0.514694 -0.685696 -0.514694 0.375000 0.500000
21.618206 0.368256 -14.444831 0.605216 0.685696 -0.404393 0.343750 1.000000
21.618206 -0.031744 -14.444831 0.605216 -0.685696 -0.404393 0.343750 0.500000
24.020866 0.368256 -9.949773 0.672481 0.685696 -0.278551 0.312500 1.000000
24.020866 -0.031744 -9.949773 0.672481 -0.685696 -0.278551 0.312500 0.500000
25.500416 0.368256 -5.072350 0.713902 0.685696 -0.142004 0.281250 1.000000
25.500416 -0.031744 -5.072350 0.713902 -0.685696 -0.142004 0.281250 0.500000
26.000000 0.368256 0.000000 0.727888 0.685696 0.000000 0.250000 1.000000
26.000000 -0.031744 0.000000 0.727888 -0.685696 0.000000 0.250000 0.500000
25.500416 0.368256 5.072351 0.713902 0.685697 0.142004 0.218750 1.000000
25.500416 -0.031744 5.072351 0.713902 -0.685697 0.142004 0.218750 0.500000
24.020866 0.368256 9.949774 0.672480 0.685696 0.278551 0.187500 1.000000
24.020866 -0.031744 9.949774 0.672480 -0.685696 0.278551 0.187500 0.500000
21.618212 0.368256 14.444821 0.605216 0.685697 0.404393 0.156250 1.000000
21.618212 -0.031744 14.444821 0.605216 -0.685697 0.404393 0.156250 0.500000
18.384779 0.368256 18.384773 0.514694 0.685696 0.514694 0.125000 1.000000
18.384779 -0.031744 18.384773 0.514694 -0.685696 0.514694 0.125000 0.500000
14.444828 0.368256 21.618210 0.404393 0.685696 0.605216 0.093750 1.000000
14.444828 -0.031744 21.618210 0.404393 -0.685696 0.605216 0.093750 0.500000
9.949769 0.368256 24.020868 0.278550 0.685696 0.672481 0.062500 1.000000
9.949769 -0.031744 24.020868 0.278550 -0.685696 0.672481 0.062500 0.500000
-5.072349 0.368256 25.500416 -0.142004 0.685696 0.713901 0.296822 0.485388
0.000000 0.368256 26.000000 -0.000000 0.685696 0.727888 0.250000 0.490000
5.072346 0.368256 25.500418 0.142004 0.685696 0.713901 0.203178 0.485388
9.949769 0.368256 24.020868 0.278550 0.685696 0.672481 0.158156 0.471731
14.444828 0.368256 21.618210 0.404393 0.685696 0.605216 0.116663 0.449553
18.384779 0.368256 18.384773 0.514694 0.685696 0.514694 0.080294 0.419706
21.618212 0.368256 14.444821 0.605216 0.685697 0.404393 0.050447 0.383337
24.020866 0.368256 9.949774 0.672480 0.685696 0.278551 0.028269 0.341844
25.500416 0.368256 5.072351 0.713902 0.685697 0.142004 0.014612 0.296822
26.000000 0.368256 0.000000 0.727888 0.685696 0.000000 0.010000 0.250000
25.500416 0.368256 -5.072350 0.713902 0.685696 -0.142004 0.014612 0.203178
24.020866 0.368256 -9.949773 0.672481 0.685696 -0.278551 0.028269 0.158156
21.618206 0.368256 -14.444831 0.605216 0.685696 -0.404393 0.050447 0.116663
18.384775 0.368256 -18.384777 0.514694 0.685696 -0.514694 0.080294 0.080294
14.444828 0.368256 -21.618208 0.404393 0.685696 -0.605217 0.116663 0.050447
9.949769 0.368256 -24.020866 0.278551 0.685696 -0.672480 0.158156 0.028269
5.072347 0.368256 -25.500418 0.142004 0.685696 -0.713901 0.203178 0.014612
0.000002 0.368256 -26.000000 0.000000 0.685696 -0.727888 0.250000 0.010000
-5.072348 0.368256 -25.500418 -0.142004 0.685696 -0.713901 0.296822 0.014612
-9.949771 0.368256 -24.020866 -0.278550 0.685696 -0.672480 0.341844 0.028269
-14.444825 0.368256 -21.618212 -0.404393 0.685696 -0.605216 0.383337 0.050447
-18.384775 0.368256 -18.384775 -0.514694 0.685697 -0.514694 0.419706 0.080294
-21.618212 0.368256 -14.444825 -0.605217 0.685696 -0.404393 0.449553 0.116663
-24.020868 0.368256 -9.949768 -0.672481 0.685696 -0.278550 0.471731 0.158156
-25.500416 0.368256 -5.072349 -0.713901 0.685697 -0.142004 0.485388 0.203178
-26.000000 0.368256 -0.000001 -0.727888 0.685696 -0.000000 0.490000 0.250000
-25.500416 0.368256 5.072349 -0.713901 0.685696 0.142004 0.485388 0.296822
-24.020866 0.368256 9.949769 -0.672481 0.685696 0.278550 0.471731 0.341844
-21.618210 0.368256 14.444826 -0.605217 0.685696 0.404393 0.449553 0.383337
-18.384775 0.368256 18.384775 -0.514694 0.685696 0.514694 0.419706 0.419706
-14.444826 0.368256 21.618210 -0.404393 0.685696 0.605216 0.383337 0.449553
-9.949770 0.368256 24.020866 -0.278550 0.685696 0.672481 0.341844 0.471731
5.072346 0.368256 25.500418 0.142004 0.685696 0.713901 0.031250 1.000000
5.072346 -0.031744 25.500418 0.142004 -0.685696 0.713901 0.031250 0.500000
0.000000 0.368256 26.000000 -0.000000 0.685696 0.727888 0.000000 1.000000
0.000000 -0.031744 26.000000 -0.000000 -0.685696 0.727888 0.000000 0.500000
0.000000 -0.031744 26.000000 -0.000000 -0.685696 0.727888 0.750000 0.490000
-5.072349 -0.031744 25.500416 -0.142004 -0.685696 0.713901 0.796822 0.485388
-9.949770 -0.031744 24.020866 -0.278550 -0.685696 0.672481 0.841844 0.471731
-14.444826 -0.031744 21.618210 -0.404393 -0.685696 0.605216 0.883337 0.449553
-18.384775 -0.031744 18.384775 -0.514694 -0.685696 0.514694 0.919706 0.419706
-21.618210 -0.031744 14.444826 -0.605217 -0.685696 0.404393 0.949553 0.383337
-24.020866 -0.031744 9.949769 -0.672481 -0.685696 0.278550 0.971731 0.341844
-25.500416 -0.031744 5.072349 -0.713901 -0.685696 0.142004 0.985388 0.296822
-26.000000 -0.031744 -0.000001 -0.727888 -0.685696 -0.000000 0.990000 0.250000
-25.500416 -0.031744 -5.072349 -0.713901 -0.685697 -0.142004 0.985388 0.203178
-24.020868 -0.031744 -9.949768 -0.672481 -0.685696 -0.278550 0.971731 0.158156
-21.618212 -0.031744 -14.444825 -0.605217 -0.685696 -0.404393 0.949553 0.116663
-18.384775 -0.031744 -18.384775 -0.514694 -0.685697 -0.514694 0.919706 0.080294
-14.444825 -0.031744 -21.618212 -0.404393 -0.685696 -0.605216 0.883337 0.050447
-9.949771 -0.031744 -24.020866 -0.278550 -0.685696 -0.672480 0.841844 0.028269
-5.072348 -0.031744 -25.500418 -0.142004 -0.685696 -0.713901 0.796822 0.014612
0.000002 -0.031744 -26.000000 0.000000 -0.685696 -0.727888 0.750000 0.010000
5.072347 -0.031744 -25.500418 0.142004 -0.685696 -0.713901 0.703178 0.014612
9.949769 -0.031744 -24.020866 0.278551 -0.685696 -0.672480 0.658156 0.028269
14.444828 -0.031744 -21.618208 0.404393 -0.685696 -0.605217 0.616663 0.050447
18.384775 -0.031744 -18.384777 0.514694 -0.685696 -0.514694 0.580294 0.080294
21.618206 -0.031744 -14.444831 0.605216 -0.685696 -0.404393 0.550447 0.116663
24.020866 -0.031744 -9.949773 0.672481 -0.685696 -0.278551 0.528269 0.158156
25.500416 -0.031744 -5.072350 0.713902 -0.685696 -0.142004 0.514612 0.203178
26.000000 -0.031744 0.000000 0.727888 -0.685696 0.000000 0.510000 0.250000
25.500416 -0.031744 5.072351 0.713902 -0.685697 0.142004 0.514612 0.296822
24.020866 -0.031744 9.949774 0.672480 -0.685696 0.278551 0.528269 0.341844
21.618212 -0.031744 14.444821 0.605216 -0.685697 0.404393 0.550447 0.383337
18.384779 -0.031744 18.384773 0.514694 -0.685696 0.514694 0.580294 0.419706
14.444828 -0.031744 21.618210 0.404393 -0.685696 0.605216 0.616663 0.449553
9.949769 -0.031744 24.020868 0.278550 -0.685696 0.672481 0.658156 0.471731
5.072346 -0.031744 25.500418 0.142004 -0.685696 0.713901 0.703178 0.485388
4 0 1 2 3
4 3 2 4 5
4 5 4 6 7
4 7 6 8 9
4 9 8 10 11
4 11 10 12 13
4 13 12 14 15
4 15 14 16 17
4 17 16 18 19
4 19 18 20 21
4 21 20 22 23
4 23 22 24 25
4 25 24 26 27
4 27 26 28 29
4 29 28 30 31
4 31 30 32 33
4 33 32 34 35
4 35 34 36 37
4 37 36 38 39
4 39 38 40 41
4 41 40 42 43
4 43 42 44 45
4 45 44 46 47
4 47 46 48 49
4 49 48 50 51
4 51 50 52 53
4 53 52 54 55
4 55 54 56 57
4 57 56 58 59
4 59 58 60 61
32 62 63 64 65 66 67 68 69 70 71 72 73 74 75 76 77 78 79 80 81 82 83 84 85 86 87 88 89 90 91 92 93
4 61 60 94 95
4 95 94 96 97
32 98 99 100 101 102 103 104 105 106 107 108 109 110 111 112 113 114 115 116 117 118 119 120 121 122 123 124 125 126 127 128 129
