ply
format ascii 1.0
comment Created by Blender 3.1.2 - www.blender.org
element vertex 71
property float x
property float y
property float z
property float nx
property float ny
property float nz
property float s
property float t
element face 115
property list uchar uint vertex_indices
end_header
-5.962250 6.643242 0.000000 -0.122027 0.992527 -0.000000 0.394916 0.552845
-1.842387 6.643253 5.670380 -0.037708 0.992527 0.116054 0.394917 0.447155
0.000000 7.000000 0.000000 -0.000000 1.000000 0.000000 0.467650 0.500000
-12.557352 5.397453 0.000000 -0.253210 0.967411 -0.000000 0.312480 0.612738
-8.309884 5.933578 6.037464 -0.169759 0.977737 0.123337 0.311607 0.500000
-19.483671 3.047653 0.000000 -0.390740 0.920501 0.000000 0.220889 0.679282
-15.358363 4.160400 6.325894 -0.309504 0.942069 0.129277 0.217912 0.560460
-26.286491 -0.467419 0.000000 -0.494109 0.869400 -0.000000 0.121353 0.751599
-22.568739 1.142685 6.486531 -0.452033 0.882093 0.132584 0.115231 0.627828
-3.880332 5.397484 11.942636 -0.078244 0.967412 0.240815 0.312482 0.387262
-10.762240 4.160435 12.651789 -0.218591 0.942070 0.254405 0.217913 0.439540
-6.020632 3.047737 18.529915 -0.120743 0.920503 0.371612 0.220892 0.320718
-18.090015 1.721458 13.143147 -0.363529 0.893358 0.264119 0.112936 0.500000
-13.143091 1.142757 19.459597 -0.265779 0.882094 0.388936 0.115234 0.372171
-8.122777 -0.467281 24.999762 -0.152685 0.869402 0.469923 0.121358 0.248401
-29.389143 -3.072533 6.486545 -0.521014 0.843023 0.133631 0.006819 0.699436
-25.336433 -2.004395 13.320131 -0.463788 0.853724 0.236761 0.000098 0.567706
-20.497536 -2.004356 19.980196 -0.368492 0.853725 0.367924 0.000099 0.432294
-15.250675 -3.072411 25.946182 -0.288090 0.843025 0.454217 0.006823 0.300563
4.823528 6.643250 3.504457 0.098722 0.992527 0.071725 0.495433 0.414497
3.174132 5.933582 9.768788 0.064843 0.977737 0.199562 0.419431 0.351594
1.270398 4.160442 16.561365 0.027310 0.942070 0.334302 0.332978 0.281168
-0.804908 1.142769 23.468449 -0.013588 0.882094 0.470877 0.237178 0.204331
10.159046 5.397480 7.380892 0.204849 0.967412 0.148830 0.526921 0.317588
8.706912 4.160442 14.145057 0.174406 0.942070 0.286506 0.447980 0.243803
15.762538 3.047737 11.452019 0.316114 0.920503 0.229667 0.561906 0.209918
6.909863 1.721493 21.265974 0.138858 0.893358 0.427352 0.358040 0.162647
14.445795 1.142765 18.513109 0.287771 0.882094 0.372958 0.480321 0.125331
21.266130 -0.467289 15.450568 0.399742 0.869402 0.290426 0.599926 0.092908
-2.912479 -3.072399 29.955032 -0.033908 0.843025 0.536805 0.135575 0.123354
4.838960 -2.004322 28.212393 0.081859 0.853725 0.514249 0.258780 0.076254
12.668307 -2.004326 25.668440 0.236048 0.853725 0.464149 0.387564 0.034410
19.963621 -3.072403 22.522015 0.342962 0.843025 0.414350 0.514924 0.000098
4.823528 6.643250 -3.504457 0.098722 0.992527 -0.071725 0.557554 0.499999
10.271578 5.933575 0.000000 0.209833 0.977737 0.000000 0.593893 0.408280
16.143419 4.160419 3.909580 0.326380 0.942070 0.077333 0.634156 0.304295
22.071135 1.142735 8.017715 0.443633 0.882093 0.158433 0.677628 0.189440
10.159046 5.397480 -7.380892 0.204849 0.967412 -0.148830 0.659450 0.499999
16.143419 4.160419 -3.909581 0.326380 0.942070 -0.077333 0.705230 0.402121
15.762538 3.047737 -11.452019 0.316114 0.920503 -0.229667 0.772661 0.499998
22.360493 1.721455 -0.000001 0.449347 0.893357 -0.000000 0.754621 0.291504
22.071135 1.142735 -8.017715 0.443633 0.882093 -0.158433 0.827897 0.396268
21.266130 -0.467289 -15.450568 0.399742 0.869402 -0.290426 0.895693 0.499998
27.588966 -3.072441 12.026594 0.500054 0.843024 0.198131 0.723246 0.067786
28.326967 -2.004383 4.116101 0.514377 0.853724 0.081062 0.806112 0.170405
28.326967 -2.004383 -4.116102 0.514377 0.853724 -0.081062 0.885704 0.279954
27.588966 -3.072441 -12.026594 0.500054 0.843024 -0.198131 0.957694 0.390477
-1.842387 6.643253 -5.670380 -0.037708 0.992527 -0.116054 0.495432 0.585503
3.174132 5.933582 -9.768788 0.064843 0.977737 -0.199562 0.593892 0.591719
8.706912 4.160442 -14.145059 0.174406 0.942070 -0.286506 0.705230 0.597877
14.445795 1.142765 -18.513109 0.287771 0.882094 -0.372958 0.827897 0.603729
-3.880332 5.397484 -11.942636 -0.078244 0.967412 -0.240815 0.526920 0.682412
1.270398 4.160442 -16.561369 0.027310 0.942070 -0.334302 0.634155 0.695704
-6.020632 3.047737 -18.529915 -0.120743 0.920503 -0.371613 0.561905 0.790082
6.909862 1.721497 -21.265974 0.138858 0.893358 -0.427352 0.754620 0.708494
-0.804908 1.142769 -23.468447 -0.013588 0.882094 -0.470877 0.677628 0.810559
-8.122777 -0.467281 -24.999762 -0.152685 0.869402 -0.469923 0.599924 0.907092
19.963619 -3.072403 -22.522015 0.342962 0.843025 -0.414350 0.957694 0.609519
12.668304 -2.004326 -25.668436 0.236048 0.853725 -0.464150 0.885704 0.720043
4.838957 -2.004322 -28.212387 0.081859 0.853725 -0.514250 0.806112 0.829593
-2.912481 -3.072399 -29.955029 -0.033908 0.843025 -0.536805 0.723245 0.932213
-8.309883 5.933578 -6.037464 -0.169759 0.977737 -0.123337 0.419430 0.648406
-10.762240 4.160435 -12.651789 -0.218591 0.942070 -0.254405 0.447978 0.756197
-13.143091 1.142757 -19.459597 -0.265779 0.882094 -0.388936 0.480319 0.874669
-15.358363 4.160400 -6.325894 -0.309504 0.942069 -0.129277 0.332975 0.718832
-18.090017 1.721458 -13.143147 -0.363529 0.893358 -0.264119 0.358037 0.837353
-22.568739 1.142685 -6.486531 -0.452033 0.882093 -0.132585 0.237174 0.795669
-15.250675 -3.072411 -25.946182 -0.288090 0.843025 -0.454217 0.514922 0.999902
-20.497538 -2.004356 -19.980196 -0.368492 0.853725 -0.367924 0.387561 0.965590
-25.336433 -2.004398 -13.320130 -0.463788 0.853724 -0.236762 0.258776 0.923746
-29.389143 -3.072533 -6.486544 -0.521014 0.843023 -0.133631 0.135570 0.876646
3 0 1 2
3 3 4 0
3 5 6 3
3 7 8 5
3 0 4 1
3 4 9 1
3 3 6 4
3 6 10 4
3 4 10 9
3 10 11 9
3 5 8 6
3 8 12 6
3 6 12 10
3 12 13 10
3 10 13 11
3 13 14 11
3 7 15 8
3 15 16 8
3 8 16 12
3 16 17 12
3 12 17 13
3 17 18 13
3 13 18 14
3 1 19 2
3 9 20 1
3 11 21 9
3 14 22 11
3 1 20 19
3 20 23 19
3 9 21 20
3 21 24 20
3 20 24 23
3 24 25 23
3 11 22 21
3 22 26 21
3 21 26 24
3 26 27 24
3 24 27 25
3 27 28 25
3 14 29 22
3 29 30 22
3 22 30 26
3 30 31 26
3 26 31 27
3 31 32 27
3 27 32 28
3 19 33 2
3 23 34 19
3 25 35 23
3 28 36 25
3 19 34 33
3 34 37 33
3 23 35 34
3 35 38 34
3 34 38 37
3 38 39 37
3 25 36 35
3 36 40 35
3 35 40 38
3 40 41 38
3 38 41 39
3 41 42 39
3 28 43 36
3 43 44 36
3 36 44 40
3 44 45 40
3 40 45 41
3 45 46 41
3 41 46 42
3 33 47 2
3 37 48 33
3 39 49 37
3 42 50 39
3 33 48 47
3 48 51 47
3 37 49 48
3 49 52 48
3 48 52 51
3 52 53 51
3 39 50 49
3 50 54 49
3 49 54 52
3 54 55 52
3 52 55 53
3 55 56 53
3 42 57 50
3 57 58 50
3 50 58 54
3 58 59 54
3 54 59 55
3 59 60 55
3 55 60 56
3 47 0 2
3 51 61 47
3 53 62 51
3 56 63 53
3 47 61 0
3 61 3 0
3 51 62 61
3 62 64 61
3 61 64 3
3 64 5 3
3 53 63 62
3 63 65 62
3 62 65 64
3 65 66 64
3 64 66 5
3 66 7 5
3 56 67 63
3 67 68 63
3 63 68 65
3 68 69 65
3 65 69 66
3 69 70 66
3 66 70 7
