ply
format ascii 1.0
comment Created by Blender 3.1.2 - www.blender.org
element vertex 130
property float x
property float y
property float z
property float nx
property float ny
property float nz
property float s
property float t
element face 124
property list uchar uint vertex_indices
end_header
222.632828 9.200000 -26.793800 -0.000000 0.685697 0.727888 1.000000 1.000000
219.397797 3.200000 -27.112423 -0.142004 -0.685696 0.713902 0.968750 0.500000
222.632828 3.200000 -26.793800 0.000000 -0.685696 0.727888 1.000000 0.500000
219.397797 9.200000 -27.112423 -0.142004 0.685696 0.713901 0.968750 1.000000
216.287094 3.200000 -28.056046 -0.278550 -0.685697 0.672480 0.937500 0.500000
216.287094 9.200000 -28.056046 -0.278550 0.685697 0.672480 0.937500 1.000000
213.420242 3.200000 -29.588406 -0.404393 -0.685696 0.605217 0.906250 0.500000
213.420242 9.200000 -29.588406 -0.404393 0.685696 0.605217 0.906250 1.000000
210.907440 3.200000 -31.650616 -0.514695 -0.685697 0.514694 0.875000 0.500000
210.907440 9.200000 -31.650616 -0.514694 0.685697 0.514694 0.875000 1.000000
208.845230 3.200000 -34.163425 -0.605217 -0.685696 0.404393 0.843750 0.500000
208.845230 9.200000 -34.163425 -0.605216 0.685697 0.404393 0.843750 1.000000
207.312866 3.200000 -37.030273 -0.672481 -0.685696 0.278550 0.812500 0.500000
207.312866 9.200000 -37.030273 -0.672481 0.685696 0.278550 0.812500 1.000000
206.369247 3.200000 -40.140980 -0.713902 -0.685696 0.142003 0.781250 0.500000
206.369247 9.200000 -40.140980 -0.713902 0.685697 0.142003 0.781250 1.000000
206.050629 3.200000 -43.376007 -0.727887 -0.685697 -0.000000 0.750000 0.500000
206.050629 9.200000 -43.376007 -0.727887 0.685697 0.000000 0.750000 1.000000
206.369247 3.200000 -46.611034 -0.713902 -0.685696 -0.142003 0.718750 0.500000
206.369247 9.200000 -46.611034 -0.713902 0.685697 -0.142003 0.718750 1.000000
207.312866 3.200000 -49.721741 -0.672481 -0.685696 -0.278551 0.687500 0.500000
207.312866 9.200000 -49.721741 -0.672481 0.685696 -0.278551 0.687500 1.000000
208.845230 3.200000 -52.588585 -0.605216 -0.685697 -0.404393 0.656250 0.500000
208.845230 9.200000 -52.588585 -0.605216 0.685697 -0.404393 0.656250 1.000000
210.907440 3.200000 -55.101398 -0.514695 -0.685697 -0.514694 0.625000 0.500000
210.907440 9.200000 -55.101398 -0.514695 0.685697 -0.514694 0.625000 1.000000
213.420242 3.200000 -57.163609 -0.404393 -0.685696 -0.605217 0.593750 0.500000
213.420242 9.200000 -57.163609 -0.404393 0.685696 -0.605217 0.593750 1.000000
216.287094 3.200000 -58.695969 -0.278550 -0.685697 -0.672480 0.562500 0.500000
216.287094 9.200000 -58.695969 -0.278550 0.685697 -0.672480 0.562500 1.000000
219.397797 3.200000 -59.639591 -0.142004 -0.685696 -0.713902 0.531250 0.500000
219.397797 9.200000 -59.639591 -0.142004 0.685696 -0.713901 0.531250 1.000000
222.632828 3.200000 -59.958214 -0.000000 -0.685696 -0.727888 0.500000 0.500000
222.632828 9.200000 -59.958214 0.000000 0.685697 -0.727888 0.500000 1.000000
225.867859 3.200000 -59.639591 0.142004 -0.685696 -0.713901 0.468750 0.500000
225.867859 9.200000 -59.639591 0.142004 0.685696 -0.713901 0.468750 1.000000
228.978561 3.200000 -58.695969 0.278551 -0.685696 -0.672480 0.437500 0.500000
228.978561 9.200000 -58.695969 0.278550 0.685697 -0.672480 0.437500 1.000000
231.845413 3.200000 -57.163605 0.404393 -0.685697 -0.605216 0.406250 0.500000
231.845413 9.200000 -57.163605 0.404393 0.685696 -0.605216 0.406250 1.000000
234.358215 3.200000 -55.101398 0.514694 -0.685697 -0.514694 0.375000 0.500000
234.358215 9.200000 -55.101398 0.514694 0.685697 -0.514694 0.375000 1.000000
236.420425 3.200000 -52.588593 0.605216 -0.685696 -0.404393 0.343750 0.500000
236.420425 9.200000 -52.588593 0.605216 0.685696 -0.404393 0.343750 1.000000
237.952789 3.200000 -49.721745 0.672481 -0.685696 -0.278550 0.312500 0.500000
237.952789 9.200000 -49.721745 0.672481 0.685696 -0.278550 0.312500 1.000000
238.896408 3.200000 -46.611034 0.713902 -0.685696 -0.142003 0.281250 0.500000
238.896408 9.200000 -46.611034 0.713902 0.685696 -0.142003 0.281250 1.000000
239.215027 3.200000 -43.376007 0.727887 -0.685697 -0.000000 0.250000 0.500000
239.215027 9.200000 -43.376007 0.727888 0.685696 -0.000000 0.250000 1.000000
238.896408 3.200000 -40.140976 0.713902 -0.685696 0.142003 0.218750 0.500000
238.896408 9.200000 -40.140976 0.713902 0.685696 0.142003 0.218750 1.000000
237.952789 3.200000 -37.030270 0.672481 -0.685696 0.278551 0.187500 0.500000
237.952789 9.200000 -37.030270 0.672481 0.685696 0.278551 0.187500 1.000000
236.420425 3.200000 -34.163429 0.605216 -0.685697 0.404393 0.156250 0.500000
236.420425 9.200000 -34.163429 0.605216 0.685697 0.404393 0.156250 1.000000
234.358215 3.200000 -31.650620 0.514695 -0.685697 0.514693 0.125000 0.500000
234.358215 9.200000 -31.650620 0.514695 0.685697 0.514693 0.125000 1.000000
231.845413 3.200000 -29.588406 0.404393 -0.685696 0.605217 0.093750 0.500000
231.845413 9.200000 -29.588406 0.404393 0.685696 0.605217 0.093750 1.000000
228.978561 3.200000 -28.056046 0.278550 -0.685697 0.672480 0.062500 0.500000
237.952789 9.200000 -37.030270 0.672481 0.685696 0.278551 0.028269 0.341844
228.978561 9.200000 -58.695969 0.278550 0.685697 -0.672480 0.158156 0.028269
207.312866 9.200000 -49.721741 -0.672481 0.685696 -0.278551 0.471731 0.158156
228.978561 9.200000 -28.056046 0.278550 0.685697 0.672480 0.062500 1.000000
225.867859 3.200000 -27.112423 0.142004 -0.685696 0.713902 0.031250 0.500000
225.867859 9.200000 -27.112423 0.142004 0.685696 0.713901 0.031250 1.000000
222.632828 3.200000 -26.793800 0.000000 -0.685696 0.727888 0.000000 0.500000
206.369247 3.200000 -40.140980 -0.713902 -0.685696 0.142003 0.985388 0.296822
219.397797 3.200000 -59.639591 -0.142004 -0.685696 -0.713902 0.796822 0.014612
238.896408 3.200000 -46.611034 0.713902 -0.685696 -0.142003 0.514612 0.203178
216.287094 9.200000 -28.056046 -0.278550 0.685697 0.672480 0.341844 0.471731
219.397797 9.200000 -27.112423 -0.142004 0.685696 0.713901 0.296822 0.485388
228.978561 9.200000 -28.056046 0.278550 0.685697 0.672480 0.158156 0.471731
222.632828 9.200000 -26.793800 -0.000000 0.685697 0.727888 0.250000 0.490000
225.867859 9.200000 -27.112423 0.142004 0.685696 0.713901 0.203178 0.485388
231.845413 9.200000 -29.588406 0.404393 0.685696 0.605217 0.116663 0.449553
234.358215 9.200000 -31.650620 0.514695 0.685697 0.514693 0.080294 0.419706
236.420425 9.200000 -34.163429 0.605216 0.685697 0.404393 0.050447 0.383337
238.896408 9.200000 -40.140976 0.713902 0.685696 0.142003 0.014612 0.296822
239.215027 9.200000 -43.376007 0.727888 0.685696 -0.000000 0.010000 0.250000
238.896408 9.200000 -46.611034 0.713902 0.685696 -0.142003 0.014612 0.203178
237.952789 9.200000 -49.721745 0.672481 0.685696 -0.278550 0.028269 0.158156
236.420425 9.200000 -52.588593 0.605216 0.685696 -0.404393 0.050447 0.116663
234.358215 9.200000 -55.101398 0.514694 0.685697 -0.514694 0.080294 0.080294
231.845413 9.200000 -57.163605 0.404393 0.685696 -0.605216 0.116663 0.050447
225.867859 9.200000 -59.639591 0.142004 0.685696 -0.713901 0.203178 0.014612
222.632828 9.200000 -59.958214 0.000000 0.685697 -0.727888 0.250000 0.010000
219.397797 9.200000 -59.639591 -0.142004 0.685696 -0.713901 0.296822 0.014612
216.287094 9.200000 -58.695969 -0.278550 0.685697 -0.672480 0.341844 0.028269
213.420242 9.200000 -57.163609 -0.404393 0.685696 -0.605217 0.383337 0.050447
210.907440 9.200000 -55.101398 -0.514695 0.685697 -0.514694 0.419706 0.080294
208.845230 9.200000 -52.588585 -0.605216 0.685697 -0.404393 0.449553 0.116663
206.369247 9.200000 -46.611034 -0.713902 0.685697 -0.142003 0.485388 0.203178
206.050629 9.200000 -43.376007 -0.727887 0.685697 0.000000 0.490000 0.250000
206.369247 9.200000 -40.140980 -0.713902 0.685697 0.142003 0.485388 0.296822
207.312866 9.200000 -37.030273 -0.672481 0.685696 0.278550 0.471731 0.341844
208.845230 9.200000 -34.163425 -0.605216 0.685697 0.404393 0.449553 0.383337
210.907440 9.200000 -31.650616 -0.514694 0.685697 0.514694 0.419706 0.419706
213.420242 9.200000 -29.588406 -0.404393 0.685696 0.605217 0.383337 0.449553
222.632828 9.200000 -26.793800 -0.000000 0.685697 0.727888 0.000000 1.000000
225.867859 3.200000 -27.112423 0.142004 -0.685696 0.713902 0.703178 0.485388
222.632828 3.200000 -26.793800 0.000000 -0.685696 0.727888 0.750000 0.490000
219.397797 3.200000 -27.112423 -0.142004 -0.685696 0.713902 0.796822 0.485388
216.287094 3.200000 -28.056046 -0.278550 -0.685697 0.672480 0.841844 0.471731
213.420242 3.200000 -29.588406 -0.404393 -0.685696 0.605217 0.883337 0.449553
210.907440 3.200000 -31.650616 -0.514695 -0.685697 0.514694 0.919706 0.419706
208.845230 3.200000 -34.163425 -0.605217 -0.685696 0.404393 0.949553 0.383337
207.312866 3.200000 -37.030273 -0.672481 -0.685696 0.278550 0.971731 0.341844
206.050629 3.200000 -43.376007 -0.727887 -0.685697 -0.000000 0.990000 0.250000
206.369247 3.200000 -46.611034 -0.713902 -0.685696 -0.142003 0.985388 0.203178
207.312866 3.200000 -49.721741 -0.672481 -0.685696 -0.278551 0.971731 0.158156
208.845230 3.200000 -52.588585 -0.605216 -0.685697 -0.404393 0.949553 0.116663
210.907440 3.200000 -55.101398 -0.514695 -0.685697 -0.514694 0.919706 0.080294
213.420242 3.200000 -57.163609 -0.404393 -0.685696 -0.605217 0.883337 0.050447
216.287094 3.200000 -58.695969 -0.278550 -0.685697 -0.672480 0.841844 0.028269
222.632828 3.200000 -59.958214 -0.000000 -0.685696 -0.727888 0.750000 0.010000
225.867859 3.200000 -59.639591 0.142004 -0.685696 -0.713901 0.703178 0.014612
228.978561 3.200000 -58.695969 0.278551 -0.685696 -0.672480 0.658156 0.028269
231.845413 3.200000 -57.163605 0.404393 -0.685697 -0.605216 0.616663 0.050447
234.358215 3.200000 -55.101398 0.514694 -0.685697 -0.514694 0.580294 0.080294
236.420425 3.200000 -52.588593 0.605216 -0.685696 -0.404393 0.550447 0.116663
237.952789 3.200000 -49.721745 0.672481 -0.685696 -0.278550 0.528269 0.158156
239.215027 3.200000 -43.376007 0.727887 -0.685697 -0.000000 0.510000 0.250000
238.896408 3.200000 -40.140976 0.713902 -0.685696 0.142003 0.514612 0.296822
237.952789 3.200000 -37.030270 0.672481 -0.685696 0.278551 0.528269 0.341844
236.420425 3.200000 -34.163429 0.605216 -0.685697 0.404393 0.550447 0.383337
234.358215 3.200000 -31.650620 0.514695 -0.685697 0.514693 0.580294 0.419706
231.845413 3.200000 -29.588406 0.404393 -0.685696 0.605217 0.616663 0.449553
228.978561 3.200000 -28.056046 0.278550 -0.685697 0.672480 0.658156 0.471731
3 0 1 2
3 3 4 1
3 5 6 4
3 7 8 6
3 9 10 8
3 11 12 10
3 13 14 12
3 15 16 14
3 17 18 16
3 19 20 18
3 21 22 20
3 23 24 22
3 25 26 24
3 27 28 26
3 29 30 28
3 31 32 30
3 33 34 32
3 35 36 34
3 37 38 36
3 39 40 38
3 41 42 40
3 43 44 42
3 45 46 44
3 47 48 46
3 49 50 48
3 51 52 50
3 53 54 52
3 55 56 54
3 57 58 56
3 59 60 58
3 61 62 63
3 64 65 60
3 66 67 65
3 68 69 70
3 0 3 1
3 3 5 4
3 5 7 6
3 7 9 8
3 9 11 10
3 11 13 12
3 13 15 14
3 15 17 16
3 17 19 18
3 19 21 20
3 21 23 22
3 23 25 24
3 25 27 26
3 27 29 28
3 29 31 30
3 31 33 32
3 33 35 34
3 35 37 36
3 37 39 38
3 39 41 40
3 41 43 42
3 43 45 44
3 45 47 46
3 47 49 48
3 49 51 50
3 51 53 52
3 53 55 54
3 55 57 56
3 57 59 58
3 59 64 60
3 71 72 73
3 72 74 73
3 74 75 73
3 73 76 77
3 77 78 73
3 78 61 73
3 61 79 80
3 80 81 82
3 82 83 84
3 84 85 62
3 62 86 87
3 87 88 89
3 89 90 91
3 91 92 63
3 63 93 94
3 94 95 96
3 96 97 98
3 98 99 71
3 61 80 62
3 80 82 62
3 82 84 62
3 62 87 89
3 89 91 62
3 91 63 62
3 63 94 71
3 94 96 71
3 96 98 71
3 71 73 61
3 71 61 63
3 64 66 65
3 66 100 67
3 101 102 103
3 103 104 105
3 105 106 107
3 107 108 68
3 68 109 110
3 110 111 112
3 112 113 114
3 114 115 69
3 69 116 117
3 117 118 119
3 119 120 121
3 121 122 70
3 70 123 124
3 124 125 70
3 125 126 70
3 126 127 101
3 127 128 101
3 128 129 101
3 101 103 68
3 103 105 68
3 105 107 68
3 68 110 112
3 112 114 68
3 114 69 68
3 69 117 70
3 117 119 70
3 119 121 70
3 70 126 101
3 101 68 70
