ply
format ascii 1.0
comment Created by Blender 3.1.2 - www.blender.org
element vertex 49
property float x
property float y
property float z
property float nx
property float ny
property float nz
property float s
property float t
element face 60
property list uchar uint vertex_indices
end_header
40.910919 0.400000 16.663864 -0.743142 0.666233 -0.062246 0.498282 0.554806
42.174843 -0.000000 12.223232 -0.657975 -0.659843 -0.362872 0.485563 0.561203
40.910919 -0.000000 16.663864 -0.743141 -0.666233 -0.062246 0.492747 0.551939
42.174843 0.400000 12.223232 -0.657975 0.659843 -0.362872 0.488921 0.565834
44.696892 0.000000 9.408958 -0.476488 -0.678079 -0.559614 0.476915 0.565289
101.663895 0.000002 134.503967 -0.608179 -0.688034 0.395889 0.496634 0.221228
41.456985 0.400000 21.600639 -0.711780 0.666992 0.220205 0.502015 0.540071
41.456985 -0.000000 21.600639 -0.711780 -0.666992 0.220205 0.496288 0.539272
48.657906 0.000000 6.866867 -0.243588 -0.657021 -0.713434 0.465197 0.566928
44.696892 0.400000 9.408958 -0.476488 0.678079 -0.559614 0.478528 0.570503
48.657906 0.400000 6.866867 -0.243587 0.657019 -0.713436 0.465048 0.572570
106.677185 0.400000 1.779343 -0.331125 0.888346 -0.318114 0.313385 0.529153
106.677185 0.000000 1.779343 -0.331125 -0.888346 -0.318117 0.315004 0.523538
106.677185 0.400000 1.779343 -0.331125 0.888346 -0.318114 0.316924 0.530859
107.778297 0.000001 -21.435173 -0.709661 -0.702991 -0.046756 0.230699 0.545297
107.778297 0.400001 -21.435173 -0.709661 0.702990 -0.046756 0.232218 0.552955
111.232986 0.000001 -62.375938 -0.544841 -0.580795 -0.604835 0.108756 0.563872
111.232986 0.400001 -62.375938 -0.544839 0.580795 -0.604837 0.105291 0.570526
134.364120 0.000001 -61.911087 0.005219 -0.709972 -0.704211 0.071431 0.501076
134.364120 0.400001 -61.911087 0.005220 0.709975 -0.704208 0.065047 0.503628
249.490204 0.000001 -62.517845 0.572754 -0.577610 -0.581652 0.006575 0.213642
249.490204 0.400001 -62.517845 0.572744 0.577611 -0.581661 0.000107 0.211044
251.902649 0.000001 174.953613 0.580611 -0.576837 0.574587 0.217010 0.005575
251.902649 0.400001 174.953613 0.580620 0.576835 0.574580 0.215466 0.000107
173.675293 0.000001 174.976227 -0.104461 -0.676474 0.729020 0.383423 0.051586
173.675293 0.400001 174.976227 -0.104461 0.676472 0.729022 0.385816 0.047357
140.626633 0.000001 165.296265 -0.275021 -0.684871 0.674770 0.445587 0.106348
140.626633 0.400001 165.296265 -0.275021 0.684871 0.674770 0.449415 0.102996
122.263367 0.000001 155.522430 -0.416441 -0.681847 0.601383 0.475134 0.149074
122.263367 0.400001 155.522430 -0.416441 0.681847 0.601383 0.479749 0.146669
108.905312 0.000001 143.754440 -0.528543 -0.686957 0.498731 0.491321 0.191322
108.905312 0.400001 143.754440 -0.528543 0.686957 0.498731 0.496427 0.189933
101.663895 0.400002 134.503967 -0.608179 0.688034 0.395890 0.502015 0.220746
134.364120 0.400001 -61.911087 0.005220 0.709975 -0.704208 0.726246 0.565926
107.778297 0.400001 -21.435173 -0.709661 0.702990 -0.046756 0.662080 0.470365
106.677185 0.400000 1.779343 -0.331125 0.888346 -0.318114 0.658902 0.415215
48.657906 0.400000 6.866867 -0.243587 0.657019 -0.713436 0.520878 0.404524
41.456985 0.400000 21.600639 -0.711780 0.666992 0.220205 0.503408 0.369678
44.696892 0.400000 9.408958 -0.476488 0.678079 -0.559614 0.511403 0.398577
42.174843 0.400000 12.223232 -0.657975 0.659843 -0.362872 0.505340 0.391949
40.910919 0.400000 16.663864 -0.743142 0.666233 -0.062246 0.502229 0.381425
101.663895 0.400002 134.503967 -0.608179 0.688034 0.395890 0.643782 0.099875
108.905312 0.400001 143.754440 -0.528543 0.686957 0.498731 0.660770 0.077714
122.263367 0.400001 155.522430 -0.416441 0.681847 0.601383 0.692235 0.049421
140.626633 0.400001 165.296265 -0.275021 0.684871 0.674770 0.735645 0.025747
173.675293 0.400001 174.976227 -0.104461 0.676472 0.729022 0.813961 0.001942
251.902649 0.400001 174.953613 0.580620 0.576835 0.574580 0.999893 0.000107
249.490204 0.400001 -62.517845 0.572744 0.577611 -0.581661 0.999893 0.564588
111.232986 0.400001 -62.375938 -0.544839 0.580795 -0.604837 0.671279 0.567589
3 0 1 2
3 3 4 1
3 5 6 7
3 8 9 10
3 8 11 12
3 7 0 2
3 13 14 12
3 15 16 14
3 17 18 16
3 19 20 18
3 21 22 20
3 23 24 22
3 25 26 24
3 27 28 26
3 29 30 28
3 5 31 32
3 5 12 26
3 33 34 35
3 0 3 1
3 3 9 4
3 5 32 6
3 8 4 9
3 8 10 11
3 7 6 0
3 13 15 14
3 15 17 16
3 17 19 18
3 19 21 20
3 21 23 22
3 23 25 24
3 25 27 26
3 27 29 28
3 29 31 30
3 5 30 31
3 4 8 7
3 8 12 7
3 12 14 18
3 14 16 18
3 18 20 12
3 20 22 12
3 1 4 2
3 7 2 4
3 30 5 28
3 5 7 12
3 26 28 5
3 22 24 12
3 24 26 12
3 35 36 37
3 36 38 37
3 38 39 40
3 40 37 38
3 37 41 35
3 41 42 43
3 43 44 41
3 44 45 35
3 41 44 35
3 45 46 35
3 46 47 35
3 33 48 34
3 47 33 35
