ply
format ascii 1.0
comment Created by Blender 3.1.2 - www.blender.org
element vertex 56
property float x
property float y
property float z
property float nx
property float ny
property float nz
property float s
property float t
element face 48
property list uchar uint vertex_indices
end_header
123.316559 3.199999 -56.285980 -0.587568 0.576252 -0.568065 0.131638 0.000173
246.663284 0.200000 -57.070320 0.567885 -0.578312 -0.585714 0.407436 0.241624
123.316559 0.199999 -56.285980 -0.587568 -0.576252 -0.568064 0.131638 0.241624
124.926941 3.199996 2.489208 -0.318697 0.901283 -0.293464 0.000173 0.000173
248.806442 3.200000 30.211773 0.708866 0.705249 -0.011538 0.602649 0.000173
248.806442 0.200000 30.211773 0.708866 -0.705249 -0.011538 0.602650 0.241624
124.926941 0.199996 2.489208 -0.318696 -0.901283 -0.293464 0.750100 0.241969
114.130035 3.199996 3.083607 -0.442893 0.608092 -0.658840 0.508649 0.266147
124.926941 3.199996 2.489208 -0.318697 0.901283 -0.293464 0.508649 0.241969
93.637383 0.199997 46.376232 -0.687061 -0.684816 -0.242845 0.750100 0.373242
93.637383 3.199997 46.376232 -0.687061 0.684816 -0.242845 0.508649 0.373242
85.744225 3.199997 78.998398 -0.755779 0.654709 0.012437 0.508649 0.448287
85.744225 0.199997 78.998398 -0.755779 -0.654708 0.012437 0.750100 0.448287
95.885513 3.199996 115.598282 -0.671747 0.672223 0.311242 0.508649 0.533204
95.885513 0.199996 115.598282 -0.671747 -0.672223 0.311243 0.750100 0.533204
115.531319 3.199996 144.471069 -0.518614 0.663568 0.539181 0.508649 0.611288
115.531319 0.199996 144.471069 -0.518614 -0.663568 0.539181 0.750100 0.611288
142.510956 3.199995 161.332855 -0.288310 0.673349 0.680793 0.508649 0.682425
142.510956 0.199995 161.332855 -0.288310 -0.673349 0.680793 0.750100 0.682425
162.055115 3.199995 166.169495 -0.114109 0.688576 0.716130 0.508649 0.727442
162.055115 0.199995 166.169495 -0.114109 -0.688577 0.716129 0.750100 0.727442
219.137344 3.199995 170.368439 0.385632 0.602403 0.698856 0.508649 0.855417
219.137344 0.199995 170.368439 0.385632 -0.602402 0.698856 0.750100 0.855417
249.471573 3.199995 113.348495 0.733283 0.655719 0.179802 0.508649 0.999827
249.471573 3.199995 113.348495 0.733283 0.655719 0.179802 0.788542 0.000173
93.637383 0.199997 46.376232 -0.687061 -0.684816 -0.242845 0.279187 0.626010
124.926941 0.199996 2.489208 -0.318696 -0.901283 -0.293464 0.376867 0.696593
248.806442 0.200000 30.211773 0.708866 -0.705249 -0.011538 0.313122 0.973177
93.637383 3.199997 46.376232 -0.687061 0.684816 -0.242845 0.279187 0.589441
95.885513 3.199996 115.598282 -0.671747 0.672223 0.311242 0.124384 0.585399
249.471573 3.199995 113.348495 0.733283 0.655719 0.179802 0.127230 0.241969
246.663284 3.200000 -57.070320 0.567885 0.578313 -0.585714 0.407436 0.000173
124.926941 0.199996 2.489208 -0.318696 -0.901283 -0.293464 0.000173 0.241624
114.130035 0.199996 3.083607 -0.442893 -0.608092 -0.658840 0.750100 0.266147
249.471573 0.199995 113.348495 0.733283 -0.655719 0.179801 0.750100 0.999827
249.471573 0.199995 113.348495 0.733283 -0.655719 0.179801 0.788542 0.241624
246.663284 0.200000 -57.070320 0.567885 -0.578312 -0.585714 0.508303 0.969626
249.471573 0.199995 113.348495 0.733283 -0.655719 0.179801 0.127230 0.973482
95.885513 0.199996 115.598282 -0.671747 -0.672223 0.311243 0.124384 0.630052
219.137344 0.199995 170.368439 0.385632 -0.602402 0.698856 0.000173 0.904848
162.055115 0.199995 166.169495 -0.114109 -0.688577 0.716129 0.010372 0.777280
142.510956 0.199995 161.332855 -0.288310 -0.673349 0.680793 0.021464 0.733650
115.531319 0.199996 144.471069 -0.518614 -0.663568 0.539181 0.059549 0.673567
85.744225 0.199997 78.998398 -0.755779 -0.654708 0.012437 0.206360 0.607898
114.130035 0.199996 3.083607 -0.442893 -0.608092 -0.658840 0.375692 0.672444
123.316559 0.199999 -56.285980 -0.587568 -0.576252 -0.568064 0.508304 0.693828
248.806442 3.200000 30.211773 0.708866 0.705249 -0.011538 0.313122 0.242274
246.663284 3.200000 -57.070320 0.567885 0.578313 -0.585714 0.508304 0.245825
124.926941 3.199996 2.489208 -0.318697 0.901283 -0.293464 0.376867 0.518858
123.316559 3.199999 -56.285980 -0.587568 0.576252 -0.568065 0.508304 0.521623
114.130035 3.199996 3.083607 -0.442893 0.608092 -0.658840 0.375692 0.543007
219.137344 3.199995 170.368439 0.385632 0.602403 0.698856 0.000173 0.310603
162.055115 3.199995 166.169495 -0.114109 0.688576 0.716130 0.010372 0.438172
142.510956 3.199995 161.332855 -0.288310 0.673349 0.680793 0.021464 0.481801
115.531319 3.199996 144.471069 -0.518614 0.663568 0.539181 0.059549 0.541884
85.744225 3.199997 78.998398 -0.755779 0.654709 0.012437 0.206360 0.607553
3 0 1 2
3 2 3 0
3 1 4 5
3 6 7 8
3 7 9 10
3 9 11 10
3 12 13 11
3 14 15 13
3 16 17 15
3 18 19 17
3 20 21 19
3 22 23 21
3 24 5 4
3 25 26 27
3 28 29 30
3 0 31 1
3 2 32 3
3 1 31 4
3 6 33 7
3 7 33 9
3 9 12 11
3 12 14 13
3 14 16 15
3 16 18 17
3 18 20 19
3 20 22 21
3 22 34 23
3 24 35 5
3 36 27 26
3 27 37 25
3 25 37 38
3 37 39 40
3 40 41 38
3 41 42 38
3 38 43 25
3 40 38 37
3 25 44 26
3 26 45 36
3 46 47 48
3 47 49 48
3 48 50 28
3 51 30 52
3 30 46 28
3 52 29 53
3 29 54 53
3 28 55 29
3 46 48 28
3 52 30 29
