ply
format ascii 1.0
comment Created by Blender 3.1.2 - www.blender.org
element vertex 66
property float x
property float y
property float z
property float nx
property float ny
property float nz
property float s
property float t
element face 60
property list uchar uint vertex_indices
end_header
180.109344 13.200000 141.627625 0.000000 0.665719 0.746203 -0.000000 0.010000
154.842361 3.200000 136.601715 -0.285559 -0.665719 0.689401 0.062500 0.510000
180.109344 3.200000 141.627625 0.000000 -0.665719 0.746203 0.000000 0.510000
154.842361 13.200000 136.601715 -0.285559 0.665719 0.689401 0.062500 0.010000
133.422058 3.200000 122.289124 -0.527645 -0.665719 0.527645 0.125000 0.510000
133.422058 13.200000 122.289124 -0.527645 0.665719 0.527645 0.125000 0.010000
119.109474 3.200000 100.868820 -0.689401 -0.665719 0.285559 0.187500 0.510000
119.109474 13.200000 100.868820 -0.689401 0.665719 0.285559 0.187500 0.010000
114.083557 3.200000 75.601845 -0.746203 -0.665719 0.000000 0.250000 0.510000
114.083557 13.200000 75.601845 -0.746203 0.665719 0.000000 0.250000 0.010000
119.109467 3.200000 50.334869 -0.689401 -0.665719 -0.285559 0.312500 0.510000
119.109467 13.200000 50.334869 -0.689401 0.665719 -0.285559 0.312500 0.010000
133.422058 3.200000 28.914562 -0.527645 -0.665719 -0.527645 0.375000 0.510000
133.422058 13.200000 28.914562 -0.527645 0.665719 -0.527645 0.375000 0.010000
154.842361 3.200000 14.601974 -0.285559 -0.665719 -0.689401 0.437500 0.510000
154.842361 13.200000 14.601974 -0.285559 0.665719 -0.689401 0.437500 0.010000
180.109344 3.200000 9.576057 0.000000 -0.665719 -0.746203 0.500000 0.510000
180.109344 13.200000 9.576057 0.000000 0.665719 -0.746203 0.500000 0.010000
205.376312 3.200000 14.601974 0.285559 -0.665719 -0.689401 0.562500 0.510000
205.376312 13.200000 14.601974 0.285559 0.665719 -0.689401 0.562500 0.010000
226.796631 3.200000 28.914558 0.527645 -0.665719 -0.527645 0.625000 0.510000
226.796631 13.200000 28.914558 0.527645 0.665719 -0.527645 0.625000 0.010000
241.109222 3.200000 50.334862 0.689401 -0.665719 -0.285559 0.687500 0.510000
241.109222 13.200000 50.334862 0.689401 0.665719 -0.285559 0.687500 0.010000
246.135132 3.200000 75.601845 0.746203 -0.665719 0.000000 0.750000 0.510000
246.135132 13.200000 75.601845 0.746203 0.665719 0.000000 0.750000 0.010000
241.109207 3.200000 100.868835 0.689401 -0.665719 0.285559 0.812500 0.510000
241.109207 13.200000 100.868835 0.689401 0.665719 0.285560 0.812500 0.010000
226.796631 3.200000 122.289124 0.527645 -0.665719 0.527645 0.875000 0.510000
180.109344 13.200000 9.576057 0.000000 0.665719 -0.746203 0.750000 1.000000
133.422058 13.200000 28.914562 -0.527645 0.665719 -0.527645 0.580294 0.929706
133.422058 13.200000 122.289124 -0.527645 0.665719 0.527645 0.580294 0.590294
226.796631 13.200000 122.289124 0.527645 0.665719 0.527645 0.875000 0.010000
205.376312 3.200000 136.601715 0.285559 -0.665719 0.689401 0.937500 0.510000
205.376312 13.200000 136.601715 0.285559 0.665719 0.689401 0.937500 0.010000
180.109344 3.200000 141.627625 0.000000 -0.665719 0.746203 1.000000 0.510000
119.109474 3.200000 100.868820 -0.689401 -0.665719 0.285559 0.028269 0.668156
154.842361 3.200000 14.601974 -0.285559 -0.665719 -0.689401 0.158156 0.981731
241.109222 3.200000 50.334862 0.689401 -0.665719 -0.285559 0.471731 0.851844
154.842361 13.200000 136.601715 -0.285559 0.665719 0.689401 0.658156 0.538269
180.109344 13.200000 141.627625 0.000000 0.665719 0.746203 0.750000 0.520000
205.376312 13.200000 136.601715 0.285559 0.665719 0.689401 0.841844 0.538269
226.796631 13.200000 122.289124 0.527645 0.665719 0.527645 0.919706 0.590294
241.109207 13.200000 100.868835 0.689401 0.665719 0.285560 0.971731 0.668156
246.135132 13.200000 75.601845 0.746203 0.665719 0.000000 0.990000 0.760000
241.109222 13.200000 50.334862 0.689401 0.665719 -0.285559 0.971731 0.851844
226.796631 13.200000 28.914558 0.527645 0.665719 -0.527645 0.919706 0.929706
205.376312 13.200000 14.601974 0.285559 0.665719 -0.689401 0.841844 0.981731
154.842361 13.200000 14.601974 -0.285559 0.665719 -0.689401 0.658156 0.981731
119.109467 13.200000 50.334869 -0.689401 0.665719 -0.285559 0.528269 0.851844
114.083557 13.200000 75.601845 -0.746203 0.665719 0.000000 0.510000 0.760000
119.109474 13.200000 100.868820 -0.689401 0.665719 0.285559 0.528269 0.668156
180.109344 13.200000 141.627625 0.000000 0.665719 0.746203 1.000000 0.010000
205.376312 3.200000 136.601715 0.285559 -0.665719 0.689401 0.341844 0.538269
180.109344 3.200000 141.627625 0.000000 -0.665719 0.746203 0.250000 0.520000
154.842361 3.200000 136.601715 -0.285559 -0.665719 0.689401 0.158156 0.538269
133.422058 3.200000 122.289124 -0.527645 -0.665719 0.527645 0.080294 0.590294
114.083557 3.200000 75.601845 -0.746203 -0.665719 0.000000 0.010000 0.760000
119.109467 3.200000 50.334869 -0.689401 -0.665719 -0.285559 0.028269 0.851844
133.422058 3.200000 28.914562 -0.527645 -0.665719 -0.527645 0.080294 0.929706
180.109344 3.200000 9.576057 0.000000 -0.665719 -0.746203 0.250000 1.000000
205.376312 3.200000 14.601974 0.285559 -0.665719 -0.689401 0.341844 0.981731
226.796631 3.200000 28.914558 0.527645 -0.665719 -0.527645 0.419706 0.929706
246.135132 3.200000 75.601845 0.746203 -0.665719 0.000000 0.490000 0.760000
241.109207 3.200000 100.868835 0.689401 -0.665719 0.285559 0.471731 0.668156
226.796631 3.200000 122.289124 0.527645 -0.665719 0.527645 0.419706 0.590294
3 0 1 2
3 3 4 1
3 5 6 4
3 7 8 6
3 9 10 8
3 11 12 10
3 13 14 12
3 15 16 14
3 17 18 16
3 19 20 18
3 21 22 20
3 23 24 22
3 25 26 24
3 27 28 26
3 29 30 31
3 32 33 28
3 34 35 33
3 36 37 38
3 0 3 1
3 3 5 4
3 5 7 6
3 7 9 8
3 9 11 10
3 11 13 12
3 13 15 14
3 15 17 16
3 17 19 18
3 19 21 20
3 21 23 22
3 23 25 24
3 25 27 26
3 27 32 28
3 31 39 40
3 40 41 42
3 42 43 44
3 44 45 46
3 46 47 29
3 29 48 30
3 30 49 50
3 50 51 30
3 51 31 30
3 31 40 42
3 42 44 31
3 44 46 31
3 46 29 31
3 32 34 33
3 34 52 35
3 53 54 36
3 54 55 36
3 55 56 36
3 36 57 58
3 58 59 37
3 37 60 61
3 61 62 38
3 38 63 64
3 64 65 38
3 65 53 38
3 36 58 37
3 37 61 38
3 53 36 38
