ply
format ascii 1.0
comment Created by Blender 3.1.2 - www.blender.org
element vertex 132
property float x
property float y
property float z
property float nx
property float ny
property float nz
property float s
property float t
element face 120
property list uchar uint vertex_indices
end_header
111.740265 6.200000 -0.191559 -0.514215 0.591762 -0.620806 0.503657 0.490146
129.309357 0.200000 -0.758911 0.617242 -0.568020 -0.544395 0.511980 0.416994
111.740265 0.200000 -0.191559 -0.514216 -0.591762 -0.620806 0.511980 0.490146
115.045792 6.199998 4.124756 0.276026 0.854866 0.439332 0.503657 0.338868
100.546799 0.199998 36.242229 0.647467 -0.719009 0.252611 0.511980 0.192222
115.045792 0.199998 4.124756 0.276026 -0.854867 0.439332 0.511980 0.338868
100.546799 6.199998 36.242229 0.647467 0.719009 0.252611 0.503657 0.192222
92.854340 0.199998 59.460571 0.669964 -0.720171 0.180285 0.511980 0.090433
128.480560 6.199998 4.458424 0.519045 0.584651 0.623519 0.503657 0.395009
129.309357 6.200000 -0.758911 0.617242 0.568020 -0.544395 0.503657 0.416994
115.045792 0.199998 4.124756 0.276026 -0.854867 0.439332 0.511980 0.339083
128.480560 0.199998 4.458424 0.519045 -0.584652 0.623518 0.511980 0.395009
110.882271 0.200000 3.653347 -0.607948 -0.750522 -0.259068 0.511980 0.506540
110.882271 6.200000 3.653347 -0.607948 0.750522 -0.259068 0.503657 0.506540
92.854340 6.199998 59.460571 0.669964 0.720171 0.180285 0.503657 0.090433
90.882988 0.199998 68.903328 0.683540 -0.724344 0.090000 0.511980 0.050290
90.882988 6.199998 68.903328 0.683540 0.724344 0.090000 0.503657 0.050290
90.207870 0.199998 80.943138 0.682367 -0.730381 -0.030314 0.511980 0.000107
90.207870 6.199998 80.943138 0.682367 0.730381 -0.030314 0.494904 0.000107
92.531960 0.199998 96.880554 0.673918 -0.723710 -0.148585 0.486581 0.067132
90.207870 0.199998 80.943138 0.682367 -0.730381 -0.030314 0.486582 0.000107
92.531960 6.199998 96.880554 0.673918 0.723710 -0.148585 0.494904 0.067132
96.522614 0.199998 110.292206 0.646352 -0.723300 -0.243038 0.486581 0.125363
96.522614 6.199998 110.292206 0.646352 0.723300 -0.243038 0.494904 0.125363
102.120758 0.199998 122.495087 0.595731 -0.727600 -0.340153 0.486581 0.181234
102.120758 6.199998 122.495087 0.595731 0.727600 -0.340153 0.494904 0.181234
110.805748 0.199998 134.987518 0.521849 -0.729285 -0.442513 0.486581 0.244550
110.805748 6.199998 134.987518 0.521849 0.729285 -0.442513 0.494904 0.244550
123.087051 0.199998 146.936340 0.442719 -0.724251 -0.528640 0.486580 0.315857
123.087051 6.199998 146.936340 0.442719 0.724251 -0.528640 0.494903 0.315857
136.750610 0.199998 156.746033 0.310808 -0.740388 -0.596007 0.486580 0.385854
136.750610 6.199998 156.746033 0.310808 0.740388 -0.596007 0.494903 0.385854
151.439667 0.199998 161.920670 0.166434 -0.728673 -0.664331 0.486580 0.450666
151.439667 6.199998 161.920670 0.166434 0.728673 -0.664331 0.494903 0.450666
157.182373 0.199999 162.801819 0.659760 -0.577055 -0.481378 0.486580 0.474844
157.182373 6.199998 162.801819 0.659760 0.577055 -0.481378 0.494903 0.474844
156.348526 0.199999 168.039459 0.454355 -0.573287 0.681838 0.486580 0.496915
156.348526 6.199998 168.039459 0.454355 0.573287 0.681838 0.494903 0.496915
149.401382 0.199999 166.359039 -0.209830 -0.694185 0.688533 0.486580 0.526660
149.401382 6.199998 166.359039 -0.209830 0.694185 0.688533 0.494903 0.526660
133.174362 0.199999 160.356750 -0.354272 -0.675587 0.646586 0.486580 0.598661
133.174362 6.199998 160.356750 -0.354272 0.675587 0.646586 0.494903 0.598661
120.226036 0.199999 150.550323 -0.476346 -0.691340 0.543271 0.486581 0.666256
120.226036 6.199998 150.550323 -0.476346 0.691340 0.543271 0.494904 0.666256
107.936882 0.199999 138.109787 -0.557719 -0.688366 0.463790 0.486581 0.739028
107.936882 6.199998 138.109787 -0.557719 0.688366 0.463790 0.494904 0.739028
98.822098 0.199999 125.016525 -0.616749 -0.693021 0.373287 0.486581 0.805419
98.822098 6.199998 125.016525 -0.616749 0.693021 0.373287 0.494904 0.805419
91.979752 0.199999 111.886726 -0.674501 -0.686093 0.272627 0.486581 0.867035
91.979752 6.199998 111.886726 -0.674500 0.686093 0.272627 0.494904 0.867035
87.497849 0.199999 96.747116 -0.691984 -0.699376 0.178975 0.486581 0.932742
87.497849 6.199998 96.747116 -0.691984 0.699376 0.178975 0.494904 0.932742
84.002136 0.199999 80.994278 -0.736263 -0.674847 0.049979 0.486581 0.999893
84.002136 6.199998 80.994278 -0.736263 0.674847 0.049979 0.495119 0.344649
84.984085 0.199999 69.164124 -0.712032 -0.695370 -0.097322 0.503442 0.295248
84.002136 0.199999 80.994278 -0.736263 -0.674847 0.049979 0.503442 0.344649
84.984085 6.199998 69.164124 -0.712032 0.695370 -0.097322 0.495119 0.295248
87.019028 0.199999 58.518044 -0.697319 -0.697733 -0.164059 0.503442 0.250142
87.019028 6.199998 58.518044 -0.697319 0.697733 -0.164059 0.495119 0.250142
91.002594 0.199999 44.305408 -0.680347 -0.693083 -0.238251 0.503442 0.188716
91.002594 6.199998 44.305408 -0.680347 0.693083 -0.238251 0.495119 0.188716
96.750870 0.199999 30.725216 -0.648758 -0.700687 -0.296903 0.503442 0.127347
96.750870 6.199998 30.725216 -0.648758 0.700687 -0.296903 0.495119 0.127347
107.827423 0.199999 8.254459 -0.624930 -0.692977 -0.359509 0.503442 0.023091
110.882271 0.200000 3.653347 -0.607948 -0.750522 -0.259068 0.503442 0.000107
107.827423 6.199998 8.254459 -0.624929 0.692977 -0.359509 0.495119 0.023091
110.882271 6.200000 3.653347 -0.607948 0.750522 -0.259068 0.495119 0.000107
91.979752 0.199999 111.886726 -0.674501 -0.686093 0.272627 0.254474 0.446081
96.522614 0.199998 110.292206 0.646352 -0.723300 -0.243038 0.274225 0.442716
102.120758 0.199998 122.495087 0.595731 -0.727600 -0.340153 0.288660 0.496690
91.979752 6.199998 111.886726 -0.674500 0.686093 0.272627 0.011238 0.275468
96.522614 6.199998 110.292206 0.646352 0.723300 -0.243038 0.030989 0.278834
92.531960 6.199998 96.880554 0.673918 0.723710 -0.148585 0.023994 0.336644
115.045792 6.199998 4.124756 0.276026 0.854866 0.439332 0.503657 0.339083
90.207870 6.199998 80.943138 0.682367 0.730381 -0.030314 0.503657 0.000107
84.002136 6.199998 80.994278 -0.736263 0.674847 0.049979 0.494904 0.999893
111.740265 0.200000 -0.191559 -0.514216 -0.591762 -0.620806 0.413894 0.000107
129.309357 0.200000 -0.758911 0.617242 -0.568020 -0.544395 0.486366 0.010062
115.045792 0.199998 4.124756 0.276026 -0.854867 0.439332 0.424437 0.020125
128.480560 0.199998 4.458424 0.519045 -0.584652 0.623518 0.479318 0.030887
96.750870 0.199999 30.725216 -0.648758 -0.700687 -0.296903 0.330787 0.116461
107.827423 0.199999 8.254459 -0.624930 -0.692977 -0.359509 0.391937 0.032021
100.546799 0.199998 36.242229 0.647467 -0.719009 0.252611 0.342503 0.141747
110.882271 0.200000 3.653347 -0.607948 -0.750522 -0.259068 0.407686 0.015281
91.002594 0.199999 44.305408 -0.680347 -0.693083 -0.238251 0.297712 0.168153
84.984085 0.199999 69.164124 -0.712032 -0.695370 -0.097322 0.255643 0.265926
87.019028 0.199999 58.518044 -0.697319 -0.697733 -0.164059 0.271433 0.223674
90.882988 0.199998 68.903328 0.683540 -0.724344 0.090000 0.280024 0.268980
92.854340 0.199998 59.460571 0.669964 -0.720171 0.180285 0.294713 0.231620
87.497849 0.199999 96.747116 -0.691984 -0.699376 0.178975 0.246672 0.380839
84.002136 0.199999 80.994278 -0.736263 -0.674847 0.049979 0.243344 0.313771
90.207870 0.199998 80.943138 0.682367 -0.730381 -0.030314 0.268838 0.317900
98.822098 0.199999 125.016525 -0.616749 -0.693021 0.373287 0.273365 0.504728
92.531960 0.199998 96.880554 0.673918 -0.723710 -0.148585 0.267230 0.384906
120.226036 0.199999 150.550323 -0.476346 -0.691340 0.543271 0.343321 0.624441
107.936882 0.199999 138.109787 -0.557719 -0.688366 0.463790 0.301603 0.564814
123.087051 0.199998 146.936340 0.442719 -0.724251 -0.528640 0.357585 0.611616
110.805748 0.199998 134.987518 0.521849 -0.729285 -0.442513 0.315556 0.554011
149.401382 0.199999 166.359039 -0.209830 -0.694185 0.688533 0.451958 0.709692
133.174362 0.199999 160.356750 -0.354272 -0.675587 0.646586 0.389585 0.673724
136.750610 0.199998 156.746033 0.310808 -0.740388 -0.596007 0.406780 0.661411
157.182373 0.199999 162.801819 0.659760 -0.577055 -0.481378 0.486366 0.700538
156.348526 0.199999 168.039459 0.454355 -0.573287 0.681838 0.479283 0.721442
151.439667 0.199998 161.920670 0.166434 -0.728673 -0.664331 0.463423 0.692909
129.309357 6.200000 -0.758911 0.617242 0.568020 -0.544395 0.243129 0.711487
111.740265 6.200000 -0.191559 -0.514215 0.591762 -0.620806 0.170657 0.721442
115.045792 6.199998 4.124756 0.276026 0.854866 0.439332 0.181200 0.701424
110.882271 6.200000 3.653347 -0.607948 0.750522 -0.259068 0.164450 0.706269
107.827423 6.199998 8.254459 -0.624929 0.692977 -0.359509 0.148701 0.689529
96.750870 6.199998 30.725216 -0.648758 0.700687 -0.296903 0.087551 0.605089
100.546799 6.199998 36.242229 0.647467 0.719009 0.252611 0.099266 0.579802
91.002594 6.199998 44.305408 -0.680347 0.693083 -0.238251 0.054475 0.553397
87.019028 6.199998 58.518044 -0.697319 0.697733 -0.164059 0.028197 0.497876
92.854340 6.199998 59.460571 0.669964 0.720171 0.180285 0.051477 0.489930
84.984085 6.199998 69.164124 -0.712032 0.695370 -0.097322 0.012406 0.455624
90.882988 6.199998 68.903328 0.683540 0.724344 0.090000 0.036788 0.452570
84.002136 6.199998 80.994278 -0.736263 0.674847 0.049979 0.000107 0.407779
90.207870 6.199998 80.943138 0.682367 0.730381 -0.030314 0.025601 0.403650
87.497849 6.199998 96.747116 -0.691984 0.699376 0.178975 0.003435 0.340710
98.822098 6.199998 125.016525 -0.616749 0.693021 0.373287 0.030128 0.216821
102.120758 6.199998 122.495087 0.595731 0.727600 -0.340153 0.045423 0.224859
107.936882 6.199998 138.109787 -0.557719 0.688366 0.463790 0.058367 0.156735
110.805748 6.199998 134.987518 0.521849 0.729285 -0.442513 0.072319 0.167539
120.226036 6.199998 150.550323 -0.476346 0.691340 0.543271 0.100085 0.097108
123.087051 6.199998 146.936340 0.442719 0.724251 -0.528640 0.114348 0.109934
133.174362 6.199998 160.356750 -0.354272 0.675587 0.646586 0.146348 0.047826
149.401382 6.199998 166.359039 -0.209830 0.694185 0.688533 0.208722 0.011858
136.750610 6.199998 156.746033 0.310808 0.740388 -0.596007 0.163544 0.060138
156.348526 6.199998 168.039459 0.454355 0.573287 0.681838 0.236047 0.000107
151.439667 6.199998 161.920670 0.166434 0.728673 -0.664331 0.220186 0.028641
157.182373 6.199998 162.801819 0.659760 0.577055 -0.481378 0.243129 0.021011
128.480560 6.199998 4.458424 0.519045 0.584651 0.623519 0.236082 0.690663
3 0 1 2
3 3 4 5
3 6 7 4
3 8 1 9
3 8 10 11
3 0 12 13
3 14 15 7
3 16 17 15
3 18 19 20
3 21 22 19
3 23 24 22
3 25 26 24
3 27 28 26
3 29 30 28
3 31 32 30
3 33 34 32
3 35 36 34
3 37 38 36
3 39 40 38
3 41 42 40
3 43 44 42
3 45 46 44
3 47 48 46
3 49 50 48
3 51 52 50
3 53 54 55
3 56 57 54
3 58 59 57
3 60 61 59
3 62 63 61
3 64 65 66
3 67 68 69
3 70 71 72
3 0 9 1
3 3 6 4
3 6 14 7
3 8 11 1
3 8 73 10
3 0 2 12
3 14 16 15
3 16 74 17
3 18 21 19
3 21 23 22
3 23 25 24
3 25 27 26
3 27 29 28
3 29 31 30
3 31 33 32
3 33 35 34
3 35 37 36
3 37 39 38
3 39 41 40
3 41 43 42
3 43 45 44
3 45 47 46
3 47 49 48
3 49 51 50
3 51 75 52
3 53 56 54
3 56 58 57
3 58 60 59
3 60 62 61
3 62 65 63
3 64 63 65
3 76 77 78
3 77 79 78
3 80 81 82
3 81 83 78
3 82 81 78
3 83 76 78
3 84 80 82
3 85 86 87
3 86 84 88
3 89 90 91
3 90 85 91
3 92 67 69
3 67 89 93
3 94 95 96
3 95 92 97
3 98 99 100
3 99 94 96
3 101 102 103
3 102 98 103
3 67 93 68
3 93 89 91
3 86 88 87
3 88 84 82
3 100 103 98
3 96 100 99
3 85 87 91
3 97 96 95
3 69 97 92
3 104 105 106
3 105 107 106
3 107 108 106
3 108 109 110
3 109 111 110
3 111 112 113
3 112 114 115
3 114 116 117
3 115 114 117
3 116 118 117
3 118 70 72
3 70 119 120
3 119 121 122
3 70 120 71
3 121 123 124
3 123 125 124
3 125 126 127
3 126 128 129
3 127 126 129
3 128 130 129
3 118 72 117
3 111 113 110
3 113 112 115
3 131 104 106
3 108 110 106
3 125 127 124
3 121 124 122
3 122 120 119
