ply
format ascii 1.0
comment Created by Blender 3.1.2 - www.blender.org
element vertex 204
property float x
property float y
property float z
property float nx
property float ny
property float nz
property float s
property float t
element face 196
property list uchar uint vertex_indices
end_header
223.742569 12.584316 -37.982895 0.065951 0.939714 0.335541 0.064065 0.677031
222.632996 15.200000 -43.375999 -0.004806 0.999948 -0.008958 0.185579 0.819095
222.691574 12.584612 -37.881046 -0.000304 0.939606 0.342257 0.055942 0.684476
217.605530 10.355918 -30.695726 -0.081419 0.976988 0.197143 0.107914 0.290087
218.640503 9.200000 -23.387743 -0.196009 -0.080391 0.977301 0.011246 0.237472
220.131500 10.355493 -29.926523 -0.041479 0.976936 0.209466 0.113319 0.263068
215.278931 10.356411 -31.943058 -0.118140 0.977047 0.177261 0.106088 0.317574
214.813049 9.200000 -24.548784 -0.383227 -0.079907 0.920191 0.002997 0.278387
213.241150 10.356954 -33.620144 -0.150235 0.977110 0.150615 0.107885 0.345056
211.285660 9.200000 -26.434217 -0.555619 -0.079348 0.827642 0.000159 0.320028
211.570389 10.357528 -35.662106 -0.176485 0.977174 0.118255 0.113283 0.372054
208.193863 9.200000 -28.971581 -0.706559 -0.078736 0.703260 0.002801 0.361682
210.330521 10.358110 -37.990139 -0.195905 0.977235 0.081441 0.122201 0.398094
205.656509 9.200000 -32.063366 -0.830264 -0.078098 0.551872 0.010902 0.402626
209.568832 10.358682 -40.514568 -0.207776 0.977292 0.041593 0.134494 0.422712
203.771072 9.200000 -35.590759 -0.922014 -0.077458 0.379329 0.024343 0.442141
209.314117 10.359218 -43.138348 -0.211666 0.977342 0.000235 0.149953 0.445466
202.610031 9.200000 -39.418205 -0.978327 -0.076841 0.192281 0.042913 0.479520
209.575760 10.359700 -45.760777 -0.207446 0.977385 -0.041056 0.168311 0.465943
202.218002 9.200000 -43.398617 -0.997085 -0.076270 -0.002081 0.066301 0.514089
210.343353 10.360110 -48.281364 -0.195289 0.977419 -0.080712 0.189245 0.483770
202.610031 9.200000 -47.379028 -0.977611 -0.075765 -0.196305 0.094108 0.545215
211.587189 10.360432 -50.603642 -0.175667 0.977445 -0.117230 0.212382 0.498616
203.771072 9.200000 -51.206474 -0.920687 -0.075338 -0.382961 0.125846 0.572322
213.259415 10.360654 -52.638809 -0.149332 0.977462 -0.149225 0.237306 0.510208
205.656509 9.200000 -54.733868 -0.828520 -0.075010 -0.554913 0.160948 0.594903
215.295898 10.360767 -54.309093 -0.117287 0.977471 -0.175486 0.263564 0.518330
208.193863 9.200000 -57.825653 -0.704653 -0.074784 -0.705600 0.198779 0.612535
217.618683 10.360767 -55.550644 -0.080751 0.977471 -0.195015 0.290677 0.522831
211.285660 9.200000 -60.363022 -0.553832 -0.074669 -0.829274 0.238648 0.624885
218.640503 9.200000 -63.409492 -0.195201 -0.074783 -0.977908 0.321542 0.632918
214.813049 9.200000 -62.248451 -0.381822 -0.074669 -0.921215 0.279822 0.631721
220.138885 10.360654 -56.315971 -0.041112 0.977462 -0.207071 0.318150 0.523631
222.620911 9.200000 -63.801529 -0.001092 -0.075008 -0.997182 0.363041 0.628458
222.760117 10.360432 -56.575695 0.000122 0.977445 -0.211192 0.345483 0.520715
226.601318 9.200000 -63.409492 0.193087 -0.075339 -0.978285 0.403557 0.618432
225.382050 10.360110 -56.319714 0.041387 0.977419 -0.207219 0.372176 0.514143
230.428757 9.200000 -62.248451 0.379910 -0.075765 -0.921916 0.442352 0.603036
227.904297 10.359700 -55.557579 0.081114 0.977384 -0.195295 0.397748 0.504038
233.956161 9.200000 -60.363018 0.552221 -0.076270 -0.830202 0.478725 0.582567
230.230118 10.359218 -54.318184 0.117792 0.977342 -0.175864 0.421779 0.134926
237.047943 9.200000 -57.825657 0.703406 -0.076841 -0.706623 0.441365 0.024320
233.956161 9.200000 -60.363018 0.552221 -0.076270 -0.830202 0.478725 0.042927
232.270203 10.358681 -52.648712 0.150018 0.977292 -0.149653 0.397178 0.122615
239.585312 9.200000 -54.733871 0.827644 -0.077458 -0.555882 0.401856 0.010861
233.946014 10.358110 -50.612885 0.176556 0.977235 -0.117644 0.371150 0.113689
241.470734 9.200000 -51.206478 0.920135 -0.078098 -0.383735 0.360910 0.002769
235.192886 10.357528 -48.288597 0.196377 0.977173 -0.081044 0.344159 0.108296
242.631775 9.200000 -47.379028 0.977283 -0.078736 -0.196772 0.319254 0.000159
235.962479 10.356954 -45.764942 0.208701 0.977110 -0.041239 0.316684 0.106519
243.023819 9.200000 -43.398617 0.996845 -0.079348 -0.002167 0.277617 0.003054
236.224792 10.356411 -43.138859 0.213027 0.977046 0.000250 0.289206 0.108376
242.631775 9.200000 -39.418205 0.978021 -0.079907 0.192589 0.236718 0.011379
235.969330 10.355918 -40.511383 0.209159 0.976987 0.041830 0.262203 0.113824
241.470734 9.200000 -35.590759 0.921494 -0.080390 0.379983 0.197255 0.024971
235.205536 10.355493 -37.983761 0.197217 0.976934 0.081888 0.236137 0.122758
239.585312 9.200000 -32.063370 0.829409 -0.080771 0.552772 0.159895 0.043581
233.962570 10.355150 -35.653507 0.177641 0.976891 0.118858 0.211453 0.135016
237.047943 9.200000 -28.971584 0.705299 -0.081037 0.704263 0.125265 0.066879
232.288132 10.354900 -33.610588 0.151175 0.976861 0.151289 0.188569 0.150383
233.956161 9.200000 -26.434217 0.553945 -0.081178 0.828586 0.093943 0.094465
230.246674 10.354750 -31.933918 0.118847 0.976846 0.177900 0.167872 0.168592
232.192459 9.200000 -25.491501 0.469629 -0.086506 0.878616 0.080198 0.110168
219.723312 12.593337 -47.709389 -0.197233 0.934830 -0.295282 0.000253 0.812045
220.646469 12.593334 -48.202839 -0.135944 0.934830 -0.328042 0.000159 0.822968
225.388489 10.354900 -29.922657 0.041795 0.976860 0.209754 0.134404 0.212262
230.428757 9.200000 -24.548784 0.381190 -0.081178 0.920926 0.066453 0.125871
227.916763 10.354750 -30.688560 0.081898 0.976841 0.197673 0.149714 0.189336
222.759598 10.355150 -29.665394 0.000136 0.976894 0.213726 0.122202 0.236979
226.601318 9.200000 -23.387741 0.193732 -0.081036 0.977702 0.043256 0.160569
232.192459 9.200000 -25.491501 0.469629 -0.086506 0.878616 0.479044 0.212045
230.428757 9.200000 -24.548784 0.381190 -0.081178 0.920926 0.479044 0.191176
226.601318 9.200000 -23.387741 0.193732 -0.081036 0.977702 0.487186 0.150240
226.478638 12.589990 -47.056499 0.247178 0.936679 -0.248063 0.174623 0.633420
227.149063 12.589070 -46.247028 0.289699 0.937173 -0.194376 0.163685 0.634241
227.170929 12.584267 -40.273335 0.284771 0.939616 0.189809 0.100646 0.652587
226.502548 12.583859 -39.455322 0.241827 0.939799 0.241450 0.090949 0.657828
217.436493 12.590037 -42.223312 -0.343582 0.936678 0.067716 0.013662 0.748117
217.337845 12.590887 -43.268715 -0.351441 0.936210 -0.000553 0.009909 0.758412
221.641342 12.585086 -37.987133 -0.067337 0.939343 0.336305 0.048295 0.692405
221.647995 12.593153 -48.507565 -0.069393 0.934933 -0.347973 0.000680 0.833880
227.649307 12.588128 -45.321548 0.320808 0.937671 -0.133628 0.152805 0.635703
225.686630 12.583613 -38.783936 0.190093 0.939841 0.283838 0.081589 0.663656
217.444473 12.591652 -44.312435 -0.345705 0.935785 -0.069248 0.006759 0.768897
222.689972 12.592798 -48.611912 -0.000282 0.935132 -0.354299 0.001815 0.844749
227.959671 12.587199 -44.315353 0.339431 0.938154 -0.068212 0.142020 0.637807
220.632675 12.585713 -38.296719 -0.132103 0.939004 0.317521 0.041150 0.700781
219.704666 12.586467 -38.797401 -0.192181 0.938602 0.286518 0.034530 0.709571
224.756332 12.582856 -38.281845 0.130339 0.940027 0.315216 0.072568 0.670006
225.220871 12.583532 -38.534458 0.463541 -0.219110 0.858557 0.081477 0.663499
217.751846 12.592301 -45.314713 -0.326480 0.935420 -0.135646 0.004216 0.779537
223.732880 12.592283 -48.511715 0.068594 0.935421 -0.346819 0.003563 0.855541
228.067673 12.586318 -43.267040 0.344991 0.938606 -0.000647 0.131371 0.640553
218.893021 12.587312 -39.469372 -0.245281 0.938152 0.244354 0.028456 0.718737
218.247910 12.592810 -46.237514 -0.294435 0.935132 -0.197070 0.002282 0.790297
224.737045 12.591626 -48.210476 0.134480 0.935785 -0.325916 0.005924 0.866224
227.968643 12.585517 -42.217037 0.337398 0.939009 0.066515 0.120898 0.643937
218.228790 12.588213 -40.286263 -0.289333 0.937668 0.192522 0.022945 0.728242
218.913528 12.593160 -47.045921 -0.250780 0.934933 -0.251018 0.000961 0.801144
225.664154 12.590853 -47.719296 0.194783 0.936211 -0.292522 0.008893 0.876762
227.665939 12.584826 -41.206028 0.317045 0.939350 0.130784 0.110643 0.647952
217.737137 12.589133 -41.216244 -0.322563 0.937171 0.132903 0.018010 0.738047
225.664154 12.590853 -47.719296 0.194783 0.936211 -0.292522 0.185579 0.633236
229.081879 10.354700 -31.310949 0.102632 0.976014 0.191997 0.158789 0.178961
222.691574 12.584612 -37.881046 -0.000304 0.939606 0.342257 0.657397 0.679129
220.131500 10.355493 -29.926523 -0.041479 0.976936 0.209466 0.483979 0.656434
222.759598 10.355150 -29.665394 0.000136 0.976894 0.213726 0.490387 0.629629
221.641342 12.585086 -37.987133 -0.067337 0.939343 0.336305 0.654864 0.689850
217.605530 10.355918 -30.695726 -0.081419 0.976988 0.197143 0.480188 0.683726
220.632675 12.585713 -38.296719 -0.132103 0.939004 0.317521 0.653388 0.700761
215.278931 10.356411 -31.943058 -0.118140 0.977047 0.177261 0.479044 0.711250
219.704666 12.586467 -38.797401 -0.192181 0.938602 0.286518 0.652977 0.711757
213.241150 10.356954 -33.620144 -0.150235 0.977110 0.150615 0.480546 0.738750
218.893021 12.587312 -39.469372 -0.245281 0.938152 0.244354 0.653630 0.722733
211.570389 10.357528 -35.662106 -0.176485 0.977174 0.118255 0.484673 0.765971
218.228790 12.588213 -40.286263 -0.289333 0.937668 0.192522 0.655333 0.733588
210.330521 10.358110 -37.990139 -0.195905 0.977235 0.081441 0.491375 0.792667
217.737137 12.589133 -41.216244 -0.322563 0.937171 0.132903 0.658061 0.744221
209.568832 10.358682 -40.514568 -0.207776 0.977292 0.041593 0.500582 0.818597
217.436493 12.590037 -42.223312 -0.343582 0.936678 0.067716 0.661783 0.754538
209.314117 10.359218 -43.138348 -0.211666 0.977342 0.000235 0.512200 0.843532
217.337845 12.590887 -43.268715 -0.351441 0.936210 -0.000553 0.666459 0.764448
209.575760 10.359700 -45.760777 -0.207446 0.977385 -0.041056 0.526117 0.867253
217.444473 12.591652 -44.312435 -0.345705 0.935785 -0.069248 0.672039 0.773867
210.343353 10.360110 -48.281364 -0.195289 0.977419 -0.080712 0.542201 0.889554
217.751846 12.592301 -45.314713 -0.326480 0.935420 -0.135646 0.678470 0.782717
211.587189 10.360432 -50.603642 -0.175667 0.977445 -0.117230 0.560304 0.910243
218.247910 12.592810 -46.237514 -0.294435 0.935132 -0.197070 0.685693 0.790925
213.259415 10.360654 -52.638809 -0.149332 0.977462 -0.149225 0.580263 0.929142
218.913528 12.593160 -47.045921 -0.250780 0.934933 -0.251018 0.693642 0.798423
215.295898 10.360767 -54.309093 -0.117287 0.977471 -0.175486 0.601900 0.946091
220.646469 12.593334 -48.202839 -0.135944 0.934830 -0.328042 0.711440 0.811054
219.723312 12.593337 -47.709389 -0.197233 0.934830 -0.295282 0.702249 0.805151
221.647995 12.593153 -48.507565 -0.069393 0.934933 -0.347973 0.721139 0.816082
217.618683 10.360767 -55.550644 -0.080751 0.977471 -0.195015 0.625027 0.960942
222.689972 12.592798 -48.611912 -0.000282 0.935132 -0.354299 0.731264 0.820191
220.138885 10.360654 -56.315971 -0.041112 0.977462 -0.207071 0.649441 0.973566
223.732880 12.592283 -48.511715 0.068594 0.935421 -0.346819 0.741733 0.823344
222.760117 10.360432 -56.575695 0.000122 0.977445 -0.211192 0.674931 0.983853
224.737045 12.591626 -48.210476 0.134480 0.935785 -0.325916 0.752456 0.825511
225.382050 10.360110 -56.319714 0.041387 0.977419 -0.207219 0.701276 0.991707
225.664154 12.590853 -47.719296 0.194783 0.936211 -0.292522 0.763344 0.826667
227.904297 10.359700 -55.557579 0.081114 0.977384 -0.195295 0.728247 0.997055
226.478638 12.589990 -47.056499 0.247178 0.936679 -0.248063 0.752420 0.598275
230.230118 10.359218 -54.318184 0.117792 0.977342 -0.175864 0.755398 0.424249
225.664154 12.590853 -47.719296 0.194783 0.936211 -0.292522 0.763344 0.597413
227.149063 12.589070 -46.247028 0.289699 0.937173 -0.194376 0.741615 0.600165
232.270203 10.358681 -52.648712 0.150018 0.977292 -0.149653 0.727985 0.426545
227.649307 12.588128 -45.321548 0.320808 0.937671 -0.133628 0.731030 0.603075
233.946014 10.358110 -50.612885 0.176556 0.977235 -0.117644 0.700905 0.431429
227.959671 12.587199 -44.315353 0.339431 0.938154 -0.068212 0.720760 0.606985
235.192886 10.357528 -48.288597 0.196377 0.977173 -0.081044 0.674405 0.438866
228.067673 12.586318 -43.267040 0.344991 0.938606 -0.000647 0.710905 0.611866
235.962479 10.356954 -45.764942 0.208701 0.977110 -0.041239 0.648727 0.448801
227.968643 12.585517 -42.217037 0.337398 0.939009 0.066515 0.701560 0.617679
236.224792 10.356411 -43.138859 0.213027 0.977046 0.000250 0.624111 0.461150
227.665939 12.584826 -41.206028 0.317045 0.939350 0.130784 0.692817 0.624375
235.969330 10.355918 -40.511383 0.209159 0.976987 0.041830 0.600788 0.475810
227.170929 12.584267 -40.273335 0.284771 0.939616 0.189809 0.684761 0.631894
235.205536 10.355493 -37.983761 0.197217 0.976934 0.081888 0.578979 0.492652
226.502548 12.583859 -39.455322 0.241827 0.939799 0.241450 0.677475 0.640166
233.962570 10.355150 -35.653507 0.177641 0.976891 0.118858 0.558894 0.511523
225.686630 12.583613 -38.783936 0.190093 0.939841 0.283838 0.671030 0.649113
232.288132 10.354900 -33.610588 0.151175 0.976861 0.151289 0.540724 0.532251
224.756332 12.582856 -38.281845 0.130339 0.940027 0.315216 0.665438 0.658622
229.081879 10.354700 -31.310949 0.102632 0.976014 0.191997 0.517724 0.566564
225.220871 12.583532 -38.534458 0.463541 -0.219110 0.858557 0.668258 0.653879
225.388489 10.354900 -29.922657 0.041795 0.976860 0.209754 0.499358 0.603565
227.916763 10.354750 -30.688560 0.081898 0.976841 0.197673 0.510812 0.578490
223.742569 12.584316 -37.982895 0.065951 0.939714 0.335541 0.660967 0.668705
230.246674 10.354750 -31.933918 0.118847 0.976846 0.177900 0.524644 0.554643
222.620911 9.200000 -22.995707 -0.001182 -0.080773 0.996732 0.024746 0.197978
230.230118 10.359218 -54.318184 0.117792 0.977342 -0.175864 0.421739 0.490592
222.620911 9.200000 -22.995707 -0.001182 -0.080773 0.996732 0.503159 0.111680
218.640503 9.200000 -23.387743 -0.196009 -0.080391 0.977301 0.526347 0.076976
214.813049 9.200000 -24.548784 -0.383227 -0.079907 0.920191 0.555860 0.047463
211.285660 9.200000 -26.434217 -0.555619 -0.079348 0.827642 0.590564 0.024274
208.193863 9.200000 -28.971581 -0.706559 -0.078736 0.703260 0.629124 0.008302
205.656509 9.200000 -32.063366 -0.830264 -0.078098 0.551872 0.670060 0.000159
203.771072 9.200000 -35.590759 -0.922014 -0.077458 0.379329 0.711798 0.000159
202.610031 9.200000 -39.418205 -0.978327 -0.076841 0.192281 0.752734 0.008302
202.218002 9.200000 -43.398617 -0.997085 -0.076270 -0.002081 0.791295 0.024274
202.610031 9.200000 -47.379028 -0.977611 -0.075765 -0.196305 0.825999 0.047462
203.771072 9.200000 -51.206474 -0.920687 -0.075338 -0.382961 0.855512 0.076975
205.656509 9.200000 -54.733868 -0.828520 -0.075010 -0.554913 0.878700 0.111679
208.193863 9.200000 -57.825653 -0.704653 -0.074784 -0.705600 0.894673 0.150240
211.285660 9.200000 -60.363022 -0.553832 -0.074669 -0.829274 0.902815 0.191176
214.813049 9.200000 -62.248451 -0.381822 -0.074669 -0.921215 0.902815 0.232914
218.640503 9.200000 -63.409492 -0.195201 -0.074783 -0.977908 0.894673 0.273850
222.620911 9.200000 -63.801529 -0.001092 -0.075008 -0.997182 0.878700 0.312411
226.601318 9.200000 -63.409492 0.193087 -0.075339 -0.978285 0.855512 0.347114
230.428757 9.200000 -62.248451 0.379910 -0.075765 -0.921916 0.825999 0.376628
233.956161 9.200000 -60.363018 0.552221 -0.076270 -0.830202 0.791295 0.399816
237.047943 9.200000 -57.825657 0.703406 -0.076841 -0.706623 0.752734 0.415788
239.585312 9.200000 -54.733871 0.827644 -0.077458 -0.555882 0.711799 0.423931
241.470734 9.200000 -51.206478 0.920135 -0.078098 -0.383735 0.670061 0.423931
242.631775 9.200000 -47.379028 0.977283 -0.078736 -0.196772 0.629125 0.415788
243.023819 9.200000 -43.398617 0.996845 -0.079348 -0.002167 0.590564 0.399816
242.631775 9.200000 -39.418205 0.978021 -0.079907 0.192589 0.555860 0.376628
241.470734 9.200000 -35.590759 0.921494 -0.080390 0.379983 0.526347 0.347114
239.585312 9.200000 -32.063370 0.829409 -0.080771 0.552772 0.503159 0.312411
237.047943 9.200000 -28.971584 0.705299 -0.081037 0.704263 0.487186 0.273850
233.956161 9.200000 -26.434217 0.553945 -0.081178 0.828586 0.479044 0.232914
230.230118 10.359218 -54.318184 0.117792 0.977342 -0.175864 0.755607 0.999841
3 0 1 2
3 3 4 5
3 6 7 3
3 8 9 6
3 10 11 8
3 12 13 10
3 14 15 12
3 16 17 14
3 18 19 16
3 20 21 18
3 22 23 20
3 24 25 22
3 26 27 24
3 28 29 26
3 28 30 31
3 32 33 30
3 34 35 33
3 36 37 35
3 38 39 37
3 40 41 42
3 43 44 41
3 45 46 44
3 47 48 46
3 49 50 48
3 51 52 50
3 53 54 52
3 55 56 54
3 57 58 56
3 59 60 58
3 61 62 60
3 63 1 64
3 65 66 67
3 68 69 65
3 70 71 72
3 73 1 74
3 75 1 76
3 77 1 78
3 2 1 79
3 64 1 80
3 74 1 81
3 76 1 82
3 78 1 83
3 80 1 84
3 81 1 85
3 86 1 87
3 82 88 89
3 83 1 90
3 84 1 91
3 85 1 92
3 87 1 93
3 88 1 0
3 90 1 94
3 91 1 95
3 92 1 96
3 93 1 97
3 94 1 98
3 95 1 99
3 96 1 100
3 97 1 101
3 79 1 86
3 98 1 63
3 102 1 73
3 67 62 103
3 100 1 75
3 101 1 77
3 104 105 106
3 107 108 105
3 109 110 108
3 111 112 110
3 113 114 112
3 115 116 114
3 117 118 116
3 119 120 118
3 121 122 120
3 123 124 122
3 125 126 124
3 127 128 126
3 129 130 128
3 131 130 132
3 133 134 131
3 135 136 133
3 137 138 135
3 139 140 137
3 141 142 139
3 143 144 145
3 146 147 143
3 148 149 146
3 150 151 148
3 152 153 150
3 154 155 152
3 156 157 154
3 158 159 156
3 160 161 158
3 162 163 160
3 164 165 166
3 164 167 168
3 169 106 167
3 162 165 170
3 5 171 68
3 3 7 4
3 6 9 7
3 8 11 9
3 10 13 11
3 12 15 13
3 14 17 15
3 16 19 17
3 18 21 19
3 20 23 21
3 22 25 23
3 24 27 25
3 26 29 27
3 28 31 29
3 28 32 30
3 32 34 33
3 34 36 35
3 36 38 37
3 38 172 39
3 40 43 41
3 43 45 44
3 45 47 46
3 47 49 48
3 49 51 50
3 51 53 52
3 53 55 54
3 55 57 56
3 57 59 58
3 59 61 60
3 61 103 62
3 65 69 66
3 68 171 69
3 72 173 70
3 173 174 70
3 174 175 70
3 175 176 70
3 176 177 70
3 177 178 70
3 178 179 70
3 179 180 70
3 180 181 70
3 181 182 70
3 182 183 70
3 183 184 70
3 184 185 70
3 185 186 70
3 186 187 70
3 187 188 70
3 188 189 70
3 189 190 70
3 190 191 70
3 191 192 70
3 192 193 70
3 193 194 70
3 194 195 70
3 195 196 70
3 196 197 70
3 197 198 70
3 198 199 70
3 199 200 70
3 200 201 70
3 201 202 70
3 82 1 88
3 67 66 62
3 104 107 105
3 107 109 108
3 109 111 110
3 111 113 112
3 113 115 114
3 115 117 116
3 117 119 118
3 119 121 120
3 121 123 122
3 123 125 124
3 125 127 126
3 127 129 128
3 129 132 130
3 131 134 130
3 133 136 134
3 135 138 136
3 137 140 138
3 139 142 140
3 141 203 142
3 143 147 144
3 146 149 147
3 148 151 149
3 150 153 151
3 152 155 153
3 154 157 155
3 156 159 157
3 158 161 159
3 160 163 161
3 162 170 163
3 164 168 165
3 164 169 167
3 169 104 106
3 162 166 165
3 5 4 171
