ply
format ascii 1.0
comment Created by Blender 3.1.2 - www.blender.org
element vertex 84
property float x
property float y
property float z
property float nx
property float ny
property float nz
property float s
property float t
element face 82
property list uchar uint vertex_indices
end_header
206.458771 37.000000 105.786148 0.555836 0.550850 0.622584 0.254120 0.791260
170.266968 33.000000 118.244431 0.406623 -0.824811 0.392867 0.189067 0.566830
206.458771 33.000000 105.786148 0.518307 -0.629300 0.579085 0.254120 0.566830
170.266968 37.000000 118.244431 0.378629 0.795900 0.472422 0.405512 0.288895
162.592239 33.000000 143.310455 0.321688 -0.568801 0.756956 0.542390 0.481520
170.266968 33.000000 118.244431 0.406623 -0.824811 0.392867 0.500411 0.500359
162.592239 37.000000 143.310455 0.321688 0.568801 0.756956 0.455919 0.295225
132.541626 33.000000 128.046555 -0.486823 -0.658539 0.573872 0.609206 0.445235
132.541626 37.000000 128.046555 -0.486823 0.658539 0.573872 0.481219 0.240591
112.986603 33.000000 101.436363 -0.791105 -0.564145 -0.236419 0.564664 0.030468
132.541626 33.000000 128.046555 -0.486823 -0.658539 0.573872 0.609206 0.062474
112.986603 37.000000 101.436363 -0.791105 0.564145 -0.236419 0.458253 0.186713
138.653259 33.000000 91.885025 -0.410349 -0.879043 -0.242686 0.515258 0.000230
110.833641 37.000000 87.523560 -0.552692 0.567758 0.610067 0.660116 0.298558
112.579826 33.000000 51.525368 -0.720649 -0.652401 -0.234600 0.811298 0.445059
110.833641 33.000000 87.523560 -0.552692 -0.567758 0.610067 0.740523 0.482126
112.579826 37.000000 51.525368 -0.720649 0.652402 -0.234600 0.687069 0.242068
129.056610 33.000000 26.429615 -0.095329 -0.568630 -0.817051 0.769126 0.028325
112.579826 33.000000 51.525368 -0.720649 -0.652401 -0.234600 0.811298 0.056568
137.429321 33.000000 83.583458 -0.254086 -0.904616 0.342214 0.370355 0.791260
138.653259 37.000000 91.885025 -0.489246 0.851056 -0.190636 0.356094 0.566830
137.429321 37.000000 83.583458 -0.363427 0.871084 0.330354 0.370355 0.566830
171.936951 37.000000 4.506142 -0.079808 0.656428 -0.750155 0.691408 0.767972
203.333221 33.000000 8.888855 0.702308 -0.567748 -0.429448 0.759561 0.527189
171.936951 33.000000 4.506142 -0.079808 -0.656428 -0.750155 0.810501 0.555779
203.333221 37.000000 8.888855 0.702308 0.567749 -0.429448 0.660009 0.714344
194.598907 33.000000 34.022305 0.356872 -0.914251 -0.191800 0.703677 0.500560
194.598907 37.000000 34.022305 0.360374 0.880554 -0.307824 0.355633 0.791261
203.065964 33.000000 36.184513 -0.189793 -0.870209 -0.454658 0.340781 0.566830
194.598907 33.000000 34.022305 0.356872 -0.914251 -0.191800 0.355633 0.566830
203.065964 37.000000 36.184513 -0.127234 0.840869 -0.526072 0.405512 0.788231
215.148132 33.000000 15.557449 -0.097391 -0.564269 -0.819826 0.535730 0.974759
203.065964 33.000000 36.184513 -0.189793 -0.870209 -0.454658 0.498903 0.991666
215.148132 37.000000 15.557449 -0.097391 0.564269 -0.819826 0.450841 0.794955
238.848129 33.000000 40.177853 0.650389 -0.657757 -0.379934 0.602280 0.937514
238.848129 37.000000 40.177853 0.650389 0.657757 -0.379934 0.473819 0.739840
247.235901 33.000000 68.179901 0.677959 -0.566646 0.468278 0.561633 0.527782
238.848129 33.000000 40.177853 0.650389 -0.657757 -0.379934 0.602280 0.556219
140.200165 33.000000 16.115379 -0.792111 -0.563469 -0.234654 0.764847 0.976846
140.200165 37.000000 16.115379 -0.792111 0.563469 -0.234654 0.668806 0.825227
247.235901 37.000000 68.179901 0.677959 0.566646 0.468278 0.452206 0.690959
223.464966 33.000000 69.866272 0.306226 -0.840018 0.447879 0.517810 0.500820
223.464966 37.000000 69.866272 0.395208 0.811197 0.431011 0.321665 0.791260
223.464966 33.000000 69.866272 0.306226 -0.840018 0.447879 0.321665 0.566830
137.429321 37.000000 83.583458 -0.363427 0.871084 0.330354 0.609666 0.290988
137.429321 33.000000 83.583458 -0.254086 -0.904616 0.342214 0.697948 0.500100
129.056610 37.000000 26.429615 -0.095329 0.568630 -0.817051 0.663487 0.193081
148.040726 33.000000 44.383934 0.027875 -0.883417 -0.467757 0.720869 0.000230
148.040726 37.000000 44.383934 -0.057047 0.853766 -0.517522 0.322125 0.566830
156.637314 33.000000 38.003658 -0.420596 -0.905193 -0.061031 0.340320 0.791260
148.040726 33.000000 44.383934 0.027875 -0.883417 -0.467757 0.322125 0.791260
156.637314 37.000000 38.003658 -0.454989 0.875706 -0.161628 0.617015 0.820086
137.429321 33.000000 83.583458 -0.254086 -0.904616 0.342214 0.081330 0.743552
148.040726 33.000000 44.383934 0.027875 -0.883417 -0.467757 0.044582 0.685128
156.637314 33.000000 38.003658 -0.420596 -0.905193 -0.061031 0.046516 0.667036
180.990799 47.000000 74.755699 0.010298 0.999936 0.004610 0.000000 0.000000
170.266968 37.000000 118.244431 0.378629 0.795900 0.472422 0.189067 0.791260
138.653259 37.000000 91.885025 -0.489246 0.851056 -0.190636 0.410598 0.194197
223.464966 37.000000 69.866272 0.395208 0.811197 0.431011 0.409112 0.696748
194.598907 37.000000 34.022305 0.360374 0.880554 -0.307824 0.609666 0.726229
148.040726 37.000000 44.383934 -0.057047 0.853766 -0.517522 0.617303 0.199630
138.653259 33.000000 91.885025 -0.410349 -0.879043 -0.242686 0.356094 0.791260
203.065964 37.000000 36.184513 -0.127234 0.840869 -0.526072 0.340781 0.791261
171.936951 33.000000 4.506142 -0.079808 -0.656428 -0.750155 0.810501 0.946369
156.637314 37.000000 38.003658 -0.454989 0.875706 -0.161628 0.340320 0.566830
156.637314 33.000000 38.003658 -0.420596 -0.905193 -0.061031 0.727601 0.999770
170.266968 33.000000 118.244431 0.406623 -0.824811 0.392867 0.162471 0.742462
162.592239 33.000000 143.310455 0.321688 -0.568801 0.756956 0.184945 0.780932
132.541626 33.000000 128.046555 -0.486823 -0.658539 0.573872 0.131249 0.800889
112.986603 33.000000 101.436363 -0.791105 -0.564145 -0.236419 0.075472 0.794660
138.653259 33.000000 91.885025 -0.410349 -0.879043 -0.242686 0.093112 0.751588
110.833641 33.000000 87.523560 -0.552692 -0.567758 0.610067 0.055609 0.781319
112.579826 33.000000 51.525368 -0.720649 -0.652401 -0.234600 0.012646 0.737660
129.056610 33.000000 26.429615 -0.095329 -0.568630 -0.817051 0.000277 0.688159
223.464966 33.000000 69.866272 0.306226 -0.840018 0.447879 0.163324 0.620256
206.458771 33.000000 105.786148 0.518307 -0.629300 0.579085 0.188607 0.682891
194.598907 33.000000 34.022305 0.356872 -0.914251 -0.191800 0.085282 0.615021
238.848129 33.000000 40.177853 0.650389 -0.657757 -0.379934 0.143957 0.566830
247.235901 33.000000 68.179901 0.677959 -0.566646 0.468278 0.188607 0.588615
203.065964 33.000000 36.184513 -0.189793 -0.870209 -0.454658 0.097739 0.606934
215.148132 33.000000 15.557449 -0.097391 -0.564269 -0.819826 0.085890 0.568072
171.936951 33.000000 4.506142 -0.079808 -0.656428 -0.750155 0.022294 0.609325
203.333221 33.000000 8.888855 0.702308 -0.567748 -0.429448 0.063945 0.575149
140.200165 33.000000 16.115379 -0.792111 -0.563469 -0.234654 0.000230 0.662352
3 0 1 2
3 3 4 5
3 6 7 4
3 8 9 10
3 11 12 9
3 13 14 15
3 16 17 18
3 19 20 21
3 22 23 24
3 25 26 23
3 27 28 29
3 30 31 32
3 33 34 31
3 35 36 37
3 22 38 39
3 40 41 36
3 42 2 43
3 44 15 45
3 46 47 17
3 48 49 50
3 38 51 39
3 52 53 54
3 0 55 56
3 57 11 8
3 58 40 35
3 59 22 51
3 60 46 16
3 42 55 0
3 55 42 30
3 27 55 30
3 55 27 51
3 51 48 55
3 55 48 44
3 20 55 44
3 55 20 3
3 0 56 1
3 3 6 4
3 6 8 7
3 8 11 9
3 11 57 12
3 13 16 14
3 16 46 17
3 19 61 20
3 22 25 23
3 25 59 26
3 27 62 28
3 30 33 31
3 33 35 34
3 35 40 36
3 22 63 38
3 40 58 41
3 42 0 2
3 44 13 15
3 46 60 47
3 48 64 49
3 38 65 51
3 66 67 68
3 68 69 70
3 52 71 72
3 66 68 70
3 52 72 53
3 72 73 53
3 66 70 52
3 74 75 76
3 75 66 52
3 77 78 74
3 79 80 77
3 81 82 76
3 79 77 74
3 83 81 54
3 81 76 54
3 76 79 74
3 75 52 54
3 76 75 54
3 8 6 3
3 3 57 8
3 35 33 30
3 30 58 35
3 25 22 59
3 22 39 51
3 13 44 16
3 44 60 16
