ply
format ascii 1.0
comment Created by Blender 3.1.2 - www.blender.org
element vertex 134
property float x
property float y
property float z
property float nx
property float ny
property float nz
property float s
property float t
element face 100
property list uchar uint vertex_indices
end_header
151.442978 13.200001 144.808594 -0.478064 -0.855711 0.198021 0.012263 0.725670
179.133911 13.200001 155.414627 0.453621 -0.577350 0.678892 0.000296 0.795627
150.467529 13.200001 149.712524 -0.678892 -0.577350 0.453621 0.000296 0.725670
151.442978 33.200001 144.808594 -0.478064 0.855711 0.198021 0.718068 0.515206
127.140793 13.200001 128.570404 -0.527645 -0.665719 0.527645 0.359477 0.585163
151.442978 13.200001 144.808594 -0.478064 -0.855711 0.198021 0.359477 0.515206
127.140793 33.200001 128.570404 -0.527645 0.665719 0.527645 0.718068 0.585163
110.902596 13.200001 104.268219 -0.198021 -0.855712 0.478064 0.359477 0.655121
105.200493 13.200001 75.601837 -0.365895 -0.855712 -0.365895 0.905222 0.358887
100.296570 33.200001 76.577286 -0.678892 0.577350 -0.453621 0.893254 0.000295
105.200493 33.200001 75.601837 -0.365894 0.855712 -0.365895 0.905221 0.000295
105.200493 33.200001 75.601837 -0.365894 0.855712 -0.365895 0.359477 0.514615
110.902588 13.200001 46.935455 -0.689401 -0.665719 -0.285559 0.718068 0.444657
105.200493 13.200001 75.601837 -0.365895 -0.855712 -0.365895 0.718068 0.514615
110.902588 33.200001 46.935455 -0.689401 0.665719 -0.285559 0.359477 0.444658
127.140793 13.200001 22.633270 -0.517453 -0.855711 -0.000000 0.718068 0.374700
127.140793 33.200001 22.633270 -0.517453 0.855711 -0.000000 0.351996 0.222181
148.665115 33.200001 2.237724 0.159290 0.577350 -0.800808 0.363964 0.152224
124.362946 33.200001 18.475918 -0.800808 0.577350 -0.159291 0.363964 0.222181
151.442978 33.200001 6.395073 0.198020 0.855711 -0.478065 0.359477 0.795627
180.109360 13.200001 0.692970 -0.000000 -0.665719 -0.746203 0.718068 0.725669
151.442978 13.200001 6.395073 0.198020 -0.855711 -0.478065 0.718068 0.795627
180.109360 33.200001 0.692970 0.000000 0.665719 -0.746203 0.359477 0.725670
208.775742 13.200001 6.395073 -0.198021 -0.855712 -0.478064 0.718068 0.655712
233.077927 33.200001 22.633266 0.517453 0.855711 -0.000000 0.211125 0.011352
211.553589 33.200001 2.237724 -0.159291 0.577350 -0.800808 0.280337 0.027067
208.775742 33.200001 6.395073 -0.198021 0.855712 -0.478064 0.275757 0.038124
233.077927 33.200001 22.633266 0.517453 0.855711 -0.000000 0.000296 0.725079
249.316132 13.200001 46.935444 0.689402 -0.665719 -0.285559 0.358887 0.655121
233.077927 13.200001 22.633266 0.517453 -0.855711 -0.000000 0.358887 0.725079
249.316132 33.200001 46.935444 0.689401 0.665719 -0.285559 0.000295 0.655121
255.018219 13.200001 75.601837 0.365895 -0.855712 -0.365894 0.358886 0.585163
249.316132 33.200001 104.268234 0.198021 0.855711 0.478064 0.027067 0.087591
259.922150 33.200001 76.577293 0.678892 0.577350 -0.453621 0.068072 0.029661
255.018219 33.200001 75.601837 0.365895 0.855711 -0.365895 0.076534 0.038124
249.316132 33.200001 104.268234 0.198021 0.855711 0.478064 0.358886 0.374700
233.077942 13.200001 128.570404 0.527645 -0.665719 0.527645 0.000295 0.444658
249.316132 13.200001 104.268234 0.198021 -0.855711 0.478065 0.000295 0.374700
180.109360 33.200001 0.692970 0.000000 0.665719 -0.746203 0.325224 0.087591
127.140793 33.200001 128.570404 -0.527645 0.665719 0.527645 0.141167 0.363053
233.077942 33.200001 128.570404 0.527645 0.665719 0.527645 0.358886 0.444658
208.775742 13.200001 144.808609 0.285559 -0.665719 0.689401 0.000295 0.514615
208.775742 33.200001 144.808609 0.285559 0.665719 0.689401 0.358886 0.514615
180.109360 13.200001 150.510712 0.365895 -0.855711 0.365895 0.000295 0.584573
110.902596 13.200001 104.268219 -0.198021 -0.855712 0.478064 0.716255 0.141167
151.442978 13.200001 6.395073 0.198020 -0.855711 -0.478065 0.575384 0.351996
249.316132 13.200001 46.935444 0.689402 -0.665719 -0.285559 0.364554 0.211125
124.362946 33.200001 18.475918 -0.800808 0.577350 -0.159291 0.730626 0.374700
148.665115 13.200001 2.237724 0.159290 -0.577350 -0.800808 0.800584 0.733291
124.362946 13.200001 18.475918 -0.800808 -0.577350 -0.159291 0.730626 0.733292
127.140793 33.200001 22.633270 -0.517453 0.855711 -0.000000 0.718659 0.374700
127.140793 13.200001 22.633270 -0.517453 -0.855711 -0.000000 0.718659 0.733292
151.442978 13.200001 6.395073 0.198020 -0.855711 -0.478065 0.812551 0.733292
148.665115 33.200001 2.237724 0.159290 0.577350 -0.800808 0.800584 0.374700
151.442978 33.200001 6.395073 0.198020 0.855711 -0.478065 0.812551 0.374700
127.140793 13.200001 22.633270 -0.517453 -0.855711 -0.000000 0.024821 0.795627
148.665115 13.200001 2.237724 0.159290 -0.577350 -0.800808 0.012854 0.725670
151.442978 13.200001 6.395073 0.198020 -0.855711 -0.478065 0.024821 0.725670
105.998665 33.200001 105.243668 -0.453621 0.577350 0.678892 0.823296 0.000295
100.296570 13.200001 76.577286 -0.678892 -0.577350 -0.453621 0.893254 0.358887
105.998665 13.200001 105.243668 -0.453621 -0.577350 0.678892 0.823296 0.358887
110.902596 13.200001 104.268219 -0.198021 -0.855712 0.478064 0.435103 0.364554
100.296570 13.200001 76.577286 -0.678892 -0.577350 -0.453621 0.505060 0.352587
105.200493 13.200001 75.601837 -0.365895 -0.855712 -0.365895 0.505060 0.364554
105.200493 33.200001 75.601837 -0.365894 0.855712 -0.365895 0.275757 0.336281
105.998665 33.200001 105.243668 -0.453621 0.577350 0.678892 0.215704 0.374109
110.902596 33.200001 104.268219 -0.198021 0.855711 0.478064 0.211124 0.363053
110.902596 33.200001 104.268219 -0.198021 0.855711 0.478064 0.811329 0.000295
110.902596 13.200001 104.268219 -0.198021 -0.855712 0.478064 0.811329 0.358887
179.133911 33.200001 155.414627 0.453621 0.577350 0.678892 0.987737 0.358887
150.467529 13.200001 149.712524 -0.678892 -0.577350 0.453621 0.917780 0.000295
179.133911 13.200001 155.414627 0.453621 -0.577350 0.678892 0.987737 0.000295
151.442978 13.200001 144.808594 -0.478064 -0.855711 0.198021 0.905812 0.000295
150.467529 33.200001 149.712524 -0.678892 0.577350 0.453621 0.917779 0.358887
151.442978 33.200001 144.808594 -0.478064 0.855711 0.198021 0.905812 0.358887
151.442978 33.200001 144.808594 -0.478064 0.855711 0.198021 0.076534 0.336281
179.133911 33.200001 155.414627 0.453621 0.577350 0.678892 0.018605 0.295276
180.109360 33.200001 150.510712 0.365895 0.855712 0.365895 0.027067 0.286814
180.109360 33.200001 150.510712 0.365895 0.855712 0.365895 0.999705 0.358887
180.109360 13.200001 150.510712 0.365895 -0.855711 0.365895 0.999704 0.000295
211.553589 33.200001 2.237724 -0.159291 0.577350 -0.800808 0.825109 0.374700
235.855774 13.200001 18.475918 0.800808 -0.577350 -0.159291 0.895067 0.733291
211.553589 13.200001 2.237724 -0.159291 -0.577350 -0.800808 0.825109 0.733291
208.775742 33.200001 6.395073 -0.198021 0.855712 -0.478064 0.813142 0.374700
208.775742 13.200001 6.395073 -0.198021 -0.855712 -0.478064 0.813142 0.733291
233.077927 13.200001 22.633266 0.517453 -0.855711 -0.000000 0.907035 0.733291
235.855774 33.200001 18.475918 0.800808 0.577350 -0.159291 0.895067 0.374700
233.077927 33.200001 22.633266 0.517453 0.855711 -0.000000 0.907034 0.374700
233.077927 13.200001 22.633266 0.517453 -0.855711 -0.000000 0.037379 0.725670
211.553589 13.200001 2.237724 -0.159291 -0.577350 -0.800808 0.025412 0.795627
235.855774 13.200001 18.475918 0.800808 -0.577350 -0.159291 0.025412 0.725670
259.922150 33.200001 76.577293 0.678892 0.577350 -0.453621 0.728813 0.000295
254.220047 13.200001 105.243683 0.453621 -0.577350 0.678892 0.798771 0.358887
259.922150 13.200001 76.577293 0.678892 -0.577350 -0.453621 0.728813 0.358887
255.018219 33.200001 75.601837 0.365895 0.855711 -0.365895 0.716845 0.000295
255.018219 13.200001 75.601837 0.365895 -0.855712 -0.365894 0.716846 0.358887
249.316132 13.200001 104.268234 0.198021 -0.855711 0.478065 0.810738 0.358887
254.220047 33.200001 105.243683 0.453621 0.577350 0.678892 0.798771 0.000295
249.316132 33.200001 104.268234 0.198021 0.855711 0.478064 0.810738 0.000295
249.316132 13.200001 104.268234 0.198021 -0.855711 0.478065 0.364554 0.352587
259.922150 13.200001 76.577293 0.678892 -0.577350 -0.453621 0.434512 0.364554
254.220047 13.200001 105.243683 0.453621 -0.577350 0.678892 0.364554 0.364554
180.109360 13.200001 150.510712 0.365895 -0.855711 0.365895 0.012263 0.795627
110.902596 33.200001 104.268219 -0.198021 0.855711 0.478064 0.718068 0.655121
127.140793 33.200001 22.633270 -0.517453 0.855711 -0.000000 0.359477 0.374700
151.442978 33.200001 6.395073 0.198020 0.855711 -0.478065 0.351996 0.152224
208.775742 33.200001 6.395073 -0.198021 0.855712 -0.478064 0.359477 0.655712
235.855774 33.200001 18.475918 0.800808 0.577350 -0.159291 0.215704 0.000296
255.018219 33.200001 75.601837 0.365895 0.855711 -0.365895 0.000295 0.585164
254.220047 33.200001 105.243683 0.453621 0.577350 0.678892 0.018604 0.079129
208.775742 33.200001 144.808609 0.285559 0.665719 0.689401 0.000295 0.222181
233.077942 33.200001 128.570404 0.527645 0.665719 0.527645 0.000295 0.152224
249.316132 33.200001 46.935444 0.689401 0.665719 -0.285559 0.141167 0.011352
110.902588 33.200001 46.935455 -0.689401 0.665719 -0.285559 0.325224 0.286814
180.109360 33.200001 150.510712 0.365895 0.855712 0.365895 0.358886 0.584573
208.775742 13.200001 144.808609 0.285559 -0.665719 0.689401 0.505426 0.000295
180.109360 13.200001 150.510712 0.365895 -0.855711 0.365895 0.575383 0.000295
151.442978 13.200001 144.808594 -0.478064 -0.855711 0.198021 0.640016 0.027067
127.140793 13.200001 128.570404 -0.527645 -0.665719 0.527645 0.689483 0.076534
105.200493 13.200001 75.601837 -0.365895 -0.855712 -0.365895 0.716255 0.211124
110.902588 13.200001 46.935455 -0.689401 -0.665719 -0.285559 0.689484 0.275757
127.140793 13.200001 22.633270 -0.517453 -0.855711 -0.000000 0.640016 0.325225
180.109360 13.200001 0.692970 -0.000000 -0.665719 -0.746203 0.505426 0.351996
208.775742 13.200001 6.395073 -0.198021 -0.855712 -0.478064 0.440793 0.325224
233.077927 13.200001 22.633266 0.517453 -0.855711 -0.000000 0.391326 0.275757
255.018219 13.200001 75.601837 0.365895 -0.855712 -0.365894 0.364554 0.141167
249.316132 13.200001 104.268234 0.198021 -0.855711 0.478065 0.391326 0.076535
233.077942 13.200001 128.570404 0.527645 -0.665719 0.527645 0.440793 0.027067
124.362946 13.200001 18.475918 -0.800808 -0.577350 -0.159291 0.012854 0.795627
105.998665 13.200001 105.243668 -0.453621 -0.577350 0.678892 0.435103 0.352587
100.296570 33.200001 76.577286 -0.678892 0.577350 -0.453621 0.280337 0.347338
150.467529 33.200001 149.712524 -0.678892 0.577350 0.453621 0.068072 0.344743
208.775742 13.200001 6.395073 -0.198021 -0.855712 -0.478064 0.037379 0.795627
255.018219 13.200001 75.601837 0.365895 -0.855712 -0.365894 0.434512 0.352587
3 0 1 2
3 3 4 5
3 6 7 4
3 8 9 10
3 11 12 13
3 14 15 12
3 16 17 18
3 19 20 21
3 22 23 20
3 24 25 26
3 27 28 29
3 30 31 28
3 32 33 34
3 35 36 37
3 38 16 39
3 40 41 36
3 42 43 41
3 44 45 46
3 47 48 49
3 50 49 51
3 52 53 54
3 55 56 57
3 58 59 60
3 61 62 63
3 64 65 66
3 67 60 68
3 69 70 71
3 72 73 74
3 75 76 77
3 78 71 79
3 80 81 82
3 83 82 84
3 85 86 87
3 88 89 90
3 91 92 93
3 94 93 95
3 96 97 98
3 99 100 101
3 0 102 1
3 3 6 4
3 6 103 7
3 8 59 9
3 11 14 12
3 14 104 15
3 16 105 17
3 19 22 20
3 22 106 23
3 24 107 25
3 27 30 28
3 30 108 31
3 32 109 33
3 35 40 36
3 39 75 77
3 77 110 111
3 111 32 34
3 34 112 24
3 24 26 38
3 38 105 16
3 16 113 64
3 64 66 16
3 66 39 16
3 39 77 111
3 111 34 39
3 34 24 39
3 24 38 39
3 40 42 41
3 42 114 43
3 115 116 44
3 116 117 44
3 117 118 44
3 44 119 120
3 120 121 45
3 45 122 123
3 123 124 46
3 46 125 126
3 126 127 46
3 127 115 46
3 44 120 45
3 45 123 46
3 115 44 46
3 47 53 48
3 50 47 49
3 52 48 53
3 55 128 56
3 58 9 59
3 61 129 62
3 64 130 65
3 67 58 60
3 69 73 70
3 72 70 73
3 75 131 76
3 78 69 71
3 80 86 81
3 83 80 82
3 85 81 86
3 88 132 89
3 91 97 92
3 94 91 93
3 96 92 97
3 99 133 100
