ply
format ascii 1.0
comment Created by Blender 3.1.2 - www.blender.org
element vertex 14
property float x
property float y
property float z
property float nx
property float ny
property float nz
property float s
property float t
element face 6
property list uchar uint vertex_indices
end_header
125.213799 0.200000 -57.070732 0.577350 -0.577350 -0.577350 0.375000 0.000000
125.213799 6.200000 -57.070732 0.577350 0.577350 -0.577350 0.625000 0.000000
125.213799 6.200000 -17.585573 0.577350 0.577350 0.577350 0.625000 0.250000
125.213799 0.200000 -17.585573 0.577350 -0.577350 0.577350 0.375000 0.250000
116.538261 6.200000 -17.585573 -0.577350 0.577350 0.577350 0.625000 0.500000
116.538261 0.200000 -17.585573 -0.577350 -0.577350 0.577350 0.375000 0.500000
116.538261 6.200000 -57.070732 -0.577350 0.577350 -0.577350 0.625000 0.750000
116.538261 0.200000 -57.070732 -0.577350 -0.577350 -0.577350 0.375000 0.750000
125.213799 6.200000 -57.070732 0.577350 0.577350 -0.577350 0.625000 1.000000
125.213799 0.200000 -57.070732 0.577350 -0.577350 -0.577350 0.375000 1.000000
125.213799 0.200000 -17.585573 0.577350 -0.577350 0.577350 0.125000 0.500000
125.213799 0.200000 -57.070732 0.577350 -0.577350 -0.577350 0.125000 0.750000
125.213799 6.200000 -17.585573 0.577350 0.577350 0.577350 0.875000 0.500000
125.213799 6.200000 -57.070732 0.577350 0.577350 -0.577350 0.875000 0.750000
4 0 1 2 3
4 3 2 4 5
4 5 4 6 7
4 7 6 8 9
4 10 5 7 11
4 4 12 13 6
