ply
format ascii 1.0
comment Created by Blender 3.1.2 - www.blender.org
element vertex 177
property float x
property float y
property float z
property float nx
property float ny
property float nz
property float s
property float t
element face 236
property list uchar uint vertex_indices
end_header
1.483772 5.471493 -0.323311 0.944398 -0.116710 -0.307395 0.264467 0.347203
1.178242 6.409053 -0.669542 0.856129 0.362710 0.368082 0.221861 0.418540
1.474666 5.467826 0.461340 0.874614 0.128250 0.467548 0.233318 0.273887
0.532369 6.409053 -0.450923 -0.371067 0.084492 0.924754 0.262986 0.812378
0.179263 5.467826 0.409020 -0.806761 0.488091 0.333023 0.410090 0.885874
0.534757 5.467826 0.853212 -0.288255 0.423140 0.858989 0.409378 0.950491
0.209433 6.409053 -0.720588 -0.911329 -0.308668 0.272403 0.259788 0.707096
0.253149 5.467826 -0.091224 -0.952138 0.169827 -0.254151 0.377610 0.808751
1.026262 5.471491 -0.615780 0.350715 -0.277268 -0.894495 0.326249 0.403432
1.274608 6.416252 -1.098792 0.868464 0.121870 -0.480539 0.259739 0.457617
-0.333333 0.046077 1.000000 -0.386543 -0.616414 0.686016 0.589417 0.898258
-0.579666 0.046077 -0.210041 -0.639207 -0.748791 -0.175290 0.586034 0.841540
-0.333333 0.046077 -1.000000 -0.474694 -0.712898 -0.516180 0.606413 0.799324
2.100045 8.371341 -1.758138 0.889437 -0.435445 0.138885 0.777039 0.084089
2.348532 9.291188 -2.295296 0.180258 0.281544 -0.942465 0.737776 0.012932
2.456510 9.278831 -2.181777 0.976739 0.203331 -0.068106 0.759357 0.009885
0.639574 7.799469 -0.360457 0.748738 0.523274 -0.406910 0.117938 0.469387
0.636410 7.810999 0.349004 0.811226 0.228107 0.538405 0.059581 0.415444
0.212388 7.811174 0.636292 0.260458 -0.030415 0.965006 0.062860 0.851960
-0.193886 7.828271 0.647308 -0.322371 -0.122237 0.938688 0.060398 0.818262
0.920819 0.046077 0.426450 0.622149 -0.716827 0.314785 0.512866 0.110436
0.333333 0.046077 -1.000000 0.156881 -0.807052 -0.569258 0.666224 0.207222
0.940255 0.046077 -0.624011 0.582415 -0.764594 -0.276021 0.571970 0.197637
0.333333 0.046077 -1.000000 0.156881 -0.807052 -0.569258 0.666224 0.779678
0.333333 0.046077 1.000000 0.255713 -0.661689 0.704826 0.621283 0.942333
0.209433 6.409053 -1.150059 -0.756536 -0.406763 -0.512052 0.227530 0.619662
0.534757 5.467826 -0.615406 -0.494549 -0.120329 -0.860780 0.375717 0.680795
0.859280 6.416463 -1.420487 0.314710 -0.037348 -0.948453 0.281404 0.530221
1.026262 5.471491 -0.615780 0.350715 -0.277268 -0.894495 0.389928 0.578930
0.855306 6.409053 -0.450923 0.362727 0.247154 0.898523 0.167424 0.384820
1.024296 5.467826 0.853212 0.375880 0.270045 0.886448 0.193221 0.209151
0.855306 6.409053 -0.450923 0.362727 0.247154 0.898523 0.256790 0.868538
1.024296 5.467826 0.853212 0.375880 0.270045 0.886448 0.376625 0.999840
-0.587792 7.857160 0.311695 -0.941777 0.007370 0.336156 0.062997 0.791428
-0.426842 7.641387 -0.360708 -0.878155 0.465716 0.109326 0.052890 0.744137
-0.588947 7.395434 -0.490576 -0.926457 -0.361735 0.104045 0.071444 0.732433
0.154401 8.267708 0.370903 0.506133 0.612150 0.607537 0.001257 0.441016
0.212388 7.811174 0.636292 0.260458 -0.030415 0.965006 0.000160 0.388885
-1.377513 9.434072 -1.438671 -0.010597 0.527629 0.849409 0.803661 0.392965
-1.608747 9.884998 -1.763306 0.418356 0.857194 -0.300326 0.809814 0.346548
-1.652410 9.884113 -1.715003 -0.254118 0.852715 0.456400 0.816545 0.349313
-0.300961 7.324226 -0.951257 -0.437508 -0.038809 -0.898377 0.121004 0.653269
0.532369 6.409053 -1.419732 -0.232959 -0.160590 -0.959136 0.257689 0.569484
0.041493 7.743962 -0.704051 0.145741 0.525032 -0.838511 0.105706 0.572672
2.345410 9.353012 -2.116793 0.332164 0.822333 0.461990 0.713528 0.016573
2.456510 9.278831 -2.181777 0.976739 0.203331 -0.068106 0.720626 0.000160
1.748378 8.721742 -1.512487 0.129856 0.553258 0.822827 0.673792 0.122477
2.274504 9.362003 -2.190508 -0.356437 0.888551 -0.288842 0.724674 0.024979
1.564682 8.742764 -1.705608 -0.755884 0.640240 -0.136864 0.705898 0.129531
1.818863 8.403521 -2.053749 -0.107380 -0.342542 -0.933346 0.737541 0.092060
2.345410 9.353012 -2.116793 0.332164 0.822333 0.461990 0.774115 0.019510
1.748378 8.721742 -1.512487 0.129856 0.553258 0.822827 0.816176 0.117900
0.873399 6.963530 -0.926214 0.810326 0.243839 -0.532835 0.211157 0.488448
0.591043 7.352971 -0.550594 0.151479 0.848694 -0.506727 0.144295 0.493008
0.673067 6.997392 -1.132757 0.061988 0.213440 -0.974988 0.218934 0.528708
0.387501 7.370544 -0.758943 0.267279 0.847928 -0.457800 0.147190 0.532931
0.873399 6.963530 -0.926214 0.810326 0.243839 -0.532835 0.782747 0.274914
1.169711 8.037355 -1.031540 0.102973 0.475432 0.873705 0.821805 0.220793
0.591043 7.352971 -0.550594 0.151479 0.848694 -0.506727 0.821805 0.330932
1.535418 7.667331 -1.288948 0.801393 -0.543189 0.250430 0.789508 0.171368
0.673067 6.997392 -1.132757 0.061988 0.213440 -0.974988 0.743151 0.280172
0.980612 8.058997 -1.230343 -0.792719 0.598848 -0.113920 0.703603 0.227680
1.245965 7.700456 -1.593253 -0.192076 -0.419942 -0.886992 0.737160 0.179421
1.627747 8.322228 -1.866450 -0.093522 -0.133630 -0.986609 0.730344 0.118973
0.591043 7.352971 -0.550594 0.151479 0.848694 -0.506727 0.666545 0.332682
0.387501 7.370544 -0.758943 0.267279 0.847928 -0.457800 0.706395 0.335668
1.169711 8.037355 -1.031540 0.102973 0.475432 0.873705 0.667150 0.224801
0.323925 8.218214 -0.291787 0.483894 0.802961 -0.347993 0.078002 0.496176
0.001518 8.222810 -0.467191 0.324700 0.439798 -0.837346 0.063745 0.549539
-0.225416 8.462029 0.304472 -0.453109 0.874361 0.173740 0.039692 0.800813
-0.309479 8.062126 -0.446583 -0.728490 0.557830 -0.397653 0.035234 0.741028
-0.309479 8.062126 -0.446583 -0.728490 0.557830 -0.397653 0.705352 0.611074
-0.595382 9.778686 -0.447029 -0.227302 0.888931 -0.397662 0.731302 0.685234
0.001518 8.222810 -0.467191 0.324700 0.439798 -0.837346 0.666545 0.612800
0.340758 8.190824 0.141484 0.634138 0.765657 0.107885 0.044118 0.452037
-0.309479 8.062126 -0.446583 -0.728490 0.557830 -0.397653 0.029569 0.604715
0.001518 8.222810 -0.467191 0.324700 0.439798 -0.837346 0.056337 0.552913
0.154401 8.267708 0.370903 0.506133 0.612150 0.607537 0.028846 0.840088
-0.119888 8.465347 0.331035 -0.151695 0.586113 0.795903 0.032110 0.808241
-1.661360 9.821438 -1.834107 -0.170841 0.193714 -0.966068 0.813599 0.335988
-1.394187 9.317314 -1.660553 0.075458 -0.288608 -0.954469 0.786453 0.372178
-1.296172 9.435724 -1.528655 0.839110 0.532757 -0.109837 0.791140 0.388179
-1.524082 9.314679 -1.516853 -0.936962 -0.294286 0.188409 0.819647 0.382324
-1.661360 9.821438 -1.834107 -0.170841 0.193714 -0.966068 0.836377 0.342143
-1.394187 9.317314 -1.660553 0.075458 -0.288608 -0.954469 0.842181 0.383113
-1.731087 9.820023 -1.756970 -0.981443 0.185529 -0.048461 0.824280 0.342316
-0.588947 7.395434 -0.490576 -0.926457 -0.361735 0.104045 0.763032 0.569102
-0.591262 8.067929 -0.689035 -0.206995 0.624383 0.753192 0.743390 0.528128
-0.812274 7.885216 -0.740721 -0.861858 -0.276620 0.425067 0.778535 0.517048
-0.824223 8.537327 -0.883860 0.075035 0.479718 0.874208 0.764764 0.483070
-1.110072 8.303991 -1.036620 -0.915668 -0.352044 0.193951 0.800028 0.462057
-1.121447 9.009818 -1.155140 -0.018146 0.525080 0.850859 0.787615 0.433666
-1.317077 8.809335 -1.276736 -0.939938 -0.302711 0.157743 0.811755 0.421871
-0.300961 7.324226 -0.951257 -0.437508 -0.038809 -0.898377 0.838889 0.573360
-0.567779 7.828675 -1.124599 0.006088 -0.369511 -0.929206 0.841345 0.523599
-0.859839 8.309069 -1.313443 0.070840 -0.309956 -0.948108 0.845639 0.471879
-1.127013 8.813191 -1.486998 0.075456 -0.288603 -0.954471 0.845639 0.426044
-0.300961 7.324226 -0.951257 -0.437508 -0.038809 -0.898377 0.666545 0.504928
-0.449606 8.108412 -0.957744 0.844433 0.448718 -0.292549 0.709934 0.496889
-0.309479 8.062126 -0.446583 -0.728490 0.557830 -0.397653 0.710095 0.575124
-0.567779 7.828675 -1.124599 0.006088 -0.369511 -0.929206 0.701057 0.465579
-0.671023 8.537173 -1.059355 0.871226 0.487829 -0.054660 0.737683 0.468417
-0.859839 8.309069 -1.313443 0.070840 -0.309956 -0.948108 0.734918 0.424500
-0.983598 8.986448 -1.294005 0.845729 0.518572 -0.125800 0.768167 0.423204
-1.127013 8.813191 -1.486998 0.075456 -0.288603 -0.954471 0.769809 0.393496
-1.293542 9.224348 -1.573369 0.095896 0.057806 -0.993711 0.782235 0.385336
-1.165014 8.981833 -1.489878 0.734526 -0.022869 -0.678195 0.777030 0.393483
-0.426842 7.641387 -0.360708 -0.878155 0.465716 0.109326 0.736378 0.589568
-1.156783 9.568432 -2.019305 0.947924 0.302512 -0.099627 0.788931 0.365534
-1.096022 9.065182 -1.397036 0.822297 0.108418 -0.558636 0.776125 0.403972
-1.246391 9.281311 -1.509918 0.727945 0.588953 -0.351042 0.784555 0.392614
-1.175718 9.545557 -2.044786 0.219090 -0.480189 -0.849363 0.789827 0.364867
-1.198052 9.627749 -2.050286 0.085633 0.974822 -0.205888 0.790267 0.364128
-1.210992 9.612116 -2.067700 -0.420189 0.347580 -0.838230 0.790405 0.363057
-1.175718 9.545557 -2.044786 0.219090 -0.480189 -0.849363 0.790796 0.365384
1.490247 8.505744 -1.678122 -0.748173 0.441958 -0.494885 0.774026 0.756172
1.580201 8.582083 -2.262068 -0.879408 0.296479 -0.372480 0.833720 0.711309
1.174291 8.135858 -1.421025 -0.775624 0.136966 -0.616156 0.765357 0.809207
1.174291 8.135858 -1.421025 -0.775624 0.136966 -0.616156 0.711866 0.193384
1.317836 7.941903 -1.617343 -0.748202 0.024862 -0.663005 0.729904 0.168332
1.490247 8.505744 -1.678122 -0.748173 0.441958 -0.494885 0.712966 0.141377
1.619092 8.529534 -2.315256 -0.206502 -0.561175 -0.801523 0.840710 0.708304
1.665803 8.682297 -2.331723 0.073566 0.945090 -0.318422 0.841694 0.700085
1.703057 8.632577 -2.382747 0.509944 0.201455 -0.836285 0.850674 0.698503
1.317836 7.941903 -1.617343 -0.748202 0.024862 -0.663005 0.793146 0.793799
1.627747 8.322228 -1.866450 -0.093522 -0.133630 -0.986609 0.840599 0.761169
1.665803 8.682297 -2.331723 0.073566 0.945090 -0.318422 0.854418 0.705339
1.490247 8.505744 -1.678122 -0.748173 0.441958 -0.494885 0.854418 0.786398
-0.553616 9.699358 -0.321641 0.080073 0.790336 0.607419 0.748554 0.677117
-0.611947 9.647194 -0.400414 -0.982674 0.044928 -0.179817 0.736726 0.679193
-0.608091 9.646073 -0.341187 -0.884495 0.273806 0.377755 0.742180 0.674730
-0.119888 8.465347 0.331035 -0.151695 0.586113 0.795903 0.819953 0.591828
0.001518 8.222810 -0.467191 0.324700 0.439798 -0.837346 0.855706 0.696620
-0.214525 9.131165 -0.160977 0.551616 0.424064 -0.718255 0.801248 0.655167
0.004236 8.682365 -0.176389 0.879600 0.185001 -0.438267 0.837968 0.656145
-0.214525 9.131165 -0.160977 0.551616 0.424064 -0.718255 0.765037 0.705123
0.086666 10.315398 -0.043877 0.846323 0.051372 -0.530187 0.747052 0.765672
0.004236 8.682365 -0.176389 0.879600 0.185001 -0.438267 0.733203 0.696940
-0.595382 9.778686 -0.447029 -0.227302 0.888931 -0.397662 0.741715 0.694688
0.154401 8.267708 0.370903 0.506133 0.612150 0.607537 0.855706 0.589888
-0.203888 9.134264 -0.108490 -0.179716 0.580069 0.794495 0.802348 0.647869
0.090182 8.707394 0.240698 0.463494 0.215401 0.859520 0.839477 0.617515
0.003147 10.634645 -0.072968 0.009702 0.933415 0.358668 0.748650 0.791886
0.112313 10.324948 0.131967 0.385078 0.334648 0.860073 0.724086 0.766830
0.090182 8.707394 0.240698 0.463494 0.215401 0.859520 0.686423 0.721287
-0.203888 9.134264 -0.108490 -0.179716 0.580069 0.794495 0.667413 0.795955
-0.004813 10.632328 -0.112250 -0.150939 0.796768 -0.585131 0.748000 0.797862
-0.214525 9.131165 -0.160977 0.551616 0.424064 -0.718255 0.666545 0.803940
0.269678 4.012881 0.680430 0.313133 -0.057886 0.947943 0.474444 0.953295
-0.308425 4.012881 0.680430 -0.518838 0.155829 0.840550 0.495615 0.896160
0.788607 4.012881 0.197719 0.898558 -0.160568 0.408426 0.341940 0.212196
0.269678 4.012881 0.680430 0.313133 -0.057886 0.947943 0.299186 0.099226
0.270661 4.014714 -1.054066 0.227382 0.176025 -0.957764 0.515811 0.708564
-0.308425 4.012881 -1.053879 -0.573686 0.289010 -0.766393 0.525652 0.765273
-0.572395 4.012881 -0.396808 -0.918491 0.282459 -0.276752 0.512006 0.812823
0.802877 4.014715 -0.719837 0.842047 -0.013174 -0.539244 0.418686 0.366761
0.270661 4.014714 -1.054066 0.227382 0.176025 -0.957764 0.507131 0.447324
-0.684018 4.012881 0.144200 -0.950576 0.259738 0.170120 0.507839 0.848631
1.259889 1.083748 0.316762 0.925462 -0.046992 0.375915 0.479418 0.150519
1.282432 1.084975 -0.999431 0.863819 -0.114347 -0.490655 0.547023 0.249990
-0.828393 1.083748 0.244374 -0.986553 -0.012363 0.162971 0.560659 0.860619
-0.312563 1.083748 1.023180 -0.464215 0.043399 0.884659 0.570563 0.908237
-0.653850 1.083748 -0.506533 -0.958576 -0.046797 -0.280966 0.571540 0.820931
0.520586 1.084974 -1.474420 0.278976 -0.139008 -0.950184 0.654051 0.309859
-0.312563 1.083748 -1.474295 -0.530883 -0.113407 -0.839823 0.593330 0.768143
0.520586 1.084974 -1.474420 0.278976 -0.139008 -0.950184 0.635430 0.712485
0.519928 1.083748 1.023180 0.392980 0.020405 0.919321 0.447412 0.025363
0.519928 1.083748 1.023180 0.392980 0.020405 0.919321 0.594885 0.975767
0.333333 0.046077 1.000000 0.255713 -0.661689 0.704826 0.505763 0.000160
-0.729026 0.046077 0.371732 -0.743874 -0.651777 0.147774 0.576367 0.867435
2.345410 9.353012 -2.116793 0.332164 0.822333 0.461990 0.712650 0.020816
-1.661360 9.821438 -1.834107 -0.170841 0.193714 -0.966068 0.806997 0.336589
-1.175718 9.545557 -2.044786 0.219090 -0.480189 -0.849363 0.789923 0.364919
1.665803 8.682297 -2.331723 0.073566 0.945090 -0.318422 0.836068 0.696940
-0.595382 9.778686 -0.447029 -0.227302 0.888931 -0.397662 0.735723 0.687103
-0.004813 10.632328 -0.112250 -0.150939 0.796768 -0.585131 0.765037 0.772569
-0.004813 10.632328 -0.112250 -0.150939 0.796768 -0.585131 0.756012 0.793808
3 0 1 2
3 3 4 5
3 6 7 4
3 8 9 0
3 10 11 12
3 13 14 15
3 1 16 17
3 3 18 19
3 20 21 22
3 10 23 24
3 25 26 7
3 26 27 28
3 2 29 30
3 31 5 32
3 33 34 35
3 17 36 37
3 38 39 40
3 25 41 42
3 3 33 6
3 29 17 37
3 42 43 27
3 6 35 25
3 14 44 45
3 46 47 48
3 49 47 14
3 13 50 51
3 16 52 53
3 43 54 27
3 16 55 43
3 27 52 9
3 56 57 58
3 59 51 57
3 60 61 62
3 62 63 49
3 64 61 65
3 66 48 61
3 56 62 59
3 59 49 13
3 36 67 68
3 69 70 34
3 71 72 73
3 16 74 17
3 43 75 76
3 19 77 78
3 43 67 16
3 19 69 33
3 79 40 39
3 80 39 81
3 82 83 84
3 82 40 85
3 86 87 88
3 88 89 90
3 90 91 92
3 92 38 82
3 93 88 94
3 94 90 95
3 90 96 95
3 92 84 96
3 97 98 99
3 100 101 98
3 102 103 101
3 104 105 106
3 99 87 107
3 98 89 87
3 89 103 91
3 91 81 38
3 106 108 109
3 81 105 80
3 81 109 110
3 104 109 103
3 111 112 108
3 110 108 112
3 105 112 113
3 105 114 106
3 115 116 117
3 62 118 119
3 48 63 120
3 48 118 61
3 121 122 123
3 124 116 121
3 125 121 123
3 125 126 127
3 128 129 130
3 131 128 130
3 71 130 129
3 132 133 134
3 135 136 137
3 128 133 138
3 139 140 128
3 139 134 141
3 136 142 143
3 144 136 143
3 145 143 142
3 145 146 147
3 148 5 149
3 150 30 151
3 26 152 153
3 7 153 154
3 8 155 156
3 157 7 154
3 149 4 157
3 0 150 155
3 155 158 159
3 149 160 161
3 157 162 160
3 163 155 159
3 162 153 164
3 164 152 165
3 150 166 158
3 148 161 167
3 24 161 10
3 20 166 168
3 164 23 12
3 162 12 11
3 163 22 21
3 160 11 169
3 161 169 10
3 22 158 20
3 0 9 1
3 3 6 4
3 6 25 7
3 8 27 9
3 10 169 11
3 13 49 14
3 1 9 16
3 3 31 18
3 20 168 21
3 10 12 23
3 25 42 26
3 26 42 27
3 2 1 29
3 31 3 5
3 33 69 34
3 17 74 36
3 38 81 39
3 25 35 41
3 3 19 33
3 29 1 17
3 42 41 43
3 6 33 35
3 14 47 44
3 46 170 47
3 49 48 47
3 13 15 50
3 16 9 52
3 43 55 54
3 16 53 55
3 27 54 52
3 56 59 57
3 59 13 51
3 60 65 61
3 62 119 63
3 64 66 61
3 66 46 48
3 56 60 62
3 59 62 49
3 36 74 67
3 69 78 70
3 71 129 72
3 16 67 74
3 43 41 75
3 19 18 77
3 43 68 67
3 19 78 69
3 79 85 40
3 80 171 39
3 82 85 83
3 82 38 40
3 86 107 87
3 88 87 89
3 90 89 91
3 92 91 38
3 93 86 88
3 94 88 90
3 90 92 96
3 92 82 84
3 97 100 98
3 100 102 101
3 102 104 103
3 104 80 105
3 99 98 87
3 98 101 89
3 89 101 103
3 91 103 81
3 106 172 108
3 81 110 105
3 81 103 109
3 104 106 109
3 111 113 112
3 110 109 108
3 105 110 112
3 105 113 114
3 115 173 116
3 62 61 118
3 48 49 63
3 48 120 118
3 121 116 122
3 124 117 116
3 125 124 121
3 125 123 126
3 128 174 129
3 131 139 128
3 71 131 130
3 132 138 133
3 135 175 136
3 128 140 133
3 139 141 140
3 139 132 134
3 136 176 142
3 144 137 136
3 145 144 143
3 145 142 146
3 148 32 5
3 150 2 30
3 26 28 152
3 7 26 153
3 8 0 155
3 157 4 7
3 149 5 4
3 0 2 150
3 155 150 158
3 149 157 160
3 157 154 162
3 163 156 155
3 162 154 153
3 164 153 152
3 150 151 166
3 148 149 161
3 24 167 161
3 20 158 166
3 164 165 23
3 162 164 12
3 163 159 22
3 160 162 11
3 161 160 169
3 22 159 158
