ply
format ascii 1.0
comment Created by Blender 3.1.2 - www.blender.org
element vertex 63
property float x
property float y
property float z
property float nx
property float ny
property float nz
property float s
property float t
element face 80
property list uchar uint vertex_indices
end_header
-0.132382 -3.644266 0.091645 0.104231 -0.994253 0.024438 0.181819 0.000000
-1.716197 -3.166897 -1.276994 -0.266683 -0.873346 -0.407611 0.227273 0.078731
0.624433 -3.196023 -1.862606 0.181781 -0.890410 -0.417284 0.136365 0.078731
-2.923969 -1.516494 -2.884976 -0.596637 -0.287702 -0.749167 0.272728 0.157461
-1.716197 -3.166897 -1.276994 -0.266683 -0.873346 -0.407611 0.318182 0.078731
-3.260347 -2.615579 -0.514379 -0.801666 -0.597235 0.025350 0.363637 0.157461
-0.132382 -3.644266 0.091645 0.104231 -0.994253 0.024438 0.909091 0.000000
0.624433 -3.196023 -1.862606 0.181781 -0.890410 -0.417284 0.954545 0.078731
1.585773 -3.043411 -0.182218 0.456570 -0.889632 -0.009935 0.863636 0.078731
-0.132382 -3.644266 0.091645 0.104231 -0.994253 0.024438 0.727273 0.000000
1.585773 -3.043411 -0.182218 0.456570 -0.889632 -0.009935 0.772727 0.078731
1.049466 -3.075422 1.392006 0.383553 -0.892912 0.235785 0.681818 0.078731
-0.132382 -3.644266 0.091645 0.104231 -0.994253 0.024438 0.545455 0.000000
1.049466 -3.075422 1.392006 0.383553 -0.892912 0.235785 0.590909 0.078731
-1.642931 -3.608598 0.526909 -0.395817 -0.886109 0.241122 0.500000 0.078731
-3.474344 0.334901 -1.042764 -0.937738 -0.024818 -0.346456 0.318182 0.236191
0.526714 -1.860643 -3.709417 0.106625 -0.586365 -0.802999 0.090910 0.157461
-0.825689 -2.178831 -2.655187 -0.259571 -0.658243 -0.706640 0.181819 0.157461
-0.704883 0.177984 -4.542702 -0.301551 0.160615 -0.939824 0.136365 0.236191
3.845152 -1.750419 0.640846 0.893427 -0.370811 0.253549 0.818182 0.157461
3.048873 -1.752608 -1.678068 0.733673 -0.537149 -0.416167 0.909091 0.157461
3.540548 0.078427 -1.165590 0.983644 0.083552 -0.159571 0.863636 0.236191
1.587898 -2.045206 3.623110 0.417582 -0.398478 0.816603 0.636364 0.157461
2.268339 -1.824186 2.247555 0.774738 -0.488540 0.401385 0.727273 0.157461
2.308092 0.299663 2.979809 0.670007 0.068263 0.739210 0.681818 0.236191
-2.171526 -1.079631 1.692277 -0.647989 -0.534685 0.542422 0.454546 0.157461
-0.292320 -2.701173 3.277323 -0.234863 -0.616779 0.751281 0.545455 0.157461
-2.201158 0.031982 3.009769 -0.576533 -0.113418 0.809164 0.500000 0.236191
-2.151083 0.148647 -3.111997 -0.581160 0.239166 -0.777851 0.227273 0.236191
2.815991 0.536909 -3.328855 0.665755 0.190455 -0.721455 0.045455 0.236191
3.160612 -0.103243 0.946419 0.920705 0.128125 0.368629 0.772727 0.236191
0.398754 -0.080131 3.256918 -0.010117 0.021229 0.999723 0.590909 0.236191
-3.819842 -0.330361 1.086716 -0.915941 -0.156571 0.369511 0.409092 0.236191
-0.623917 1.043942 -3.074222 -0.483913 0.668836 -0.564347 0.181819 0.314921
-2.971428 1.287497 -1.740780 -0.634416 0.404648 -0.658617 0.272728 0.314921
-0.060053 2.987900 -1.972915 -0.135317 0.785920 -0.603341 0.227273 0.393651
2.807373 1.704141 -1.897159 0.703264 0.579106 -0.412379 0.000000 0.314921
0.429539 2.330890 -2.504397 0.071375 0.655642 -0.751691 0.090910 0.314921
1.597418 3.207410 -1.159316 0.416336 0.839657 -0.348770 0.045455 0.393651
2.549976 2.261392 1.791594 0.790343 0.478897 0.382118 0.727273 0.314921
3.257941 1.706949 -0.160365 0.905245 0.423631 0.032690 0.818182 0.314921
0.990824 3.743392 1.785820 0.218463 0.912599 0.345597 0.772727 0.393651
-1.026786 1.613590 3.350285 -0.305222 0.321401 0.896405 0.545455 0.314921
0.865991 2.170190 3.367390 0.188733 0.409842 0.892418 0.636364 0.314921
-0.618612 3.207153 1.862850 -0.367079 0.829934 0.420074 0.590909 0.393651
-3.600956 1.564433 -0.966798 -0.845548 0.443012 -0.297976 0.363637 0.314921
-2.643544 1.874152 1.768443 -0.702899 0.553797 0.446365 0.454546 0.314921
-1.923339 2.937184 -0.383308 -0.505214 0.850069 -0.148799 0.409092 0.393651
-0.618612 3.207153 1.862850 -0.367079 0.829934 0.420074 0.500000 0.393651
-0.071045 3.651513 -0.027798 -0.147831 0.982251 -0.115452 0.454546 0.472382
0.990824 3.743392 1.785820 0.218463 0.912599 0.345597 0.681818 0.393651
-0.071045 3.651513 -0.027798 -0.147831 0.982251 -0.115452 0.636364 0.472382
1.597418 3.207410 -1.159316 0.416336 0.839657 -0.348770 0.863636 0.393651
-0.071045 3.651513 -0.027798 -0.147831 0.982251 -0.115452 0.818182 0.472382
2.807373 1.704141 -1.897159 0.703264 0.579106 -0.412379 0.909091 0.314921
-0.060053 2.987900 -1.972915 -0.135317 0.785920 -0.603341 0.136365 0.393651
-0.071045 3.651513 -0.027798 -0.147831 0.982251 -0.115452 0.090910 0.472382
-1.923339 2.937184 -0.383308 -0.505214 0.850069 -0.148799 0.318182 0.393651
-0.071045 3.651513 -0.027798 -0.147831 0.982251 -0.115452 0.272728 0.472382
2.815991 0.536909 -3.328855 0.665755 0.190455 -0.721455 0.954545 0.236191
0.526714 -1.860643 -3.709417 0.106625 -0.586365 -0.802999 1.000000 0.157461
-1.642931 -3.608598 0.526909 -0.395817 -0.886109 0.241122 0.409092 0.078731
-0.132382 -3.644266 0.091645 0.104231 -0.994253 0.024438 0.363637 0.000000
3 0 1 2
3 3 4 5
3 6 7 8
3 9 10 11
3 12 13 14
3 3 5 15
3 16 17 18
3 19 20 21
3 22 23 24
3 25 26 27
3 3 15 28
3 16 18 29
3 19 21 30
3 22 24 31
3 25 27 32
3 33 34 35
3 36 37 38
3 39 40 41
3 42 43 44
3 45 46 47
3 47 48 49
3 47 46 48
3 46 42 48
3 44 50 51
3 44 43 50
3 43 39 50
3 41 52 53
3 41 40 52
3 40 54 52
3 38 55 56
3 38 37 55
3 37 33 55
3 35 57 58
3 35 34 57
3 34 45 57
3 32 46 45
3 32 27 46
3 27 42 46
3 31 43 42
3 31 24 43
3 24 39 43
3 30 40 39
3 30 21 40
3 21 54 40
3 29 37 36
3 29 18 37
3 18 33 37
3 28 34 33
3 28 15 34
3 15 45 34
3 27 31 42
3 27 26 31
3 26 22 31
3 24 30 39
3 24 23 30
3 23 19 30
3 21 59 54
3 21 20 59
3 20 60 59
3 18 28 33
3 18 17 28
3 17 3 28
3 15 32 45
3 15 5 32
3 5 25 32
3 14 26 25
3 14 13 26
3 13 22 26
3 11 23 22
3 11 10 23
3 10 19 23
3 8 20 19
3 8 7 20
3 7 60 20
3 5 61 25
3 5 4 61
3 4 62 61
3 2 17 16
3 2 1 17
3 1 3 17
