ply
format ascii 1.0
comment Created by Blender 3.1.2 - www.blender.org
element vertex 20
property float x
property float y
property float z
property float nx
property float ny
property float nz
property float s
property float t
element face 12
property list uchar uint vertex_indices
end_header
-42.601986 0.400000 -16.535404 0.480688 0.562183 -0.672970 0.013557 0.224459
-42.558075 0.000000 -1.713924 0.495507 -0.563611 0.660920 0.362598 0.105580
-42.601986 0.000000 -16.535404 0.480688 -0.562183 -0.672970 0.362598 0.224459
-42.558075 0.400000 -1.713924 0.495507 0.563611 0.660921 0.580292 0.454621
-54.009335 0.000000 -5.095120 -0.155025 -0.721185 0.675173 0.484525 0.105580
-42.558075 0.000000 -1.713924 0.495507 -0.563611 0.660920 0.580292 0.105580
-54.009335 0.400000 -5.095120 -0.155025 0.721186 0.675173 0.484525 0.454621
-68.983200 0.000000 -7.577435 -0.838301 -0.540888 0.068499 0.362786 0.105580
-68.983200 0.400000 -7.577435 -0.838301 0.540888 0.068498 0.013557 0.447919
-68.983200 0.000000 -7.577435 -0.838301 -0.540888 0.068499 0.362598 0.447919
-54.009335 0.000000 -5.095120 -0.155025 -0.721185 0.675173 0.511264 0.687896
-42.601986 0.000000 -16.535404 0.480688 -0.562183 -0.672970 0.041242 0.934690
-42.558075 0.000000 -1.713924 0.495507 -0.563611 0.660920 0.185345 0.469464
-54.009335 0.400000 -5.095120 -0.155025 0.721186 0.675173 0.663208 0.327529
-42.601986 0.400000 -16.535404 0.480688 0.562183 -0.672970 0.979640 0.010134
-68.983200 0.400000 -7.577435 -0.838301 0.540888 0.068498 0.733302 0.742720
-42.558075 0.400000 -1.713924 0.495507 0.563611 0.660921 0.013557 0.105580
-68.983200 0.400000 -7.577435 -0.838301 0.540888 0.068498 0.362785 0.454621
-68.983200 0.000000 -7.577435 -0.838301 -0.540888 0.068499 0.956473 0.912717
-42.558075 0.400000 -1.713924 0.495507 0.563611 0.660921 0.568468 0.010134
3 0 1 2
3 3 4 5
3 6 7 4
3 8 2 9
3 10 11 12
3 13 14 15
3 0 16 1
3 3 6 4
3 6 17 7
3 8 0 2
3 10 18 11
3 13 19 14
