ply
format ascii 1.0
comment Created by Blender 3.1.2 - www.blender.org
element vertex 46
property float x
property float y
property float z
property float nx
property float ny
property float nz
property float s
property float t
element face 36
property list uchar uint vertex_indices
end_header
-15.109173 0.400000 -82.204750 0.546763 0.584215 -0.599786 0.685144 0.708445
-13.314957 0.000001 -65.772820 0.740449 -0.670453 0.047199 0.929956 0.615457
-15.109173 -0.000000 -82.204750 0.546763 -0.584216 -0.599785 0.929957 0.708445
-13.314957 0.000001 -65.772820 0.740449 -0.670453 0.047199 0.000194 0.807070
-16.921139 0.400001 -50.782059 0.686264 0.681205 0.254953 0.086931 0.562258
-16.921139 0.000001 -50.782059 0.686264 -0.681205 0.254953 0.086931 0.807070
-99.325958 0.000000 -67.136734 -0.465627 -0.662215 -0.587080 0.929956 0.203421
-66.894470 0.400000 -83.050720 -0.164269 0.658022 -0.734862 0.685144 0.000194
-66.894470 -0.000000 -83.050720 -0.164268 -0.658023 -0.734862 0.929957 0.000194
-66.894470 0.400000 -83.050720 -0.164269 0.658022 -0.734862 0.685144 0.999806
-66.894470 -0.000000 -83.050720 -0.164268 -0.658023 -0.734862 0.929957 0.999807
-13.314957 0.000001 -65.772820 0.740449 -0.670453 0.047199 0.215730 0.030136
-66.894470 -0.000000 -83.050720 -0.164268 -0.658023 -0.734862 0.000194 0.262177
-15.109173 -0.000000 -82.204750 0.546763 -0.584216 -0.599785 0.127694 0.000194
-13.314957 0.400001 -65.772820 0.740449 0.670453 0.047199 0.558205 0.531928
-66.894470 0.400000 -83.050720 -0.164269 0.658022 -0.734862 0.342669 0.299888
-99.325958 0.400000 -67.136734 -0.465627 0.662215 -0.587080 0.346647 0.096699
-105.516510 0.400000 -59.573193 -0.655633 0.666851 -0.354198 0.370479 0.047148
-24.722145 0.400001 -35.625626 0.532105 0.641024 0.553130 0.684757 0.402061
-16.921139 0.400001 -50.782059 0.686264 0.681205 0.254953 0.626048 0.477884
-105.516510 0.400000 -59.573193 -0.655633 0.666851 -0.354198 0.685144 0.258405
-99.325958 0.400000 -67.136734 -0.465627 0.662215 -0.587080 0.685144 0.203421
-99.325958 0.000000 -67.136734 -0.465627 -0.662215 -0.587080 0.004172 0.465365
-16.921139 0.000001 -50.782059 0.686264 -0.681205 0.254953 0.283573 0.084180
-105.516510 0.000000 -59.573193 -0.655632 -0.666851 -0.354198 0.028004 0.514916
-109.225113 0.000000 -47.782207 -0.771890 -0.633572 0.052650 0.929956 0.327940
-91.112213 0.400000 -9.401505 -0.453157 0.610400 0.649662 0.685144 0.566690
-109.225113 0.400000 -47.782207 -0.771889 0.633573 0.052649 0.685144 0.327940
-24.722145 0.000001 -35.625626 0.532106 -0.641024 0.553129 0.182826 0.807070
-24.722145 0.000001 -35.625626 0.532106 -0.641024 0.553129 0.342281 0.160003
-109.225113 0.000000 -47.782207 -0.771890 -0.633572 0.052650 0.079291 0.561870
-82.545731 0.000001 -8.643398 0.131224 -0.653109 0.745807 0.929956 0.615069
-91.112213 0.000000 -9.401505 -0.453155 -0.610400 0.649663 0.929957 0.566690
-82.545731 0.000001 -8.643398 0.131224 -0.653109 0.745807 0.342281 0.518966
-91.112213 0.000000 -9.401505 -0.453155 -0.610400 0.649663 0.318039 0.560834
-109.225113 0.400000 -47.782207 -0.771889 0.633573 0.052649 0.421766 0.000194
-82.545731 0.400001 -8.643398 0.131223 0.653109 0.745807 0.684757 0.043098
-24.722145 0.400001 -35.625626 0.532105 0.641024 0.553130 0.182826 0.562258
-82.545731 0.000001 -8.643398 0.131224 -0.653109 0.745807 0.541789 0.807070
-13.314957 0.400001 -65.772820 0.740449 0.670453 0.047199 0.685144 0.615457
-13.314957 0.400001 -65.772820 0.740449 0.670453 0.047199 0.000194 0.562257
-15.109173 0.400000 -82.204750 0.546763 0.584215 -0.599786 0.470169 0.561870
-105.516510 0.000000 -59.573193 -0.655632 -0.666851 -0.354198 0.929956 0.258405
-82.545731 0.400001 -8.643398 0.131223 0.653109 0.745807 0.685144 0.615070
-91.112213 0.400000 -9.401505 -0.453157 0.610400 0.649662 0.660514 0.001230
-82.545731 0.400001 -8.643398 0.131223 0.653109 0.745807 0.541789 0.562258
3 0 1 2
3 3 4 5
3 6 7 8
3 9 2 10
3 11 12 13
3 14 15 16
3 17 18 19
3 6 20 21
3 22 23 24
3 16 19 14
3 25 26 27
3 4 28 5
3 20 25 27
3 24 29 30
3 31 26 32
3 30 33 34
3 35 36 18
3 37 38 28
3 0 39 1
3 3 40 4
3 6 21 7
3 9 0 2
3 11 22 12
3 14 41 15
3 17 35 18
3 6 42 20
3 22 11 23
3 16 17 19
3 25 32 26
3 4 37 28
3 20 42 25
3 24 23 29
3 31 43 26
3 30 29 33
3 35 44 36
3 37 45 38
