ply
format ascii 1.0
comment Created by Blender 3.1.2 - www.blender.org
element vertex 40
property float x
property float y
property float z
property float nx
property float ny
property float nz
property float s
property float t
element face 36
property list uchar uint vertex_indices
end_header
82.042984 0.400000 -81.942207 0.581526 0.577573 -0.572920 0.000181 0.600727
81.695198 0.000000 -16.672432 0.704777 -0.623084 0.339197 0.233833 0.250135
82.042984 0.000000 -81.942207 0.581526 -0.577576 -0.572917 0.233901 0.600682
32.217796 0.000000 -28.022705 -0.715549 -0.627893 0.306170 0.499892 0.309625
40.614025 0.322246 -20.062241 -0.541165 0.759103 0.361804 0.634393 0.199815
32.217796 0.400000 -28.022705 -0.715548 0.627894 0.306170 0.682623 0.259808
32.217796 0.400000 -28.022705 -0.715548 0.627894 0.306170 0.733612 0.309625
32.518150 0.000000 -82.416451 -0.573080 -0.577138 -0.581800 0.499892 0.601760
32.518150 0.400000 -82.416451 -0.573083 0.577139 -0.581795 0.498945 0.835478
32.217796 0.400000 -28.022705 -0.715548 0.627894 0.306170 0.733839 0.172978
82.042984 0.400000 -81.942207 0.581526 0.577573 -0.572920 0.999887 0.463984
32.518150 0.400000 -82.416451 -0.573083 0.577139 -0.581795 0.733895 0.465114
40.614025 0.322246 -20.062241 -0.541165 0.759103 0.361804 0.773973 0.107294
60.426868 0.322246 -4.404907 0.233024 0.692414 0.682834 0.883118 0.026787
73.132469 0.322246 -9.710056 0.376681 0.674027 0.635452 0.950371 0.057532
40.614025 0.077754 -20.062241 -0.541165 -0.759103 0.361804 0.459745 0.243948
81.695198 0.400000 -16.672432 0.704776 0.623085 0.339198 0.999887 0.113437
81.695198 0.400000 -16.672432 0.704776 0.623085 0.339198 0.060536 0.081174
73.132469 0.077754 -9.710056 0.376681 -0.674027 0.635451 0.283338 0.194221
42.971340 0.077754 -13.608982 -0.663501 -0.724204 0.187869 0.445933 0.209732
44.467995 0.322246 -6.286655 -0.671069 0.740298 0.040315 0.558460 0.092470
42.971340 0.322246 -13.608982 -0.663501 0.724204 0.187869 0.584861 0.126854
73.132469 0.322246 -9.710056 0.376681 0.674027 0.635452 0.223917 0.064309
60.426868 0.077754 -4.404907 0.233024 -0.692414 0.682834 0.350585 0.163463
42.971340 0.322246 -13.608982 -0.663501 0.724204 0.187869 0.578403 0.156257
40.614025 0.322246 -20.062241 -0.541165 0.759103 0.361804 0.592215 0.190472
43.952454 0.322246 0.016411 -0.530018 0.561393 0.635546 0.506501 0.027385
44.467995 0.077754 -6.286655 -0.671069 -0.740298 0.040315 0.436584 0.170697
43.952454 0.077754 0.016411 -0.530017 -0.561393 0.635548 0.438220 0.136772
42.971340 0.322246 -13.608982 -0.663501 0.724204 0.187869 0.787779 0.073075
44.467995 0.322246 -6.286655 -0.671069 0.740298 0.040315 0.797120 0.034038
60.426868 0.322246 -4.404907 0.233024 0.692414 0.682834 0.308963 0.026804
43.952454 0.322246 0.016411 -0.530018 0.561393 0.635546 0.795478 0.000113
81.695198 0.400000 -16.672432 0.704776 0.623085 0.339198 0.000113 0.250180
32.518150 0.400000 -82.416451 -0.573083 0.577139 -0.581795 0.733612 0.601760
82.042984 0.400000 -81.942207 0.581526 0.577573 -0.572920 0.232953 0.834400
73.132469 0.322246 -9.710056 0.376681 0.674027 0.635452 0.189400 0.058644
60.426868 0.322246 -4.404907 0.233024 0.692414 0.682834 0.291164 0.033551
44.467995 0.322246 -6.286655 -0.671069 0.740298 0.040315 0.573074 0.047359
43.952454 0.322246 0.016411 -0.530018 0.561393 0.635546 0.396598 0.000113
3 0 1 2
3 3 4 5
3 6 7 3
3 8 2 7
3 3 2 1
3 9 10 11
3 12 13 14
3 1 15 3
3 16 12 14
3 17 18 1
3 19 20 21
3 22 23 18
3 15 24 25
3 15 23 19
3 26 27 28
3 23 27 19
3 29 30 13
3 31 28 23
3 30 32 13
3 27 23 28
3 0 33 1
3 3 15 4
3 6 34 7
3 8 35 2
3 3 7 2
3 9 16 10
3 12 29 13
3 1 18 15
3 16 9 12
3 17 36 18
3 19 27 20
3 22 37 23
3 15 19 24
3 15 18 23
3 26 38 27
3 31 39 28
