ply
format ascii 1.0
comment Created by Blender 3.1.2 - www.blender.org
element vertex 52
property float x
property float y
property float z
property float nx
property float ny
property float nz
property float s
property float t
element face 44
property list uchar uint vertex_indices
end_header
36.135006 0.400000 53.924606 0.636239 0.705817 -0.311486 0.285000 0.151101
41.370670 0.000000 64.776306 0.760880 -0.572724 0.305038 0.569446 0.072346
36.135006 0.000000 53.924606 0.636239 -0.705816 -0.311486 0.569446 0.151101
8.817509 0.400000 71.074280 -0.685157 0.699332 0.203701 0.784631 0.170945
31.033262 0.400000 68.652023 0.377246 0.913057 0.154961 0.641933 0.202151
41.370670 0.400000 64.776306 0.760880 0.572724 0.305039 0.569815 0.199640
8.817509 0.400000 71.074280 -0.685157 0.699332 0.203701 0.285000 0.625010
5.896156 0.000000 59.824219 -0.682308 -0.708297 0.181027 0.569446 0.549038
8.817509 0.000000 71.074280 -0.685158 -0.699332 0.203702 0.569446 0.625011
27.875601 0.400000 37.296501 0.228230 0.573045 -0.787102 0.285000 0.272457
8.817509 0.000000 71.074280 -0.685158 -0.699332 0.203702 0.999816 0.593096
36.135006 0.000000 53.924606 0.636239 -0.705816 -0.311486 0.794867 0.642534
41.370670 0.000000 64.776306 0.760880 -0.572724 0.305038 0.785000 0.564400
36.135006 0.400000 53.924606 0.636239 0.705817 -0.311486 0.579683 0.121507
5.896156 0.400000 59.824219 -0.682308 0.708297 0.181027 0.779329 0.095157
17.213606 0.400000 43.765205 -0.235861 0.749905 -0.618071 0.285000 0.353971
27.875601 0.000000 37.296501 0.228231 -0.573046 -0.787102 0.569446 0.272457
17.213606 0.000000 43.765205 -0.235861 -0.749905 -0.618072 0.569446 0.353971
17.213606 0.000000 43.765205 -0.235861 -0.749905 -0.618072 0.890978 0.744848
27.875601 0.000000 37.296501 0.228231 -0.573046 -0.787102 0.811455 0.762751
17.213606 0.400000 43.765205 -0.235861 0.749905 -0.618071 0.675794 0.019192
8.190046 0.400000 45.442348 -0.082253 0.721933 -0.687057 0.285000 0.413962
2.089298 0.400000 45.775383 -0.667553 0.567100 -0.482463 0.285000 0.453898
8.190046 0.000000 45.442348 -0.082253 -0.721933 -0.687057 0.569446 0.413962
2.089298 0.000000 45.775383 -0.667553 -0.567100 -0.482463 0.569446 0.453898
5.896156 0.400000 59.824219 -0.682308 0.708297 0.181027 0.285000 0.549037
5.896156 0.000000 59.824219 -0.682308 -0.708297 0.181027 0.994514 0.668884
8.190046 0.000000 45.442348 -0.082253 -0.721933 -0.687057 0.950381 0.753228
8.190046 0.400000 45.442348 -0.082253 0.721933 -0.687057 0.735197 0.010812
2.089298 0.400000 45.775383 -0.667553 0.567100 -0.482463 0.773692 0.000184
22.002672 0.000000 110.347679 -0.666216 -0.690131 0.282623 0.000184 0.981179
44.969421 0.400000 154.622757 -0.126331 0.562909 0.816807 0.284631 0.655164
22.002672 0.400000 110.347679 -0.666217 0.690129 0.282623 0.284631 0.981179
41.370670 0.400000 64.776306 0.760880 0.572724 0.305039 0.285000 0.072346
31.033262 0.000000 68.652023 0.377247 -0.913056 0.154961 0.569446 0.000184
22.002672 0.400000 110.347679 -0.666217 0.690129 0.282623 0.285000 0.895795
31.033262 0.000000 68.652023 0.377247 -0.913056 0.154961 0.857118 0.561889
22.002672 0.000000 110.347679 -0.666216 -0.690131 0.282623 0.999816 0.322311
62.593338 0.400000 136.999786 0.788905 0.598204 0.140641 0.284631 0.492257
44.969421 0.000000 154.622757 -0.126333 -0.562907 0.816808 0.000184 0.655164
62.593338 0.000000 136.999786 0.788904 -0.598206 0.140641 0.000184 0.492257
62.593338 0.000000 136.999786 0.788904 -0.598206 0.140641 0.803743 0.072721
44.969421 0.000000 154.622757 -0.126333 -0.562907 0.816808 0.949610 0.000184
22.002672 0.400000 110.347679 -0.666217 0.690129 0.282623 0.784631 0.441730
62.593338 0.400000 136.999786 0.788905 0.598204 0.140641 0.588558 0.691320
31.033262 0.400000 68.652023 0.377246 0.913057 0.154961 0.284631 0.000184
31.033262 0.000000 68.652023 0.377247 -0.913056 0.154961 0.000184 0.000184
27.875601 0.400000 37.296501 0.228230 0.573045 -0.787102 0.596270 0.001289
2.089298 0.000000 45.775383 -0.667553 -0.567100 -0.482463 0.988877 0.763856
31.033262 0.400000 68.652023 0.377246 0.913057 0.154961 0.285000 0.000185
22.002672 0.000000 110.347679 -0.666216 -0.690131 0.282623 0.569446 0.895796
44.969421 0.400000 154.622757 -0.126331 0.562909 0.816807 0.734425 0.763856
3 0 1 2
3 3 4 5
3 6 7 8
3 2 9 0
3 10 11 12
3 3 13 14
3 15 16 17
3 11 18 19
3 13 20 14
3 17 21 15
3 22 23 24
3 25 24 7
3 26 27 18
3 14 28 29
3 30 31 32
3 33 34 1
3 8 35 6
3 10 36 37
3 38 39 40
3 37 41 42
3 43 44 4
3 45 40 46
3 0 33 1
3 3 43 4
3 6 25 7
3 2 16 9
3 10 26 11
3 3 5 13
3 15 9 16
3 11 26 18
3 13 47 20
3 17 23 21
3 22 21 23
3 25 22 24
3 26 48 27
3 14 20 28
3 30 39 31
3 33 49 34
3 8 50 35
3 10 12 36
3 38 31 39
3 37 36 41
3 43 51 44
3 45 38 40
